SplineFontDB: 3.0
FontName: Suranna
FullName: Suranna
FamilyName: Suranna
OS2FamilyName: "Suranna"
OS2StyleName: "regular"
Weight: Regular
Copyright: Copyright (c) 2012, AP Society for Knowledge Networks, Hyderabad, INDIA.
Version: 1.0
FONDName: Suranna
ItalicAngle: 0
UnderlinePosition: -623
UnderlineWidth: 20
Ascent: 819
Descent: 205
InvalidEm: 1
UFOAscent: 895
UFODescent: -310
LayerCount: 2
Layer: 0 0 "Back" 1
Layer: 1 0 "Fore" 0
FSType: 0
OS2Version: 0
OS2_WeightWidthSlopeOnly: 0
OS2_UseTypoMetrics: 0
CreationTime: 1416987150
ModificationTime: 1416987150
PfmFamily: 16
TTFWeight: 400
TTFWidth: 5
LineGap: 0
VLineGap: 0
Panose: 0 0 0 0 0 0 0 0 0 0
OS2TypoAscent: 895
OS2TypoAOffset: 0
OS2TypoDescent: -310
OS2TypoDOffset: 0
OS2TypoLinegap: 448
OS2WinAscent: 895
OS2WinAOffset: 0
OS2WinDescent: 653
OS2WinDOffset: 0
HheadAscent: 1119
HheadAOffset: 0
HheadDescent: -534
HheadDOffset: 0
OS2SubXSize: 700
OS2SubYSize: 650
OS2SubXOff: 0
OS2SubYOff: 140
OS2SupXSize: 700
OS2SupYSize: 650
OS2SupXOff: 0
OS2SupYOff: 477
OS2StrikeYSize: 50
OS2StrikeYPos: 250
OS2CapHeight: -1
OS2XHeight: -1
OS2Vendor: 'GPK '
DEI: 91125
LangName: 1033 "" "" "" "" "" "Version 1.1 July 30, 2013, initial release" "" "Suranna is a trademark of Andhrapradesh Society for Knowledge Networks." "Andhrapradesh Society for Knowledge Networks" "Purushoth Kumar Guthula" "Copyright (c) 2012 by Andhrapradesh Society for Knowledge Networks. All rights reserved." "" "" "GNU General Public License 2.0" "http://www.gnu.org/copyleft/gpl.html"
PickledDataWithLists: "(dp1
."
Encoding: Custom
Compacted: 1
UnicodeInterp: none
NameList: AGL For New Fonts
DisplaySize: -72
AntiAlias: 1
FitToEm: 1
WinInfo: 32 8 2
BeginPrivate: 7
BlueFuzz 1 1
BlueScale 8 0.039625
BlueShift 1 7
BlueValues 5 [0 0]
ForceBold 5 false
StemSnapH 7 [78 35]
StemSnapV 7 [38 33]
EndPrivate
BeginChars: 1251 1251

StartChar: exclam
Encoding: 1 33 1
GlifName: exclam
Width: 241
VWidth: 0
Flags: W
LayerCount: 2
Back
Fore
SplineSet
177 18 m 256
NamedP: "hr00"
 177 54 149 79 118 79 c 256
 82 79 58 54 58 18 c 256
 58 -17 85 -45 118 -45 c 256
 151 -45 177 -17 177 18 c 256
NamedP: "hr00"
175 613 m 258
 175 661 159 700 114 700 c 256
 74 700 58 660 58 615 c 256
 58 596 61 567 67 528 c 258
 80 441 l 258
 91 366 98 289 96 210 c 258
 95 162 l 257
 137 162 l 257
 139 215 l 257
 139 263 l 258
 139 282 137 314 141 345 c 257
 142 366 145 393 150 424 c 258
 164 513 l 257
 172 554 l 257
 172 560 173 567 175 574 c 257
 175 590 l 257
 175 613 l 258
EndSplineSet
PickledDataWithLists: "(dp1
S'com.adobe.type.autohint'
p2
(S'data'
S'<data>\\n  <hintSetList>\\n    <hintset pointTag=\"hr00\">\\n      <hstem pos=\"-45\" width=\"124\"/>\\n      <vstem pos=\"58\" width=\"119\"/>\\n      <vstem pos=\"96\" width=\"43\"/>\\n    </hintset>\\n  </hintSetList>\\n  </data>'
Ntp3
s."
EndChar

StartChar: percent
Encoding: 5 37 5
GlifName: percent
Width: 728
VWidth: 0
Flags: W
LayerCount: 2
Back
Fore
SplineSet
652 259 m 256
NamedP: "hr00"
 652 217 640 174 617 129 c 256
 594 85 565 57 532 46 c 256
 521 43 512 41 506 41 c 256
 475 41 451 64 451 104 c 256
 451 117 454 135 461 156 c 257
 498 238 l 257
 515 268 527 288 535 299 c 256
 554 324 573 337 591 337 c 256
 604 337 614 333 620 326 c 257
 641 311 652 289 652 259 c 256
NamedP: "hr00"
314 541 m 256
 314 499 302 456 278 411 c 256
 255 367 227 339 194 327 c 256
 184 324 176 322 170 322 c 256
 139 322 112 345 112 386 c 256
 112 402 119 425 132 455 c 256
 139 472 147 493 160 518 c 256
 174 545 187 567 198 581 c 256
 216 606 235 617 252 617 c 256
 264 617 275 613 284 606 c 256
 304 588 314 566 314 541 c 256
674 278 m 257
 667 331 627 365 578 365 c 256
 529 365 485 338 445 285 c 256
 405 232 385 179 385 126 c 256
 385 55 427 13 496 13 c 256
 538 13 575 31 606 68 c 256
 633 99 654 140 669 191 c 256
 674 207 676 225 676 245 c 256
 676 257 677 266 674 278 c 257
518 662 m 257
 513 656 479 592 416 471 c 256
 336 318 280 213 251 157 c 258
 168 -3 l 257
 207 -3 l 257
 556 662 l 257
 518 662 l 257
339 559 m 256
 329 618 296 647 241 647 c 256
 191 647 146 621 106 568 c 256
 67 516 47 463 47 409 c 256
 47 337 90 295 159 295 c 256
 202 295 239 314 269 351 c 256
 294 380 314 421 330 472 c 257
 337 488 341 508 341 532 c 256
 341 543 340 552 339 559 c 256
EndSplineSet
PickledDataWithLists: "(dp1
S'com.adobe.type.autohint'
p2
(S'data'
S'<data>\\n  <hintSetList>\\n    <hintset pointTag=\"hr00\">\\n      <hstem pos=\"13\" width=\"28\"/>\\n      <hstem pos=\"295\" width=\"27\"/>\\n      <hstem pos=\"337\" width=\"28\"/>\\n      <hstem pos=\"617\" width=\"30\"/>\\n      <vstem pos=\"47\" width=\"65\"/>\\n      <vstem pos=\"314\" width=\"27\"/>\\n      <vstem pos=\"385\" width=\"66\"/>\\n      <vstem pos=\"652\" width=\"24\"/>\\n    </hintset>\\n  </hintSetList>\\n  </data>'
Ntp3
s."
EndChar

StartChar: parenleft
Encoding: 8 40 8
GlifName: parenleft
Width: 396
VWidth: 0
Flags: W
LayerCount: 2
Back
Fore
SplineSet
65 242 m 256
NamedP: "hr00"
 65 135 85 34 126 -59 c 256
 167 -153 225 -232 300 -295 c 257
 319 -283 l 257
 258 -210 210 -127 175 -36 c 256
 141 55 124 148 124 242 c 256
 124 434 196 624 319 769 c 257
 300 779 l 257
 225 718 167 640 126 546 c 256
 85 452 65 351 65 242 c 256
NamedP: "hr00"
EndSplineSet
PickledDataWithLists: "(dp1
S'com.adobe.type.autohint'
p2
(S'data'
S'<data>\\n  <hintSetList>\\n    <hintset pointTag=\"hr00\">\\n      <hstem pos=\"-295\" width=\"1074\"/>\\n      <vstem pos=\"65\" width=\"59\"/>\\n    </hintset>\\n  </hintSetList>\\n  </data>'
Ntp3
s."
EndChar

StartChar: parenright
Encoding: 9 41 9
GlifName: parenright
Width: 396
VWidth: 0
Flags: W
LayerCount: 2
Back
Fore
SplineSet
319 242 m 256
NamedP: "hr00"
 319 351 298 452 257 546 c 256
 216 640 159 718 84 779 c 257
 65 769 l 257
 188 624 260 434 260 242 c 256
 260 148 243 55 208 -36 c 256
 174 -127 126 -210 65 -283 c 257
 84 -295 l 257
 159 -232 216 -153 257 -59 c 256
 298 34 319 135 319 242 c 256
NamedP: "hr00"
EndSplineSet
PickledDataWithLists: "(dp1
S'com.adobe.type.autohint'
p2
(S'data'
S'<data>\\n  <hintSetList>\\n    <hintset pointTag=\"hr00\">\\n      <hstem pos=\"-295\" width=\"1074\"/>\\n      <vstem pos=\"260\" width=\"59\"/>\\n    </hintset>\\n  </hintSetList>\\n  </data>'
Ntp3
s."
EndChar

StartChar: plus
Encoding: 11 43 11
GlifName: plus
Width: 576
VWidth: 0
Flags: W
LayerCount: 2
Back
Fore
SplineSet
65 190 m 257
NamedP: "hr00"
 255 190 l 257
 255 0 l 257
 310 0 l 257
 310 190 l 257
 502 190 l 257
 502 242 l 257
 310 242 l 257
 310 433 l 257
 255 433 l 257
 255 242 l 257
 65 242 l 257
 65 190 l 257
NamedP: "hr00"
EndSplineSet
PickledDataWithLists: "(dp1
S'com.adobe.type.autohint'
p2
(S'data'
S'<data>\\n  <hintSetList>\\n    <hintset pointTag=\"hr00\">\\n      <hstem pos=\"21\" width=\"-21\"/>\\n      <hstem pos=\"190\" width=\"52\"/>\\n      <vstem pos=\"255\" width=\"55\"/>\\n    </hintset>\\n  </hintSetList>\\n  </data>'
Ntp3
s."
EndChar

StartChar: comma
Encoding: 12 44 12
GlifName: comma
Width: 237
VWidth: 0
Flags: W
LayerCount: 2
Back
Fore
SplineSet
165 8 m 257
NamedP: "hr00"
 166 12 166 18 166 26 c 256
 166 66 148 95 107 95 c 256
 86 95 60 67 60 46 c 256
 60 28 66 15 78 8 c 256
 83 6 89 4 96 3 c 257
 114 3 l 257
 123 4 l 257
 129 1 l 257
 132 -2 133 -7 133 -13 c 256
 133 -25 126 -39 118 -58 c 257
 95 -85 l 257
 74 -105 l 257
 84 -119 l 257
 105 -103 120 -90 131 -81 c 257
 154 -57 165 -27 165 8 c 257
NamedP: "hr00"
EndSplineSet
PickledDataWithLists: "(dp1
S'com.adobe.type.autohint'
p2
(S'data'
S'<data>\\n  <hintSetList>\\n    <hintset pointTag=\"hr00\">\\n      <hstem pos=\"3\" width=\"92\"/>\\n      <vstem pos=\"133\" width=\"33\"/>\\n    </hintset>\\n  </hintSetList>\\n  </data>'
Ntp3
s."
EndChar

StartChar: hyphen
Encoding: 13 45 13
GlifName: hyphen
Width: 528
VWidth: 0
Flags: W
LayerCount: 2
Back
Fore
SplineSet
65 188 m 257
NamedP: "hr00"
 455 188 l 257
 455 238 l 257
 65 238 l 257
 65 188 l 257
NamedP: "hr00"
EndSplineSet
PickledDataWithLists: "(dp1
S'com.adobe.type.autohint'
p2
(S'data'
S'<data>\\n  <hintSetList>\\n    <hintset pointTag=\"hr00\">\\n      <hstem pos=\"188\" width=\"50\"/>\\n      <vstem pos=\"65\" width=\"390\"/>\\n    </hintset>\\n  </hintSetList>\\n  </data>'
Ntp3
s."
EndChar

StartChar: period
Encoding: 14 46 14
GlifName: period
Width: 237
VWidth: 0
Flags: W
LayerCount: 2
Back
Fore
SplineSet
156 49 m 256
NamedP: "hr00"
 156 73 135 96 111 96 c 256
 84 96 64 73 64 49 c 256
 64 25 84 1 111 1 c 256
 135 1 156 25 156 49 c 256
NamedP: "hr00"
EndSplineSet
PickledDataWithLists: "(dp1
S'com.adobe.type.autohint'
p2
(S'data'
S'<data>\\n  <hintSetList>\\n    <hintset pointTag=\"hr00\">\\n      <hstem pos=\"1\" width=\"95\"/>\\n      <vstem pos=\"64\" width=\"92\"/>\\n    </hintset>\\n  </hintSetList>\\n  </data>'
Ntp3
s."
EndChar

StartChar: slash
Encoding: 15 47 15
GlifName: slash
Width: 607
VWidth: 0
Flags: W
LayerCount: 2
Back
Fore
SplineSet
110 -136 m 257
NamedP: "hr00"
 528 700 l 257
 483 700 l 257
 65 -136 l 257
 110 -136 l 257
NamedP: "hr00"
EndSplineSet
PickledDataWithLists: "(dp1
S'com.adobe.type.autohint'
p2
(S'data'
S'<data>\\n  <hintSetList>\\n    <hintset pointTag=\"hr00\">\\n      <hstem pos=\"-136\" width=\"836\"/>\\n      <vstem pos=\"65\" width=\"463\"/>\\n    </hintset>\\n  </hintSetList>\\n  </data>'
Ntp3
s."
EndChar

StartChar: zero
Encoding: 16 48 16
GlifName: zero
Width: 529
VWidth: 0
Flags: W
LayerCount: 2
Back
Fore
SplineSet
261 13 m 256
NamedP: "hr00"
 218 13 183 42 157 99 c 256
 131 157 118 233 118 326 c 256
 118 417 131 491 157 547 c 256
 183 603 218 631 261 631 c 256
 304 631 338 603 364 547 c 256
 391 491 404 417 404 326 c 256
 404 233 391 157 364 99 c 256
 338 42 304 13 261 13 c 256
NamedP: "hr00"
261 -12 m 256
 330 -12 385 19 426 80 c 256
 467 141 488 223 488 326 c 256
 488 427 467 509 426 570 c 256
 385 631 330 662 261 662 c 256
 193 662 138 631 96 570 c 256
 54 509 33 427 33 326 c 256
 33 223 54 141 96 80 c 256
 138 19 193 -12 261 -12 c 256
EndSplineSet
PickledDataWithLists: "(dp1
S'com.adobe.type.autohint'
p2
(S'data'
S'<data>\\n  <hintSetList>\\n    <hintset pointTag=\"hr00\">\\n      <hstem pos=\"-12\" width=\"25\"/>\\n      <hstem pos=\"631\" width=\"31\"/>\\n      <vstem pos=\"33\" width=\"85\"/>\\n      <vstem pos=\"404\" width=\"84\"/>\\n    </hintset>\\n  </hintSetList>\\n  </data>'
Ntp3
s."
EndChar

StartChar: one
Encoding: 17 49 17
GlifName: one
Width: 529
VWidth: 0
Flags: W
LayerCount: 2
Back
Fore
SplineSet
396 -4 m 257
NamedP: "hr00"
 396 19 l 257
 362 19 l 258
 331 19 303 42 303 71 c 258
 303 660 l 257
 128 572 l 257
 137 550 l 257
 156 562 181 571 196 571 c 256
 215 571 228 562 228 547 c 258
 228 67 l 258
 228 39 197 19 158 19 c 258
 125 19 l 257
 125 -4 l 257
 396 -4 l 257
NamedP: "hr00"
EndSplineSet
PickledDataWithLists: "(dp1
S'com.adobe.type.autohint'
p2
(S'data'
S'<data>\\n  <hintSetList>\\n    <hintset pointTag=\"hr00\">\\n      <hstem pos=\"-4\" width=\"23\"/>\\n      <vstem pos=\"228\" width=\"75\"/>\\n    </hintset>\\n  </hintSetList>\\n  </data>'
Ntp3
s."
EndChar

StartChar: two
Encoding: 18 50 18
GlifName: two
Width: 526
VWidth: 0
Flags: W
LayerCount: 2
Back
Fore
SplineSet
425 -4 m 257
NamedP: "hr00"
 473 108 l 257
 451 112 l 257
 440 84 416 62 391 62 c 258
 135 62 l 257
 241 188 316 283 359 346 c 256
 402 410 424 462 424 501 c 256
 424 545 407 583 374 614 c 256
 341 646 300 662 252 662 c 256
 200 662 154 644 113 608 c 256
 72 573 47 529 38 478 c 257
 64 473 l 257
 69 507 86 536 115 561 c 256
 144 586 178 599 215 599 c 256
 252 599 284 584 309 554 c 256
 335 524 348 488 348 446 c 256
 348 391 301 307 207 196 c 258
 39 -4 l 257
 425 -4 l 257
NamedP: "hr00"
EndSplineSet
PickledDataWithLists: "(dp1
S'com.adobe.type.autohint'
p2
(S'data'
S'<data>\\n  <hintSetList>\\n    <hintset pointTag=\"hr00\">\\n      <hstem pos=\"-4\" width=\"66\"/>\\n      <hstem pos=\"599\" width=\"63\"/>\\n      <vstem pos=\"38\" width=\"26\"/>\\n      <vstem pos=\"348\" width=\"76\"/>\\n    </hintset>\\n  </hintSetList>\\n  </data>'
Ntp3
s."
EndChar

StartChar: three
Encoding: 19 51 19
GlifName: three
Width: 528
VWidth: 0
Flags: W
LayerCount: 2
Back
Fore
SplineSet
186 -26 m 256
NamedP: "hr00"
 259 -26 322 -3 373 43 c 256
 424 90 450 145 450 210 c 256
 450 275 405 336 316 371 c 257
 387 404 418 465 418 533 c 256
 418 565 402 592 371 615 c 256
 340 638 303 649 260 649 c 256
 217 649 178 636 143 611 c 256
 108 586 84 555 70 517 c 257
 95 497 l 257
 123 560 179 604 232 604 c 256
 263 604 290 594 313 573 c 256
 336 552 347 527 347 497 c 256
 347 457 332 422 301 391 c 256
 270 360 233 342 190 335 c 257
 190 318 l 257
 232 318 l 258
 271 318 304 303 332 272 c 256
 359 242 374 206 374 164 c 256
 374 123 361 88 336 58 c 256
 311 29 280 14 245 14 c 256
 228 14 204 19 173 32 c 256
 143 44 119 51 102 51 c 256
 83 51 69 39 69 26 c 256
 69 -2 119 -26 186 -26 c 256
NamedP: "hr00"
EndSplineSet
PickledDataWithLists: "(dp1
S'com.adobe.type.autohint'
p2
(S'data'
S'<data>\\n  <hintSetList>\\n    <hintset pointTag=\"hr00\">\\n      <hstem pos=\"-26\" width=\"40\"/>\\n      <hstem pos=\"318\" width=\"17\"/>\\n      <hstem pos=\"604\" width=\"45\"/>\\n      <vstem pos=\"347\" width=\"71\"/>\\n      <vstem pos=\"374\" width=\"76\"/>\\n    </hintset>\\n  </hintSetList>\\n  </data>'
Ntp3
s."
EndChar

StartChar: four
Encoding: 20 52 20
GlifName: four
Width: 529
VWidth: 0
Flags: W
LayerCount: 2
Back
Fore
SplineSet
320 563 m 257
NamedP: "hr00"
 320 219 l 257
 69 219 l 257
 320 563 l 257
NamedP: "hr00"
387 -4 m 257
 387 164 l 257
 488 164 l 257
 488 219 l 257
 387 219 l 257
 387 654 l 257
 346 654 l 257
 33 222 l 257
 33 164 l 257
 320 164 l 257
 320 -4 l 257
 387 -4 l 257
EndSplineSet
PickledDataWithLists: "(dp1
S'com.adobe.type.autohint'
p2
(S'data'
S'<data>\\n  <hintSetList>\\n    <hintset pointTag=\"hr00\">\\n      <hstem pos=\"164\" width=\"55\"/>\\n      <vstem pos=\"33\" width=\"36\"/>\\n      <vstem pos=\"320\" width=\"67\"/>\\n    </hintset>\\n  </hintSetList>\\n  </data>'
Ntp3
s."
EndChar

StartChar: five
Encoding: 21 53 21
GlifName: five
Width: 528
VWidth: 0
Flags: W
LayerCount: 2
Back
Fore
SplineSet
177 -12 m 256
NamedP: "hr00"
 350 -12 451 78 451 233 c 256
 451 286 424 335 371 382 c 256
 318 429 246 465 156 488 c 257
 207 590 l 257
 425 590 l 257
 457 672 l 257
 446 672 l 257
 437 660 421 654 409 654 c 258
 197 654 l 257
 91 423 l 257
 176 407 247 378 305 335 c 256
 364 292 393 246 393 196 c 256
 393 147 379 106 351 72 c 256
 323 39 290 22 251 22 c 256
 222 22 199 24 184 33 c 256
 139 59 116 71 104 71 c 256
 80 71 60 55 60 38 c 256
 60 13 110 -12 177 -12 c 256
NamedP: "hr00"
EndSplineSet
PickledDataWithLists: "(dp1
S'com.adobe.type.autohint'
p2
(S'data'
S'<data>\\n  <hintSetList>\\n    <hintset pointTag=\"hr00\">\\n      <hstem pos=\"-12\" width=\"34\"/>\\n      <hstem pos=\"590\" width=\"64\"/>\\n      <vstem pos=\"393\" width=\"58\"/>\\n    </hintset>\\n  </hintSetList>\\n  </data>'
Ntp3
s."
EndChar

StartChar: six
Encoding: 22 54 22
GlifName: six
Width: 528
VWidth: 0
Flags: W
LayerCount: 2
Back
Fore
SplineSet
280 12 m 256
NamedP: "hr00"
 239 12 204 34 173 79 c 256
 143 124 128 178 128 241 c 256
 128 276 133 306 142 337 c 257
 167 370 206 386 243 386 c 256
 285 386 321 366 351 327 c 256
 381 288 396 241 396 186 c 256
 396 138 385 97 362 63 c 256
 339 29 312 12 280 12 c 256
NamedP: "hr00"
271 -12 m 256
 328 -12 376 12 415 60 c 256
 454 108 474 166 474 233 c 256
 474 282 456 324 420 359 c 256
 384 395 340 413 289 413 c 256
 228 413 183 404 152 365 c 257
 174 451 212 518 265 567 c 256
 319 616 378 644 443 650 c 257
 443 672 l 257
 334 672 240 631 161 550 c 256
 82 469 43 373 43 260 c 256
 43 185 65 120 109 67 c 256
 154 14 208 -12 271 -12 c 256
EndSplineSet
PickledDataWithLists: "(dp1
S'com.adobe.type.autohint'
p2
(S'data'
S'<data>\\n  <hintSetList>\\n    <hintset pointTag=\"hr00\">\\n      <hstem pos=\"-12\" width=\"24\"/>\\n      <hstem pos=\"386\" width=\"27\"/>\\n      <hstem pos=\"650\" width=\"22\"/>\\n      <vstem pos=\"43\" width=\"85\"/>\\n      <vstem pos=\"396\" width=\"78\"/>\\n    </hintset>\\n  </hintSetList>\\n  </data>'
Ntp3
s."
EndChar

StartChar: seven
Encoding: 23 55 23
GlifName: seven
Width: 526
VWidth: 0
Flags: W
LayerCount: 2
Back
Fore
SplineSet
253 -4 m 257
NamedP: "hr00"
 469 654 l 257
 93 654 l 257
 48 526 l 257
 56 518 l 257
 75 557 112 590 145 590 c 258
 401 590 l 257
 202 -4 l 257
 253 -4 l 257
NamedP: "hr00"
EndSplineSet
PickledDataWithLists: "(dp1
S'com.adobe.type.autohint'
p2
(S'data'
S'<data>\\n  <hintSetList>\\n    <hintset pointTag=\"hr00\">\\n      <hstem pos=\"590\" width=\"64\"/>\\n      <vstem pos=\"48\" width=\"421\"/>\\n    </hintset>\\n  </hintSetList>\\n  </data>'
Ntp3
s."
EndChar

StartChar: eight
Encoding: 24 56 24
GlifName: eight
Width: 528
VWidth: 0
Flags: W
LayerCount: 2
Back
Fore
SplineSet
273 371 m 257
NamedP: "hr00"
 193 427 145 491 145 547 c 256
 145 599 192 638 251 638 c 256
 319 638 374 595 374 538 c 256
 374 477 338 415 273 371 c 257
NamedP: "hr00"
269 12 m 256
 234 12 203 24 178 49 c 256
 153 74 140 104 140 141 c 256
 140 204 168 267 223 312 c 257
 327 252 393 184 393 131 c 256
 393 98 381 69 356 46 c 256
 332 23 303 12 269 12 c 256
269 -12 m 256
 320 -12 362 4 397 35 c 256
 432 67 450 105 450 149 c 256
 450 225 399 303 296 362 c 257
 387 414 432 477 432 529 c 256
 432 566 415 597 380 623 c 256
 346 648 303 662 251 662 c 256
 204 662 164 646 131 614 c 256
 98 583 82 545 82 501 c 256
 82 450 123 386 214 326 c 257
 117 269 69 207 69 154 c 256
 69 109 88 70 127 37 c 256
 166 4 214 -12 269 -12 c 256
EndSplineSet
PickledDataWithLists: "(dp1
S'com.adobe.type.autohint'
p2
(S'data'
S'<data>\\n  <hintSetList>\\n    <hintset pointTag=\"hr00\">\\n      <hstem pos=\"-12\" width=\"24\"/>\\n      <hstem pos=\"638\" width=\"24\"/>\\n      <vstem pos=\"69\" width=\"71\"/>\\n      <vstem pos=\"82\" width=\"63\"/>\\n      <vstem pos=\"374\" width=\"58\"/>\\n      <vstem pos=\"393\" width=\"57\"/>\\n    </hintset>\\n  </hintSetList>\\n  </data>'
Ntp3
s."
EndChar

StartChar: nine
Encoding: 25 57 25
GlifName: nine
Width: 526
VWidth: 0
Flags: W
LayerCount: 2
Back
Fore
SplineSet
265 277 m 256
NamedP: "hr00"
 228 277 196 294 170 329 c 256
 144 364 131 405 131 454 c 256
 131 507 141 552 162 589 c 256
 183 626 208 645 237 645 c 256
 336 645 388 532 388 313 c 257
 361 290 318 277 265 277 c 256
NamedP: "hr00"
91 -31 m 257
 201 -12 292 34 365 107 c 256
 438 180 474 263 474 354 c 256
 474 439 452 512 407 572 c 256
 362 632 309 662 246 662 c 256
 191 662 143 639 104 593 c 256
 65 547 46 492 46 427 c 256
 46 373 64 327 99 289 c 256
 134 251 177 232 228 232 c 256
 281 232 333 252 386 292 c 257
 372 218 338 155 283 102 c 256
 228 49 162 13 84 -6 c 257
 91 -31 l 257
EndSplineSet
PickledDataWithLists: "(dp1
S'com.adobe.type.autohint'
p2
(S'data'
S'<data>\\n  <hintSetList>\\n    <hintset pointTag=\"hr00\">\\n      <hstem pos=\"232\" width=\"45\"/>\\n      <hstem pos=\"645\" width=\"17\"/>\\n      <vstem pos=\"46\" width=\"85\"/>\\n      <vstem pos=\"388\" width=\"86\"/>\\n    </hintset>\\n  </hintSetList>\\n  </data>'
Ntp3
s."
EndChar

StartChar: colon
Encoding: 26 58 26
GlifName: colon
Width: 237
VWidth: 0
Flags: W
LayerCount: 2
Back
Fore
SplineSet
159 41 m 256
NamedP: "hr00"
 159 69 137 88 112 88 c 256
 88 88 67 66 67 41 c 256
 67 14 87 -5 112 -5 c 256
 139 -5 159 16 159 41 c 256
NamedP: "hr00"
159 349 m 256
 159 374 137 396 112 396 c 256
 87 396 67 376 67 349 c 256
 67 322 88 301 112 301 c 256
 137 301 159 325 159 349 c 256
EndSplineSet
PickledDataWithLists: "(dp1
S'com.adobe.type.autohint'
p2
(S'data'
S'<data>\\n  <hintSetList>\\n    <hintset pointTag=\"hr00\">\\n      <hstem pos=\"-5\" width=\"93\"/>\\n      <hstem pos=\"301\" width=\"95\"/>\\n      <vstem pos=\"67\" width=\"92\"/>\\n    </hintset>\\n  </hintSetList>\\n  </data>'
Ntp3
s."
EndChar

StartChar: semicolon
Encoding: 27 59 27
GlifName: semicolon
Width: 303
VWidth: 0
Flags: W
LayerCount: 2
Back
Fore
SplineSet
202 1 m 256
NamedP: "hr00"
 202 50 182 82 138 82 c 256
 114 82 96 61 96 40 c 256
 96 23 102 10 114 3 c 257
 126 -2 134 -4 138 -4 c 256
 145 -4 150 -4 155 -3 c 258
 163 -1 l 257
 168 -7 170 -14 170 -21 c 256
 170 -37 156 -70 147 -77 c 257
 140 -90 131 -102 121 -113 c 256
 116 -118 107 -127 92 -140 c 257
 102 -153 l 257
 132 -130 155 -108 170 -87 c 256
 191 -57 202 -28 202 1 c 256
NamedP: "hr00"
187 329 m 256
 187 360 171 376 139 376 c 256
 114 376 96 356 96 329 c 256
 96 302 114 282 142 282 c 256
 167 282 187 304 187 329 c 256
EndSplineSet
PickledDataWithLists: "(dp1
S'com.adobe.type.autohint'
p2
(S'data'
S'<data>\\n  <hintSetList>\\n    <hintset pointTag=\"hr00\">\\n      <hstem pos=\"-4\" width=\"86\"/>\\n      <hstem pos=\"20\" width=\"-21\"/>\\n      <hstem pos=\"282\" width=\"94\"/>\\n      <vstem pos=\"96\" width=\"91\"/>\\n      <vstem pos=\"170\" width=\"32\"/>\\n    </hintset>\\n  </hintSetList>\\n  </data>'
Ntp3
s."
EndChar

StartChar: equal
Encoding: 29 61 29
GlifName: equal
Width: 528
VWidth: 0
Flags: W
LayerCount: 2
Back
Fore
SplineSet
65 90 m 257
NamedP: "hr00"
 455 90 l 257
 455 140 l 257
 65 140 l 257
 65 90 l 257
NamedP: "hr00"
65 274 m 257
 455 274 l 257
 455 324 l 257
 65 324 l 257
 65 274 l 257
EndSplineSet
PickledDataWithLists: "(dp1
S'com.adobe.type.autohint'
p2
(S'data'
S'<data>\\n  <hintSetList>\\n    <hintset pointTag=\"hr00\">\\n      <hstem pos=\"90\" width=\"50\"/>\\n      <hstem pos=\"274\" width=\"50\"/>\\n      <vstem pos=\"65\" width=\"390\"/>\\n    </hintset>\\n  </hintSetList>\\n  </data>'
Ntp3
s."
EndChar

StartChar: question
Encoding: 31 63 31
GlifName: question
Width: 446
VWidth: 0
Flags: W
LayerCount: 2
Back
Fore
SplineSet
247 31 m 256
NamedP: "hr00"
 247 60 222 83 194 83 c 256
 166 83 143 58 143 31 c 256
 143 6 166 -21 194 -21 c 256
 223 -21 247 6 247 31 c 256
NamedP: "hr00"
387 509 m 256
 387 556 370 594 337 623 c 256
 304 652 265 667 220 667 c 256
 209 667 193 668 178 664 c 256
 151 657 132 651 121 645 c 256
 110 640 99 632 87 622 c 256
 63 603 47 566 47 535 c 256
 47 500 70 468 101 468 c 256
 126 468 148 489 148 512 c 256
 148 533 138 547 119 560 c 257
 111 567 l 257
 108 574 106 580 106 586 c 256
 106 604 116 617 136 625 c 256
 156 633 175 637 192 637 c 256
 269 637 303 594 303 510 c 256
 303 473 286 436 261 400 c 258
 232 358 l 258
 209 324 193 297 188 275 c 256
 183 253 180 220 180 176 c 257
 210 176 l 257
 212 217 l 258
 213 244 219 268 232 287 c 256
 240 300 256 315 279 336 c 256
 322 376 351 408 365 433 c 256
 380 458 387 484 387 509 c 256
EndSplineSet
PickledDataWithLists: "(dp1
S'com.adobe.type.autohint'
p2
(S'data'
S'<data>\\n  <hintSetList>\\n    <hintset pointTag=\"hr00\">\\n      <hstem pos=\"-21\" width=\"104\"/>\\n      <hstem pos=\"637\" width=\"30\"/>\\n      <vstem pos=\"47\" width=\"59\"/>\\n      <vstem pos=\"143\" width=\"104\"/>\\n      <vstem pos=\"180\" width=\"32\"/>\\n      <vstem pos=\"303\" width=\"84\"/>\\n    </hintset>\\n  </hintSetList>\\n  </data>'
Ntp3
s."
EndChar

StartChar: ellipsis
Encoding: 95 8230 95
GlifName: ellipsis
Width: 1069
VWidth: 0
Flags: W
LayerCount: 2
Back
Fore
SplineSet
824 -37 m 257
NamedP: "hr00"
 1017 -37 l 257
 1017 26 l 257
 824 26 l 257
 824 -37 l 257
NamedP: "hr00"
430 -37 m 257
 625 -37 l 257
 625 26 l 257
 430 26 l 257
 430 -37 l 257
21 -37 m 257
 215 -37 l 257
 215 26 l 257
 21 26 l 257
 21 -37 l 257
EndSplineSet
PickledDataWithLists: "(dp1
S'com.adobe.type.autohint'
p2
(S'data'
S'<data>\\n  <hintSetList>\\n    <hintset pointTag=\"hr00\">\\n      <hstem pos=\"-37\" width=\"63\"/>\\n      <vstem pos=\"21\" width=\"194\"/>\\n      <vstem pos=\"430\" width=\"195\"/>\\n      <vstem pos=\"824\" width=\"193\"/>\\n    </hintset>\\n  </hintSetList>\\n  </data>'
Ntp3
s."
EndChar

StartChar: quoteleft
Encoding: 96 8216 96
GlifName: quoteleft
Width: 196
VWidth: 0
Flags: W
LayerCount: 2
Back
Fore
SplineSet
147 659 m 256
NamedP: "hr00"
 147 686 134 703 109 712 c 256
 85 721 73 735 73 750 c 256
 73 764 81 776 95 790 c 258
 111 805 l 257
 118 814 l 257
 114 824 l 257
 93 824 l 257
 41 797 19 769 19 712 c 256
 19 652 42 609 95 609 c 257
 132 614 147 623 147 659 c 256
NamedP: "hr00"
EndSplineSet
PickledDataWithLists: "(dp1
S'com.adobe.type.autohint'
p2
(S'data'
S'<data>\\n  <hintSetList>\\n    <hintset pointTag=\"hr00\">\\n      <hstem pos=\"814\" width=\"10\"/>\\n      <vstem pos=\"19\" width=\"54\"/>\\n    </hintset>\\n  </hintSetList>\\n  </data>'
Ntp3
s."
EndChar

StartChar: quoteright
Encoding: 97 8217 97
GlifName: quoteright
Width: 196
VWidth: 0
Flags: W
LayerCount: 2
Back
Fore
SplineSet
147 744 m 256
NamedP: "hr00"
 147 801 122 847 70 847 c 257
 34 840 19 832 19 797 c 256
 19 769 31 751 56 742 c 256
 81 733 93 721 93 705 c 256
 93 690 86 678 72 667 c 257
 55 649 l 257
 50 642 l 257
 50 632 l 257
 73 632 l 257
 128 657 147 687 147 744 c 256
NamedP: "hr00"
EndSplineSet
PickledDataWithLists: "(dp1
S'com.adobe.type.autohint'
p2
(S'data'
S'<data>\\n  <hintSetList>\\n    <hintset pointTag=\"hr00\">\\n      <hstem pos=\"632\" width=\"215\"/>\\n      <vstem pos=\"93\" width=\"54\"/>\\n    </hintset>\\n  </hintSetList>\\n  </data>'
Ntp3
s."
EndChar

StartChar: quotedblleft
Encoding: 98 8220 98
GlifName: quotedblleft
Width: 346
VWidth: 0
Flags: W
LayerCount: 2
Back
Fore
SplineSet
296 659 m 256
NamedP: "hr00"
 296 686 283 704 257 712 c 257
 234 722 222 735 222 750 c 256
 222 764 229 777 243 790 c 258
 259 805 l 257
 265 814 l 257
 264 824 l 257
 241 824 l 257
 188 797 166 769 166 712 c 256
 166 652 193 609 242 609 c 257
 282 614 296 623 296 659 c 256
NamedP: "hr00"
147 659 m 256
 147 686 134 703 109 712 c 256
 85 721 73 735 73 750 c 256
 73 764 81 776 95 790 c 258
 111 805 l 257
 118 814 l 257
 114 824 l 257
 93 824 l 257
 41 797 19 769 19 712 c 256
 19 652 42 609 95 609 c 257
 132 614 147 623 147 659 c 256
EndSplineSet
PickledDataWithLists: "(dp1
S'com.adobe.type.autohint'
p2
(S'data'
S'<data>\\n  <hintSetList>\\n    <hintset pointTag=\"hr00\">\\n      <hstem pos=\"814\" width=\"10\"/>\\n      <vstem pos=\"19\" width=\"54\"/>\\n      <vstem pos=\"166\" width=\"56\"/>\\n    </hintset>\\n  </hintSetList>\\n  </data>'
Ntp3
s."
EndChar

StartChar: quotedblright
Encoding: 99 8221 99
GlifName: quotedblright
Width: 346
VWidth: 0
Flags: W
LayerCount: 2
Back
Fore
SplineSet
296 744 m 256
NamedP: "hr00"
 296 801 269 847 220 847 c 257
 183 840 168 832 168 797 c 256
 168 769 180 751 205 742 c 256
 230 733 242 721 242 705 c 256
 242 690 235 678 222 667 c 257
 205 649 l 257
 200 642 l 257
 201 632 l 257
 223 632 l 257
 278 657 296 687 296 744 c 256
NamedP: "hr00"
147 744 m 256
 147 801 122 847 70 847 c 257
 34 840 19 832 19 797 c 256
 19 769 31 751 56 742 c 256
 81 733 93 721 93 705 c 256
 93 690 86 678 72 667 c 257
 55 649 l 257
 50 642 l 257
 50 632 l 257
 73 632 l 257
 128 657 147 687 147 744 c 256
EndSplineSet
PickledDataWithLists: "(dp1
S'com.adobe.type.autohint'
p2
(S'data'
S'<data>\\n  <hintSetList>\\n    <hintset pointTag=\"hr00\">\\n      <hstem pos=\"632\" width=\"215\"/>\\n      <vstem pos=\"93\" width=\"54\"/>\\n      <vstem pos=\"242\" width=\"54\"/>\\n    </hintset>\\n  </hintSetList>\\n  </data>'
Ntp3
s."
EndChar

StartChar: bullet
Encoding: 100 8226 100
GlifName: bullet
Width: 594
VWidth: 0
Flags: W
LayerCount: 2
Back
Fore
SplineSet
271 282 m 258
NamedP: "hr00"
 266 277 260 273 253 272 c 257
 253 291 258 313 265 338 c 256
 270 355 276 375 287 400 c 256
 296 423 301 432 301 451 c 256
 301 464 295 476 284 487 c 256
 273 498 260 505 246 510 c 257
 210 501 187 477 187 445 c 256
 187 436 189 425 194 410 c 257
 200 402 234 316 234 286 c 258
 234 272 l 257
 220 277 206 287 193 304 c 256
 184 315 172 330 159 349 c 256
 146 368 136 380 128 387 c 256
 114 400 99 406 84 406 c 256
 70 406 58 402 47 395 c 257
 42 393 36 389 28 383 c 257
 26 356 l 258
 24 331 36 314 56 304 c 256
 68 298 90 291 121 287 c 256
 162 281 199 272 228 255 c 257
 204 240 171 230 140 226 c 258
 101 221 l 258
 78 218 61 212 48 203 c 256
 33 193 25 177 25 156 c 256
 25 148 25 139 28 126 c 257
 49 111 60 104 85 104 c 256
 98 104 110 108 121 117 c 256
 130 124 139 133 147 146 c 257
 166 171 180 188 188 197 c 256
 205 216 219 231 234 240 c 257
 234 232 l 258
 234 203 224 176 211 140 c 258
 201 112 l 258
 194 93 189 77 189 64 c 256
 189 48 194 34 204 23 c 256
 215 11 229 3 246 -1 c 257
 279 7 302 32 302 65 c 256
 302 76 300 85 296 92 c 257
 296 97 295 102 292 109 c 258
 275 142 l 257
 269 157 264 171 260 185 c 256
 255 203 252 217 252 228 c 258
 252 240 l 257
 267 229 283 217 297 200 c 258
 338 150 l 257
 347 135 356 124 365 117 c 256
 377 108 391 104 407 104 c 256
 427 104 443 111 458 126 c 256
 461 130 462 142 462 153 c 256
 462 188 432 217 393 221 c 258
 348 226 l 258
 315 230 285 240 257 255 c 257
 276 266 297 275 320 279 c 258
 383 291 l 257
 435 294 463 321 463 355 c 256
 463 366 462 370 458 382 c 257
 438 398 424 405 403 405 c 256
 388 405 375 400 363 391 c 257
 357 385 349 375 338 360 c 258
 316 332 l 257
 271 282 l 258
NamedP: "hr00"
EndSplineSet
PickledDataWithLists: "(dp1
S'com.adobe.type.autohint'
p2
(S'data'
S'<data>\\n  <hintSetList>\\n    <hintset pointTag=\"hr00\">\\n      <hstem pos=\"20\" width=\"-21\"/>\\n      <hstem pos=\"104\" width=\"119\"/>\\n      <vstem pos=\"234\" width=\"18\"/>\\n    </hintset>\\n  </hintSetList>\\n  </data>'
Ntp3
s."
EndChar

StartChar: endash
Encoding: 101 8211 101
GlifName: endash
Width: 680
VWidth: 0
Flags: W
LayerCount: 2
Back
Fore
SplineSet
21 204 m 257
NamedP: "hr00"
 627 204 l 257
 627 278 l 257
 21 278 l 257
 21 204 l 257
NamedP: "hr00"
EndSplineSet
PickledDataWithLists: "(dp1
S'com.adobe.type.autohint'
p2
(S'data'
S'<data>\\n  <hintSetList>\\n    <hintset pointTag=\"hr00\">\\n      <hstem pos=\"204\" width=\"74\"/>\\n      <vstem pos=\"21\" width=\"606\"/>\\n    </hintset>\\n  </hintSetList>\\n  </data>'
Ntp3
s."
EndChar

StartChar: emdash
Encoding: 102 8212 102
GlifName: emdash
Width: 1483
VWidth: 0
Flags: W
LayerCount: 2
Back
Fore
SplineSet
3 204 m 257
NamedP: "hr00"
 1395 204 l 257
 1395 278 l 257
 3 278 l 257
 3 204 l 257
NamedP: "hr00"
EndSplineSet
PickledDataWithLists: "(dp1
S'com.adobe.type.autohint'
p2
(S'data'
S'<data>\\n  <hintSetList>\\n    <hintset pointTag=\"hr00\">\\n      <hstem pos=\"204\" width=\"74\"/>\\n      <vstem pos=\"3\" width=\"1392\"/>\\n    </hintset>\\n  </hintSetList>\\n  </data>'
Ntp3
s."
EndChar

StartChar: .notdef
Encoding: 111 -1 111
GlifName: _notdef
Width: 800
VWidth: 0
Flags: W
LayerCount: 2
Back
Fore
SplineSet
650 50 m 257
NamedP: "hr00"
 150 50 l 257
 150 650 l 257
 650 650 l 257
 650 50 l 257
NamedP: "hr00"
100 700 m 257
 100 0 l 257
 700 0 l 257
 700 700 l 257
 100 700 l 257
EndSplineSet
PickledDataWithLists: "(dp1
S'com.adobe.type.autohint'
p2
(S'data'
S'<data>\\n  <hintSetList>\\n    <hintset pointTag=\"hr00\">\\n      <hstem pos=\"0\" width=\"50\"/>\\n      <hstem pos=\"650\" width=\"50\"/>\\n      <vstem pos=\"100\" width=\"50\"/>\\n      <vstem pos=\"650\" width=\"50\"/>\\n    </hintset>\\n  </hintSetList>\\n  </data>'
Ntp3
s."
EndChar

StartChar: uni0950
Encoding: 114 2384 114
GlifName: uni0950
Width: 800
VWidth: 0
Flags: W
LayerCount: 2
Back
Fore
SplineSet
367 696 m 257
NamedP: "hr00"
 415 646 l 257
 462 692 l 257
 415 741 l 257
 367 696 l 257
NamedP: "hr00"
276 647 m 257
 321 579 376 545 442 545 c 256
 485 545 528 567 569 612 c 257
 506 663 l 257
 478 624 444 605 405 605 c 256
 364 605 328 624 298 663 c 257
 276 647 l 257
526 404 m 257
 545 443 575 463 615 463 c 256
 674 463 715 404 715 321 c 256
 715 276 705 240 684 211 c 256
 663 182 638 168 609 168 c 256
 572 168 553 198 553 258 c 258
 553 287 l 257
 553 344 l 258
 553 375 544 395 526 404 c 257
38 344 m 257
 47 247 78 166 131 100 c 256
 185 34 248 1 321 1 c 256
 412 1 470 57 470 140 c 256
 470 190 449 244 407 301 c 257
 439 322 465 333 484 333 c 256
 508 333 520 310 520 265 c 258
 520 229 l 258
 520 137 544 103 605 103 c 256
 693 103 748 189 748 326 c 256
 748 461 708 528 624 528 c 256
 561 528 522 489 507 412 c 257
 500 413 494 413 491 413 c 256
 452 413 412 392 369 351 c 257
 352 367 l 257
 361 384 365 402 365 421 c 256
 365 509 305 571 220 571 c 256
 187 571 155 564 126 549 c 257
 157 474 l 257
 194 494 229 504 262 504 c 256
 309 504 332 484 332 445 c 256
 332 394 295 358 221 337 c 257
 252 262 l 257
 285 277 314 302 338 335 c 257
 385 287 409 234 409 176 c 256
 409 144 398 117 376 95 c 256
 355 73 329 62 300 62 c 256
 243 62 193 89 149 142 c 256
 105 196 76 266 62 351 c 257
 38 344 l 257
EndSplineSet
PickledDataWithLists: "(dp1
S'com.adobe.type.autohint'
p2
(S'data'
S'<data>\\n  <hintSetList>\\n    <hintset pointTag=\"hr00\">\\n      <hstem pos=\"1\" width=\"61\"/>\\n      <hstem pos=\"103\" width=\"65\"/>\\n      <hstem pos=\"333\" width=\"80\"/>\\n      <hstem pos=\"463\" width=\"65\"/>\\n      <hstem pos=\"504\" width=\"67\"/>\\n      <hstem pos=\"545\" width=\"60\"/>\\n      <vstem pos=\"332\" width=\"33\"/>\\n      <vstem pos=\"409\" width=\"61\"/>\\n      <vstem pos=\"520\" width=\"33\"/>\\n      <vstem pos=\"715\" width=\"33\"/>\\n    </hintset>\\n  </hintSetList>\\n  </data>'
Ntp3
s."
EndChar

StartChar: uni0951
Encoding: 115 2385 115
GlifName: uni0951
Width: 0
VWidth: 0
Flags: W
LayerCount: 2
Back
Fore
SplineSet
-214 1412 m 257
NamedP: "hr00"
 -274 1412 l 257
 -274 972 l 257
 -214 972 l 257
 -214 1412 l 257
NamedP: "hr00"
EndSplineSet
PickledDataWithLists: "(dp1
S'com.adobe.type.autohint'
p2
(S'data'
S'<data>\\n  <hintSetList>\\n    <hintset pointTag=\"hr00\">\\n      <hstem pos=\"972\" width=\"440\"/>\\n      <vstem pos=\"-274\" width=\"60\"/>\\n    </hintset>\\n  </hintSetList>\\n  </data>'
Ntp3
s."
EndChar

StartChar: uni0952
Encoding: 116 2386 116
GlifName: uni0952
Width: 0
VWidth: 0
Flags: W
LayerCount: 2
Back
Fore
SplineSet
-61 -379 m 257
NamedP: "hr00"
 -676 -379 l 257
 -676 -432 l 257
 -61 -432 l 257
 -61 -379 l 257
NamedP: "hr00"
EndSplineSet
PickledDataWithLists: "(dp1
S'com.adobe.type.autohint'
p2
(S'data'
S'<data>\\n  <hintSetList>\\n    <hintset pointTag=\"hr00\">\\n      <hstem pos=\"-432\" width=\"53\"/>\\n      <vstem pos=\"-676\" width=\"615\"/>\\n    </hintset>\\n  </hintSetList>\\n  </data>'
Ntp3
s."
EndChar

StartChar: uni0964
Encoding: 117 2404 117
GlifName: uni0964
Width: 150
VWidth: 0
Flags: W
LayerCount: 2
Back
Fore
SplineSet
19 397 m 257
NamedP: "hr00"
 19 -17 l 257
 31 -26 l 257
 87 -26 l 258
 96 -26 100 -23 100 -17 c 258
 100 397 l 257
 87 410 l 257
 31 410 l 257
 19 397 l 257
NamedP: "hr00"
EndSplineSet
PickledDataWithLists: "(dp1
S'com.adobe.type.autohint'
p2
(S'data'
S'<data>\\n  <hintSetList>\\n    <hintset pointTag=\"hr00\">\\n      <hstem pos=\"-26\" width=\"436\"/>\\n      <vstem pos=\"19\" width=\"81\"/>\\n    </hintset>\\n  </hintSetList>\\n  </data>'
Ntp3
s."
EndChar

StartChar: uni0965
Encoding: 118 2405 118
GlifName: uni0965
Width: 320
VWidth: 0
Flags: W
LayerCount: 2
Back
Fore
SplineSet
190 397 m 257
NamedP: "hr00"
 190 -17 l 257
 202 -26 l 257
 257 -26 l 258
 266 -26 270 -23 270 -17 c 258
 270 397 l 257
 257 410 l 257
 202 410 l 257
 190 397 l 257
NamedP: "hr00"
19 397 m 257
 19 -17 l 257
 31 -26 l 257
 87 -26 l 258
 96 -26 100 -23 100 -17 c 258
 100 397 l 257
 87 410 l 257
 31 410 l 257
 19 397 l 257
EndSplineSet
PickledDataWithLists: "(dp1
S'com.adobe.type.autohint'
p2
(S'data'
S'<data>\\n  <hintSetList>\\n    <hintset pointTag=\"hr00\">\\n      <hstem pos=\"-26\" width=\"436\"/>\\n      <vstem pos=\"19\" width=\"81\"/>\\n      <vstem pos=\"190\" width=\"80\"/>\\n    </hintset>\\n  </hintSetList>\\n  </data>'
Ntp3
s."
EndChar

StartChar: uni0C01
Encoding: 119 3073 119
GlifName: uni0C01_
Width: 403
VWidth: 0
Flags: W
LayerCount: 2
Back
Fore
SplineSet
354 18 m 257
NamedP: "hr00"
 325 12 l 258
 318 11 311 9 306 9 c 258
 286 9 l 258
 227 9 182 29 151 68 c 256
 123 102 109 147 109 203 c 256
 109 258 130 304 173 341 c 256
 216 378 263 401 316 397 c 258
 354 394 l 257
 354 421 l 257
 315 429 282 433 256 433 c 256
 183 433 123 411 79 363 c 256
 38 320 19 266 19 203 c 256
 19 137 42 83 89 40 c 256
 136 -3 193 -27 260 -24 c 258
 307 -22 l 257
 354 -12 l 257
 354 18 l 257
NamedP: "hr00"
EndSplineSet
PickledDataWithLists: "(dp1
S'com.adobe.type.autohint'
p2
(S'data'
S'<data>\\n  <hintSetList>\\n    <hintset pointTag=\"hr00\">\\n      <hstem pos=\"-24\" width=\"33\"/>\\n      <hstem pos=\"397\" width=\"36\"/>\\n      <vstem pos=\"19\" width=\"90\"/>\\n    </hintset>\\n  </hintSetList>\\n  </data>'
Ntp3
s."
EndChar

StartChar: uni0C02
Encoding: 120 3074 120
GlifName: uni0C02_
Width: 506
VWidth: 0
Flags: W
LayerCount: 2
Back
Fore
SplineSet
416 192 m 256
NamedP: "hr00"
 416 166 407 142 391 121 c 256
 375 100 354 86 324 78 c 257
 297 68 269 61 240 63 c 258
 193 67 l 257
 152 78 l 258
 91 94 60 135 60 192 c 256
 60 233 77 264 110 283 c 257
 144 307 187 319 240 319 c 256
 265 319 292 314 323 305 c 256
 354 296 378 280 393 257 c 256
 408 235 416 213 416 192 c 256
NamedP: "hr00"
456 192 m 256
 456 237 446 276 427 308 c 256
 406 342 379 367 345 383 c 256
 312 398 277 406 240 406 c 256
 177 406 124 387 82 348 c 256
 40 309 19 257 19 192 c 256
 19 125 41 71 85 32 c 256
 129 -7 181 -26 240 -26 c 256
 277 -26 313 -18 347 -3 c 257
 384 18 410 44 427 73 c 256
 446 107 456 147 456 192 c 256
EndSplineSet
PickledDataWithLists: "(dp1
S'com.adobe.type.autohint'
p2
(S'data'
S'<data>\\n  <hintSetList>\\n    <hintset pointTag=\"hr00\">\\n      <hstem pos=\"-26\" width=\"89\"/>\\n      <hstem pos=\"319\" width=\"87\"/>\\n      <vstem pos=\"19\" width=\"41\"/>\\n      <vstem pos=\"416\" width=\"40\"/>\\n    </hintset>\\n  </hintSetList>\\n  </data>'
Ntp3
s."
EndChar

StartChar: uni0C03
Encoding: 121 3075 121
GlifName: uni0C03_
Width: 260
VWidth: 0
Flags: W
LayerCount: 2
Back
Fore
SplineSet
173 63 m 257
NamedP: "hr00"
 164 27 138 9 118 9 c 257
 98 12 84 17 75 24 c 257
 65 35 60 48 60 64 c 256
 60 101 87 123 119 123 c 257
 134 120 145 115 154 106 c 256
 167 94 173 80 173 63 c 257
NamedP: "hr00"
173 318 m 256
 173 282 142 259 118 259 c 257
 100 262 87 267 78 276 c 256
 66 289 60 303 60 318 c 256
 60 333 66 347 78 358 c 256
 90 368 104 373 119 373 c 256
 150 373 173 353 173 318 c 256
211 64 m 256
 211 94 203 117 186 132 c 256
 168 149 145 158 118 158 c 256
 58 158 19 116 19 64 c 256
 19 36 29 14 48 -1 c 257
 65 -18 89 -26 119 -26 c 256
 148 -26 165 -18 186 -3 c 257
 203 14 211 37 211 64 c 256
211 318 m 256
 211 374 173 408 118 408 c 256
 59 408 19 366 19 318 c 256
 19 259 66 223 118 223 c 256
 142 223 164 231 183 247 c 257
 202 267 211 291 211 318 c 256
EndSplineSet
PickledDataWithLists: "(dp1
S'com.adobe.type.autohint'
p2
(S'data'
S'<data>\\n  <hintSetList>\\n    <hintset pointTag=\"hr00\">\\n      <hstem pos=\"-26\" width=\"35\"/>\\n      <hstem pos=\"123\" width=\"35\"/>\\n      <hstem pos=\"223\" width=\"36\"/>\\n      <hstem pos=\"373\" width=\"35\"/>\\n      <vstem pos=\"19\" width=\"41\"/>\\n      <vstem pos=\"173\" width=\"38\"/>\\n    </hintset>\\n  </hintSetList>\\n  </data>'
Ntp3
s."
EndChar

StartChar: uni0C05
Encoding: 122 3077 122
GlifName: uni0C05_
Width: 623
VWidth: 0
Flags: W
LayerCount: 2
Back
Fore
SplineSet
227 305 m 256
NamedP: "hr00"
 227 270 208 240 165 240 c 256
 129 240 105 273 105 305 c 256
 105 340 129 371 165 371 c 256
 186 371 202 364 211 351 c 257
 222 341 227 326 227 305 c 256
NamedP: "hr00"
573 226 m 256
 571 305 542 366 505 390 c 256
 444 430 367 382 370 322 c 256
 371 288 387 255 422 223 c 257
 277 223 l 257
 263 191 l 257
 474 191 l 257
 474 226 l 257
 428 257 404 286 405 314 c 256
 406 394 500 388 522 313 c 256
 528 292 533 268 533 241 c 256
 533 192 510 150 465 115 c 256
 420 80 362 61 293 62 c 256
 256 62 221 70 186 82 c 256
 145 96 113 114 92 138 c 256
 67 166 56 201 56 238 c 256
 56 256 61 277 70 301 c 257
 70 276 79 255 98 237 c 257
 123 219 147 210 168 210 c 256
 192 210 214 219 233 237 c 256
 253 255 263 278 263 305 c 256
 263 336 253 360 232 379 c 256
 211 398 189 408 164 408 c 256
 121 408 73 382 42 321 c 256
 27 291 19 259 19 226 c 256
 19 147 50 81 100 42 c 256
 159 -4 226 -26 297 -26 c 256
 441 -25 576 71 573 226 c 256
EndSplineSet
PickledDataWithLists: "(dp1
S'com.adobe.type.autohint'
p2
(S'data'
S'<data>\\n  <hintSetList>\\n    <hintset pointTag=\"hr00\">\\n      <hstem pos=\"-26\" width=\"88\"/>\\n      <hstem pos=\"191\" width=\"32\"/>\\n      <hstem pos=\"210\" width=\"30\"/>\\n      <hstem pos=\"371\" width=\"37\"/>\\n      <hstem pos=\"372\" width=\"32\"/>\\n      <vstem pos=\"19\" width=\"37\"/>\\n      <vstem pos=\"70\" width=\"35\"/>\\n      <vstem pos=\"227\" width=\"36\"/>\\n      <vstem pos=\"370\" width=\"35\"/>\\n      <vstem pos=\"533\" width=\"40\"/>\\n    </hintset>\\n  </hintSetList>\\n  </data>'
Ntp3
s."
EndChar

StartChar: uni0C06
Encoding: 123 3078 123
GlifName: uni0C06_
Width: 706
VWidth: 0
Flags: W
LayerCount: 2
Back
Fore
SplineSet
227 305 m 256
NamedP: "hr00"
 227 270 208 240 168 240 c 256
 131 240 107 273 107 305 c 256
 107 340 131 371 168 371 c 256
 187 371 202 364 211 351 c 257
 222 341 227 326 227 305 c 256
NamedP: "hr00"
619 304 m 256
 619 269 583 238 550 238 c 257
 510 257 490 284 490 317 c 256
 490 349 517 380 558 373 c 256
 601 366 619 329 619 304 c 256
656 303 m 256
 656 329 645 353 623 375 c 256
 601 397 575 408 545 408 c 256
 528 408 512 403 495 394 c 257
 460 365 454 345 454 318 c 256
 454 301 457 286 463 274 c 257
 490 238 l 257
 307 238 l 257
 291 205 l 257
 541 205 l 257
 570 186 577 179 577 158 c 256
 577 128 550 105 495 88 c 256
 441 72 386 64 329 64 c 256
 277 64 218 77 198 85 c 257
 157 97 122 113 96 137 c 256
 68 163 55 196 55 232 c 256
 55 253 59 271 65 287 c 258
 72 305 l 257
 72 278 80 257 97 240 c 257
 118 223 141 215 168 215 c 256
 204 215 213 224 224 231 c 256
 230 235 239 244 250 258 c 256
 259 271 263 289 263 312 c 256
 263 371 215 408 163 408 c 256
 125 408 91 392 62 360 c 256
 33 329 19 284 19 226 c 256
 19 146 49 84 108 40 c 256
 168 -4 242 -26 329 -26 c 256
 428 -26 504 -10 555 21 c 256
 606 52 632 91 632 136 c 256
 632 165 619 188 593 206 c 257
 628 221 656 255 656 303 c 256
EndSplineSet
PickledDataWithLists: "(dp1
S'com.adobe.type.autohint'
p2
(S'data'
S'<data>\\n  <hintSetList>\\n    <hintset pointTag=\"hr00\">\\n      <hstem pos=\"-26\" width=\"90\"/>\\n      <hstem pos=\"205\" width=\"33\"/>\\n      <hstem pos=\"215\" width=\"25\"/>\\n      <hstem pos=\"371\" width=\"37\"/>\\n      <vstem pos=\"19\" width=\"36\"/>\\n      <vstem pos=\"72\" width=\"35\"/>\\n      <vstem pos=\"227\" width=\"36\"/>\\n      <vstem pos=\"454\" width=\"36\"/>\\n      <vstem pos=\"577\" width=\"55\"/>\\n      <vstem pos=\"619\" width=\"37\"/>\\n    </hintset>\\n  </hintSetList>\\n  </data>'
Ntp3
s."
EndChar

StartChar: uni0C07
Encoding: 124 3079 124
GlifName: uni0C07_
Width: 521
VWidth: 0
Flags: W
LayerCount: 2
Back
Fore
SplineSet
346 79 m 257
NamedP: "hr00"
 313 62 269 53 213 53 c 256
 182 53 169 57 148 68 c 256
 129 79 119 91 119 104 c 256
 120 136 161 155 213 155 c 256
 268 155 313 130 346 79 c 257
NamedP: "hr00"
410 53 m 257
 449 92 469 141 470 198 c 256
 472 256 467 300 454 331 c 256
 442 362 426 383 406 394 c 257
 387 408 367 415 345 415 c 256
 304 415 269 395 240 356 c 257
 213 392 183 414 140 414 c 256
 75 414 19 351 19 254 c 257
 47 254 l 257
 47 297 89 328 133 328 c 256
 149 328 164 325 179 319 c 257
 200 308 l 257
 217 293 225 273 225 247 c 257
 255 247 l 257
 255 299 293 328 338 328 c 256
 398 328 429 301 429 212 c 257
 422 153 405 116 378 101 c 257
 338 150 284 182 213 182 c 256
 166 182 127 173 97 154 c 257
 72 133 60 108 60 79 c 256
 60 50 72 26 97 5 c 257
 130 -16 167 -26 210 -26 c 256
 285 -26 342 -9 383 24 c 257
 378 -19 l 257
 366 -79 l 257
 348 -158 l 257
 350 -173 356 -183 365 -187 c 257
 374 -195 386 -199 402 -199 c 256
 438 -199 453 -179 452 -154 c 258
 450 -95 l 257
 442 -40 l 258
 437 -5 425 26 410 53 c 257
EndSplineSet
PickledDataWithLists: "(dp1
S'com.adobe.type.autohint'
p2
(S'data'
S'<data>\\n  <hintSetList>\\n    <hintset pointTag=\"hr00\">\\n      <hstem pos=\"-26\" width=\"79\"/>\\n      <hstem pos=\"155\" width=\"27\"/>\\n      <hstem pos=\"328\" width=\"86\"/>\\n      <vstem pos=\"19\" width=\"28\"/>\\n      <vstem pos=\"60\" width=\"59\"/>\\n      <vstem pos=\"225\" width=\"30\"/>\\n      <vstem pos=\"348\" width=\"104\"/>\\n      <vstem pos=\"429\" width=\"41\"/>\\n    </hintset>\\n  </hintSetList>\\n  </data>'
Ntp3
s."
EndChar

StartChar: uni0C08
Encoding: 125 3080 125
GlifName: uni0C08_
Width: 948
VWidth: 0
Flags: W
LayerCount: 2
Back
Fore
SplineSet
509 186 m 257
NamedP: "hr00"
 500 145 483 114 456 94 c 257
 428 68 389 55 338 55 c 256
 292 55 251 69 216 96 c 256
 181 124 164 154 164 186 c 257
 509 186 l 257
NamedP: "hr00"
166 217 m 257
 166 260 181 297 212 327 c 256
 243 358 285 373 338 373 c 256
 392 373 434 357 464 326 c 256
 495 295 510 258 510 217 c 257
 166 217 l 257
863 133 m 256
 863 96 840 78 807 78 c 256
 790 78 776 83 763 92 c 257
 752 107 746 120 746 133 c 256
 746 151 751 164 761 173 c 256
 772 182 787 186 805 186 c 256
 844 186 863 168 863 133 c 256
900 106 m 256
 900 124 895 145 886 168 c 257
 872 191 859 205 846 208 c 257
 880 236 897 263 897 290 c 256
 897 338 851 371 795 371 c 256
 723 371 684 336 684 259 c 257
 716 259 l 257
 728 307 747 314 774 314 c 256
 821 314 838 297 838 269 c 257
 833 238 815 219 792 219 c 258
 557 219 l 257
 550 275 529 319 492 350 c 256
 455 381 414 400 368 406 c 257
 402 424 l 257
 551 545 l 257
 506 582 l 257
 378 454 l 258
 362 438 348 431 340 431 c 256
 329 431 317 446 302 474 c 258
 284 508 l 257
 275 527 l 257
 262 536 248 541 232 541 c 256
 187 541 164 521 164 481 c 257
 167 452 210 413 278 400 c 257
 233 385 197 364 170 336 c 256
 139 302 124 263 124 219 c 257
 19 219 l 257
 19 186 l 257
 123 186 l 257
 123 140 134 103 154 72 c 256
 200 0 263 -26 340 -26 c 256
 379 -26 415 -19 446 -3 c 256
 483 16 511 42 529 73 c 256
 553 114 559 142 559 186 c 257
 737 186 l 257
 713 166 701 139 701 106 c 256
 701 80 710 54 729 29 c 257
 750 6 777 -6 809 -6 c 256
 866 -6 900 43 900 106 c 256
EndSplineSet
PickledDataWithLists: "(dp1
S'com.adobe.type.autohint'
p2
(S'data'
S'<data>\\n  <hintSetList>\\n    <hintset pointTag=\"hr00\">\\n      <hstem pos=\"-26\" width=\"81\"/>\\n      <hstem pos=\"-6\" width=\"84\"/>\\n      <hstem pos=\"186\" width=\"33\"/>\\n      <hstem pos=\"186\" width=\"31\"/>\\n      <hstem pos=\"314\" width=\"57\"/>\\n      <hstem pos=\"373\" width=\"58\"/>\\n      <vstem pos=\"124\" width=\"42\"/>\\n      <vstem pos=\"510\" width=\"47\"/>\\n      <vstem pos=\"684\" width=\"32\"/>\\n      <vstem pos=\"701\" width=\"45\"/>\\n      <vstem pos=\"838\" width=\"59\"/>\\n      <vstem pos=\"863\" width=\"37\"/>\\n    </hintset>\\n  </hintSetList>\\n  </data>'
Ntp3
s."
EndChar

StartChar: uni0C09
Encoding: 126 3081 126
GlifName: uni0C09_
Width: 611
VWidth: 0
Flags: W
LayerCount: 2
Back
Fore
SplineSet
523 88 m 257
NamedP: "hr00"
 518 56 498 49 469 49 c 256
 438 50 415 63 415 87 c 256
 415 113 433 126 469 126 c 256
 505 126 523 113 523 88 c 257
NamedP: "hr00"
561 85 m 256
 561 137 531 163 470 163 c 256
 409 163 379 139 379 91 c 257
 382 74 388 60 397 49 c 257
 353 62 324 85 311 119 c 257
 273 119 l 257
 250 63 223 49 174 49 c 256
 140 49 114 64 96 95 c 256
 78 126 69 163 69 205 c 257
 561 205 l 257
 561 238 l 257
 69 238 l 257
 69 269 91 299 134 328 c 256
 178 357 228 371 284 371 c 256
 331 371 370 366 402 354 c 256
 430 343 455 326 481 305 c 257
 516 342 l 257
 481 365 450 381 421 389 c 256
 392 397 356 401 313 401 c 257
 313 416 320 444 336 486 c 256
 342 503 346 517 346 528 c 256
 346 571 330 593 297 592 c 256
 264 591 246 559 246 528 c 256
 246 515 252 494 263 467 c 256
 275 440 281 418 281 401 c 257
 204 401 141 380 92 337 c 256
 43 294 19 247 19 195 c 256
 19 134 32 81 58 38 c 256
 84 -5 119 -26 163 -26 c 256
 180 -26 194 -25 205 -23 c 257
 237 -10 l 257
 258 5 276 23 293 44 c 257
 329 -3 375 -26 432 -26 c 256
 474 -26 507 -17 528 3 c 256
 551 24 561 52 561 85 c 256
EndSplineSet
PickledDataWithLists: "(dp1
S'com.adobe.type.autohint'
p2
(S'data'
S'<data>\\n  <hintSetList>\\n    <hintset pointTag=\"hr00\">\\n      <hstem pos=\"-26\" width=\"75\"/>\\n      <hstem pos=\"126\" width=\"37\"/>\\n      <hstem pos=\"205\" width=\"33\"/>\\n      <hstem pos=\"371\" width=\"30\"/>\\n      <vstem pos=\"19\" width=\"50\"/>\\n      <vstem pos=\"246\" width=\"100\"/>\\n      <vstem pos=\"281\" width=\"32\"/>\\n      <vstem pos=\"379\" width=\"36\"/>\\n      <vstem pos=\"523\" width=\"38\"/>\\n    </hintset>\\n  </hintSetList>\\n  </data>'
Ntp3
s."
EndChar

StartChar: uni0C0A
Encoding: 127 3082 127
GlifName: uni0C0A_
Width: 855
VWidth: 0
Flags: W
LayerCount: 2
Back
Fore
SplineSet
519 87 m 256
NamedP: "hr00"
 519 62 502 49 468 49 c 256
 431 49 413 62 413 87 c 256
 413 114 431 127 466 127 c 256
 501 127 519 114 519 87 c 256
NamedP: "hr00"
770 155 m 257
 762 116 746 100 709 100 c 256
 674 100 651 124 651 155 c 256
 651 190 674 209 709 209 c 256
 750 209 770 191 770 155 c 257
806 136 m 256
 806 160 802 180 793 195 c 257
 786 210 772 222 751 231 c 257
 786 258 804 285 804 312 c 256
 804 331 790 349 762 366 c 256
 734 383 707 390 682 388 c 256
 633 385 588 357 588 282 c 257
 622 282 l 257
 622 317 641 335 678 335 c 256
 725 335 745 315 745 292 c 257
 740 260 720 238 695 238 c 258
 84 238 l 257
 84 267 105 295 147 322 c 256
 190 349 235 365 283 362 c 258
 342 358 l 257
 395 346 l 258
 435 337 463 321 481 305 c 257
 516 342 l 257
 467 369 421 387 378 396 c 257
 378 417 383 433 390 460 c 258
 402 508 l 257
 405 527 l 257
 405 570 390 592 359 592 c 256
 334 592 315 564 315 528 c 256
 315 518 318 503 324 482 c 256
 337 440 343 412 343 399 c 257
 292 404 l 257
 257 401 l 257
 219 394 l 257
 219 413 224 435 231 460 c 258
 245 508 l 257
 250 527 l 257
 250 563 226 592 201 592 c 257
 172 587 159 563 159 527 c 257
 166 486 l 257
 181 446 188 412 188 383 c 257
 135 365 93 333 60 288 c 256
 33 250 19 209 19 164 c 256
 19 109 30 64 56 28 c 256
 82 -8 118 -26 163 -26 c 256
 202 -26 229 -13 241 -8 c 257
 262 7 279 25 293 44 c 257
 329 -3 375 -26 432 -26 c 256
 474 -26 507 -17 528 3 c 256
 551 24 561 52 561 85 c 256
 561 111 553 131 536 144 c 256
 518 157 495 164 468 164 c 256
 445 164 425 156 409 139 c 256
 394 122 386 106 386 91 c 256
 387 72 390 58 393 49 c 257
 352 58 324 82 311 119 c 257
 273 119 l 257
 250 63 223 49 174 49 c 256
 141 49 115 60 96 81 c 257
 78 106 69 137 69 172 c 257
 73 209 l 257
 640 209 l 257
 616 188 604 161 604 127 c 256
 604 67 647 17 702 17 c 256
 778 17 806 57 806 136 c 256
EndSplineSet
PickledDataWithLists: "(dp1
S'com.adobe.type.autohint'
p2
(S'data'
S'<data>\\n  <hintSetList>\\n    <hintset pointTag=\"hr00\">\\n      <hstem pos=\"-26\" width=\"75\"/>\\n      <hstem pos=\"17\" width=\"83\"/>\\n      <hstem pos=\"127\" width=\"37\"/>\\n      <hstem pos=\"209\" width=\"29\"/>\\n      <hstem pos=\"335\" width=\"53\"/>\\n      <hstem pos=\"362\" width=\"39\"/>\\n      <vstem pos=\"19\" width=\"50\"/>\\n      <vstem pos=\"188\" width=\"31\"/>\\n      <vstem pos=\"315\" width=\"90\"/>\\n      <vstem pos=\"343\" width=\"35\"/>\\n      <vstem pos=\"386\" width=\"27\"/>\\n      <vstem pos=\"519\" width=\"42\"/>\\n      <vstem pos=\"588\" width=\"34\"/>\\n      <vstem pos=\"604\" width=\"47\"/>\\n      <vstem pos=\"745\" width=\"59\"/>\\n      <vstem pos=\"770\" width=\"36\"/>\\n    </hintset>\\n  </hintSetList>\\n  </data>'
Ntp3
s."
EndChar

StartChar: uni0C0B
Encoding: 128 3083 128
GlifName: uni0C0B_
Width: 1244
VWidth: 0
Flags: W
LayerCount: 2
Back
Fore
SplineSet
543 72 m 257
NamedP: "hr00"
 566 42 585 21 600 10 c 256
 637 -15 675 -28 713 -28 c 256
 756 -28 793 -11 823 24 c 256
 839 44 850 68 855 95 c 257
 873 72 l 258
 896 43 912 21 928 10 c 256
 967 -15 1003 -28 1038 -28 c 256
 1126 -28 1195 44 1195 181 c 256
 1195 212 1185 247 1165 288 c 257
 1134 338 l 258
 1127 349 1115 362 1098 376 c 256
 1070 397 1045 408 1023 408 c 256
 1002 408 987 403 977 394 c 257
 966 386 960 375 960 360 c 257
 967 327 986 305 1023 305 c 256
 1111 305 1155 265 1155 186 c 256
 1155 113 1113 67 1025 67 c 257
 977 72 l 257
 931 87 l 257
 882 112 l 257
 864 127 l 257
 866 181 l 258
 867 212 857 247 838 288 c 257
 807 338 l 258
 800 350 787 362 772 376 c 257
 742 397 716 408 695 408 c 256
 674 408 659 403 648 394 c 256
 637 386 632 375 632 360 c 257
 640 327 656 305 695 305 c 256
 784 305 828 265 828 186 c 256
 828 113 784 67 700 67 c 257
 650 72 l 257
 602 87 l 257
 556 112 l 257
 534 127 l 257
 536 174 l 257
 533 218 l 257
 527 267 l 257
 506 323 l 257
 481 367 l 257
 458 396 431 410 401 410 c 257
 366 403 351 391 351 371 c 256
 351 346 366 328 396 318 c 257
 437 299 460 277 485 238 c 256
 498 219 505 200 505 183 c 256
 505 95 474 62 401 62 c 256
 341 62 306 89 297 142 c 257
 261 142 l 257
 254 108 243 88 227 81 c 257
 210 68 186 62 154 62 c 256
 139 62 123 65 106 72 c 257
 93 81 87 91 87 100 c 257
 90 112 96 122 104 131 c 257
 166 182 l 258
 231 236 265 260 265 303 c 256
 265 326 259 345 248 360 c 257
 211 401 184 408 163 410 c 258
 138 412 l 258
 107 414 79 403 55 384 c 256
 31 365 19 339 19 305 c 257
 22 289 26 278 31 272 c 257
 42 263 53 258 63 258 c 257
 90 265 105 276 105 303 c 257
 100 313 l 257
 98 332 l 257
 102 346 109 355 119 360 c 257
 129 367 141 371 154 371 c 256
 197 371 225 350 225 314 c 256
 225 290 217 270 201 254 c 258
 170 224 l 257
 127 194 l 257
 84 160 l 258
 72 151 63 142 56 133 c 257
 39 116 31 98 31 78 c 256
 31 45 42 18 65 0 c 256
 88 -18 118 -26 154 -26 c 256
 186 -26 211 -20 228 -8 c 256
 247 7 264 27 278 54 c 257
 297 26 314 6 329 -7 c 256
 344 -20 368 -26 401 -26 c 256
 440 -26 472 -12 498 17 c 256
 514 36 525 62 531 95 c 257
 543 72 l 257
NamedP: "hr00"
EndSplineSet
PickledDataWithLists: "(dp1
S'com.adobe.type.autohint'
p2
(S'data'
S'<data>\\n  <hintSetList>\\n    <hintset pointTag=\"hr00\">\\n      <hstem pos=\"-28\" width=\"95\"/>\\n      <hstem pos=\"-26\" width=\"88\"/>\\n      <hstem pos=\"305\" width=\"103\"/>\\n      <hstem pos=\"371\" width=\"41\"/>\\n      <vstem pos=\"19\" width=\"80\"/>\\n      <vstem pos=\"31\" width=\"56\"/>\\n      <vstem pos=\"225\" width=\"40\"/>\\n      <vstem pos=\"505\" width=\"30\"/>\\n      <vstem pos=\"828\" width=\"38\"/>\\n      <vstem pos=\"1155\" width=\"40\"/>\\n    </hintset>\\n  </hintSetList>\\n  </data>'
Ntp3
s."
EndChar

StartChar: uni0C0C
Encoding: 129 3084 129
GlifName: uni0C0C_
Width: 708
VWidth: 0
Flags: W
LayerCount: 2
Back
Fore
SplineSet
637 228 m 256
NamedP: "hr00"
 637 327 630 388 615 411 c 257
 601 428 l 257
 595 433 588 435 580 435 c 256
 559 435 549 426 549 409 c 257
 583 307 l 258
 593 278 600 257 600 242 c 256
 600 101 541 22 453 22 c 256
 372 22 320 63 320 127 c 256
 320 147 359 206 438 303 c 256
 477 352 497 394 497 428 c 256
 497 528 448 589 377 589 c 256
 343 589 317 577 299 553 c 257
 277 516 l 258
 261 488 258 478 254 462 c 257
 237 508 220 537 208 553 c 256
 189 576 165 589 133 589 c 256
 62 589 19 523 19 412 c 256
 19 371 34 328 63 285 c 257
 92 285 l 257
 75 322 67 359 67 395 c 256
 67 463 97 504 136 504 c 256
 196 504 240 437 240 326 c 257
 274 326 l 257
 274 381 283 423 301 452 c 256
 320 481 342 495 366 495 c 256
 423 495 452 462 452 395 c 256
 452 372 424 331 368 272 c 256
 313 213 285 164 285 127 c 256
 285 66 302 22 336 -6 c 256
 365 -30 404 -42 452 -42 c 256
 565 -42 637 59 637 228 c 256
NamedP: "hr00"
EndSplineSet
PickledDataWithLists: "(dp1
S'com.adobe.type.autohint'
p2
(S'data'
S'<data>\\n  <hintSetList>\\n    <hintset pointTag=\"hr00\">\\n      <hstem pos=\"-42\" width=\"64\"/>\\n      <hstem pos=\"495\" width=\"94\"/>\\n      <hstem pos=\"504\" width=\"85\"/>\\n      <vstem pos=\"19\" width=\"48\"/>\\n      <vstem pos=\"240\" width=\"34\"/>\\n      <vstem pos=\"285\" width=\"35\"/>\\n      <vstem pos=\"452\" width=\"45\"/>\\n      <vstem pos=\"600\" width=\"37\"/>\\n    </hintset>\\n  </hintSetList>\\n  </data>'
Ntp3
s."
EndChar

StartChar: uni0C0E
Encoding: 130 3086 130
GlifName: uni0C0E_
Width: 544
VWidth: 0
Flags: W
LayerCount: 2
Back
Fore
SplineSet
202 126 m 256
NamedP: "hr00"
 202 91 175 64 132 64 c 256
 84 64 60 98 60 123 c 256
 60 140 66 155 79 168 c 257
 94 180 111 186 132 186 c 256
 175 186 202 154 202 126 c 256
NamedP: "hr00"
495 233 m 256
 498 449 371 612 269 608 c 256
 233 606 214 588 214 565 c 256
 214 545 224 532 251 523 c 256
 392 475 460 371 460 247 c 256
 460 131 429 64 354 64 c 256
 334 64 318 70 307 81 c 257
 290 94 279 104 274 109 c 256
 269 115 261 125 252 138 c 257
 218 174 l 257
 211 185 202 194 192 201 c 256
 171 216 149 223 127 223 c 256
 91 223 64 210 46 184 c 256
 28 158 19 129 19 97 c 256
 19 68 28 39 46 12 c 257
 69 -13 96 -26 127 -26 c 256
 152 -26 172 -16 188 3 c 256
 205 25 218 48 227 72 c 257
 251 31 264 15 283 -4 c 257
 301 -19 322 -26 346 -26 c 256
 445 -26 492 60 495 233 c 256
EndSplineSet
PickledDataWithLists: "(dp1
S'com.adobe.type.autohint'
p2
(S'data'
S'<data>\\n  <hintSetList>\\n    <hintset pointTag=\"hr00\">\\n      <hstem pos=\"-26\" width=\"90\"/>\\n      <hstem pos=\"186\" width=\"37\"/>\\n      <vstem pos=\"19\" width=\"41\"/>\\n      <vstem pos=\"460\" width=\"35\"/>\\n    </hintset>\\n  </hintSetList>\\n  </data>'
Ntp3
s."
EndChar

StartChar: uni0C0F
Encoding: 131 3087 131
GlifName: uni0C0F_
Width: 544
VWidth: 0
Flags: W
LayerCount: 2
Back
Fore
SplineSet
202 126 m 256
NamedP: "hr00"
 202 91 175 64 132 64 c 256
 84 64 60 98 60 123 c 256
 60 140 66 155 79 168 c 257
 94 180 111 186 132 186 c 256
 175 186 202 154 202 126 c 256
NamedP: "hr00"
495 233 m 256
 498 449 371 612 269 608 c 256
 233 606 214 588 214 565 c 256
 214 545 224 532 251 523 c 256
 392 477 456 374 456 247 c 256
 456 125 422 64 354 64 c 256
 336 64 320 70 306 81 c 257
 282 104 l 257
 252 140 l 257
 229 165 l 257
 193 201 l 257
 170 216 148 223 127 223 c 256
 55 223 19 181 19 97 c 256
 19 68 28 39 46 12 c 257
 69 -13 96 -26 127 -26 c 256
 152 -26 172 -16 188 3 c 256
 205 25 218 48 227 72 c 257
 251 31 264 15 283 -4 c 257
 301 -19 322 -26 346 -26 c 256
 445 -26 492 60 495 233 c 256
148 703 m 257
 153 735 143 749 120 751 c 256
 81 755 33 711 28 629 c 258
 23 553 l 258
 21 530 25 509 32 488 c 258
 47 440 l 257
 69 386 l 257
 97 400 l 257
 86 435 l 257
 79 472 l 257
 73 490 72 508 77 527 c 257
 80 558 93 587 110 618 c 258
 140 672 l 257
 148 703 l 257
EndSplineSet
PickledDataWithLists: "(dp1
S'com.adobe.type.autohint'
p2
(S'data'
S'<data>\\n  <hintSetList>\\n    <hintset pointTag=\"hr00\">\\n      <hstem pos=\"-26\" width=\"90\"/>\\n      <hstem pos=\"186\" width=\"37\"/>\\n      <vstem pos=\"19\" width=\"41\"/>\\n      <vstem pos=\"23\" width=\"54\"/>\\n      <vstem pos=\"456\" width=\"39\"/>\\n    </hintset>\\n  </hintSetList>\\n  </data>'
Ntp3
s."
EndChar

StartChar: uni0C10
Encoding: 132 3088 132
GlifName: uni0C10_
Width: 589
VWidth: 0
Flags: W
LayerCount: 2
Back
Fore
SplineSet
206 126 m 256
NamedP: "hr00"
 206 91 174 64 134 64 c 256
 79 64 59 96 59 123 c 256
 59 159 90 186 134 186 c 256
 179 186 206 157 206 126 c 256
NamedP: "hr00"
541 197 m 256
 541 244 536 284 522 314 c 256
 490 383 452 405 404 405 c 256
 351 405 292 366 272 321 c 257
 261 346 244 366 223 381 c 257
 197 396 173 404 151 404 c 256
 118 404 88 391 61 365 c 256
 34 339 20 307 20 269 c 257
 54 269 l 257
 76 311 109 332 152 332 c 256
 199 332 233 311 256 269 c 257
 292 269 l 257
 319 311 353 332 396 332 c 256
 469 332 507 289 507 201 c 256
 507 110 461 64 370 64 c 257
 352 66 339 69 332 72 c 257
 311 85 l 257
 295 97 278 117 256 142 c 258
 231 171 l 257
 196 203 l 257
 179 216 157 223 132 223 c 256
 96 223 68 210 48 184 c 256
 29 158 19 128 19 95 c 256
 19 64 28 36 46 11 c 256
 65 -14 91 -26 124 -26 c 256
 146 -26 168 -17 191 1 c 257
 210 22 224 46 233 72 c 257
 257 31 273 15 290 -4 c 257
 309 -19 332 -26 360 -26 c 256
 399 -26 434 -15 464 6 c 257
 517 57 541 128 541 197 c 256
EndSplineSet
PickledDataWithLists: "(dp1
S'com.adobe.type.autohint'
p2
(S'data'
S'<data>\\n  <hintSetList>\\n    <hintset pointTag=\"hr00\">\\n      <hstem pos=\"-26\" width=\"90\"/>\\n      <hstem pos=\"186\" width=\"37\"/>\\n      <hstem pos=\"332\" width=\"73\"/>\\n      <vstem pos=\"19\" width=\"40\"/>\\n      <vstem pos=\"507\" width=\"34\"/>\\n    </hintset>\\n  </hintSetList>\\n  </data>'
Ntp3
s."
EndChar

StartChar: uni0C12
Encoding: 133 3090 133
GlifName: uni0C12_
Width: 574
VWidth: 0
Flags: W
LayerCount: 2
Back
Fore
SplineSet
137 414 m 256
NamedP: "hr00"
 91 417 19 382 19 305 c 256
 19 290 24 277 33 267 c 257
 47 258 59 254 69 254 c 256
 88 254 98 257 101 263 c 257
 106 268 109 280 109 299 c 257
 100 312 95 326 95 340 c 257
 99 357 122 371 145 371 c 256
 194 371 219 352 219 313 c 256
 219 293 196 265 147 231 c 258
 95 195 l 257
 43 155 l 258
 27 142 19 118 19 85 c 256
 19 16 79 -26 154 -26 c 256
 185 -26 210 -18 229 -3 c 257
 257 26 l 257
 282 59 l 257
 313 2 356 -26 409 -26 c 256
 476 -26 524 22 524 82 c 257
 520 109 l 257
 514 136 l 257
 507 155 497 168 483 174 c 257
 454 174 l 257
 466 158 472 142 472 126 c 256
 472 91 437 64 401 64 c 256
 370 64 347 71 331 86 c 256
 314 101 303 119 296 142 c 257
 266 142 l 257
 266 105 230 64 165 64 c 256
 113 64 87 78 87 105 c 256
 87 123 94 138 109 151 c 258
 134 174 l 257
 170 203 l 257
 203 224 225 242 238 256 c 256
 251 270 257 289 257 313 c 256
 257 382 193 411 137 414 c 256
NamedP: "hr00"
EndSplineSet
PickledDataWithLists: "(dp1
S'com.adobe.type.autohint'
p2
(S'data'
S'<data>\\n  <hintSetList>\\n    <hintset pointTag=\"hr00\">\\n      <hstem pos=\"-26\" width=\"90\"/>\\n      <hstem pos=\"371\" width=\"43\"/>\\n      <vstem pos=\"19\" width=\"68\"/>\\n      <vstem pos=\"19\" width=\"76\"/>\\n      <vstem pos=\"219\" width=\"38\"/>\\n      <vstem pos=\"266\" width=\"30\"/>\\n      <vstem pos=\"472\" width=\"52\"/>\\n    </hintset>\\n  </hintSetList>\\n  </data>'
Ntp3
s."
EndChar

StartChar: uni0C13
Encoding: 134 3091 134
GlifName: uni0C13_
Width: 574
VWidth: 0
Flags: W
LayerCount: 2
Back
Fore
SplineSet
520 109 m 257
NamedP: "hr00"
 514 136 l 257
 507 155 497 168 483 174 c 257
 454 174 l 257
 466 158 472 142 472 126 c 256
 472 91 437 64 401 64 c 256
 370 64 347 71 331 86 c 256
 314 101 303 119 296 142 c 257
 266 142 l 257
 266 105 230 64 165 64 c 256
 113 64 87 78 87 105 c 256
 87 123 94 138 109 151 c 258
 134 174 l 257
 170 203 l 257
 203 224 225 242 238 256 c 256
 251 270 257 289 257 313 c 256
 257 381 193 412 137 412 c 257
 105 435 96 460 96 487 c 256
 96 517 118 532 161 532 c 256
 184 532 203 525 218 512 c 257
 233 495 240 477 240 459 c 257
 272 459 l 257
 272 530 253 565 225 579 c 256
 208 587 188 592 163 592 c 256
 136 592 111 583 88 566 c 256
 65 549 54 524 54 492 c 256
 54 479 57 462 63 441 c 257
 70 428 81 417 96 409 c 257
 48 386 19 357 19 305 c 256
 19 290 24 277 33 267 c 257
 47 258 59 254 69 254 c 256
 88 254 98 257 101 263 c 257
 106 268 109 280 109 299 c 257
 100 312 95 326 95 340 c 257
 99 357 122 371 145 371 c 256
 194 371 219 352 219 313 c 256
 219 293 196 265 147 231 c 258
 95 195 l 257
 43 155 l 258
 27 142 19 118 19 85 c 256
 19 16 79 -26 154 -26 c 256
 185 -26 210 -18 229 -3 c 257
 257 26 l 257
 282 59 l 257
 313 2 356 -26 409 -26 c 256
 476 -26 524 22 524 82 c 257
 520 109 l 257
NamedP: "hr00"
EndSplineSet
PickledDataWithLists: "(dp1
S'com.adobe.type.autohint'
p2
(S'data'
S'<data>\\n  <hintSetList>\\n    <hintset pointTag=\"hr00\">\\n      <hstem pos=\"-26\" width=\"90\"/>\\n      <hstem pos=\"371\" width=\"41\"/>\\n      <hstem pos=\"532\" width=\"60\"/>\\n      <vstem pos=\"19\" width=\"68\"/>\\n      <vstem pos=\"19\" width=\"76\"/>\\n      <vstem pos=\"54\" width=\"42\"/>\\n      <vstem pos=\"219\" width=\"38\"/>\\n      <vstem pos=\"240\" width=\"32\"/>\\n      <vstem pos=\"266\" width=\"30\"/>\\n      <vstem pos=\"472\" width=\"52\"/>\\n    </hintset>\\n  </hintSetList>\\n  </data>'
Ntp3
s."
EndChar

StartChar: uni0C14
Encoding: 135 3092 135
GlifName: uni0C14_
Width: 719
VWidth: 0
Flags: W
LayerCount: 2
Back
Fore
SplineSet
639 468 m 256
NamedP: "hr00"
 639 427 622 396 571 396 c 256
 547 396 528 403 514 416 c 257
 503 436 497 454 497 469 c 256
 497 512 535 551 590 536 c 256
 629 526 639 496 639 468 c 256
NamedP: "hr00"
663 456 m 256
 663 510 649 548 620 571 c 256
 591 594 557 605 517 605 c 258
 20 605 l 257
 20 537 l 257
 226 537 l 257
 259 525 271 504 271 481 c 256
 271 454 255 432 218 432 c 258
 20 432 l 257
 20 399 l 257
 84 399 l 257
 41 379 20 347 20 303 c 256
 20 286 25 273 35 263 c 257
 48 255 59 251 68 251 c 256
 100 251 115 263 115 298 c 257
 100 318 92 331 92 337 c 256
 92 357 109 367 143 367 c 256
 199 367 219 351 219 316 c 256
 219 298 212 284 198 274 c 258
 125 219 l 257
 77 178 l 257
 44 151 l 257
 28 130 20 107 20 83 c 256
 20 48 33 21 59 2 c 256
 86 -17 117 -27 152 -27 c 256
 182 -27 206 -21 223 -8 c 257
 255 23 l 258
 265 33 274 44 279 59 c 257
 312 2 355 -27 406 -27 c 256
 470 -27 519 21 519 81 c 257
 515 108 l 257
 509 136 l 257
 502 156 492 168 479 173 c 257
 450 173 l 257
 463 156 470 139 470 124 c 256
 470 91 437 64 398 64 c 256
 331 64 307 102 292 142 c 257
 266 142 l 257
 266 103 221 64 160 64 c 256
 109 64 92 78 87 83 c 256
 85 86 84 93 84 104 c 256
 84 127 99 149 128 171 c 258
 212 237 l 258
 240 259 254 285 254 310 c 256
 255 347 246 372 214 392 c 257
 225 391 242 396 265 405 c 256
 288 415 302 439 306 476 c 257
 306 499 299 519 285 537 c 257
 495 537 l 257
 455 472 460 396 500 345 c 256
 519 322 541 311 565 311 c 256
 621 311 663 365 663 456 c 256
EndSplineSet
PickledDataWithLists: "(dp1
S'com.adobe.type.autohint'
p2
(S'data'
S'<data>\\n  <hintSetList>\\n    <hintset pointTag=\"hr00\">\\n      <hstem pos=\"-27\" width=\"91\"/>\\n      <hstem pos=\"311\" width=\"85\"/>\\n      <hstem pos=\"399\" width=\"33\"/>\\n      <hstem pos=\"537\" width=\"68\"/>\\n      <vstem pos=\"20\" width=\"64\"/>\\n      <vstem pos=\"20\" width=\"72\"/>\\n      <vstem pos=\"219\" width=\"35\"/>\\n      <vstem pos=\"266\" width=\"26\"/>\\n      <vstem pos=\"271\" width=\"35\"/>\\n      <vstem pos=\"468\" width=\"29\"/>\\n      <vstem pos=\"470\" width=\"49\"/>\\n      <vstem pos=\"639\" width=\"24\"/>\\n    </hintset>\\n  </hintSetList>\\n  </data>'
Ntp3
s."
EndChar

StartChar: uni0C15
Encoding: 136 3093 136
GlifName: uni0C15_
Width: 479
VWidth: 0
Flags: W
LayerCount: 2
Back
Fore
SplineSet
246 403 m 257
NamedP: "hr00"
 259 409 270 415 279 422 c 258
 427 540 l 257
 383 579 l 257
 255 451 l 258
 239 435 227 428 218 428 c 256
 205 428 192 441 179 468 c 256
 166 495 156 513 147 522 c 256
 138 532 125 537 106 537 c 256
 63 537 41 517 41 478 c 256
 41 459 56 441 86 421 c 256
 106 408 126 398 147 395 c 257
 129 389 113 382 98 372 c 256
 64 350 47 325 47 299 c 256
 47 270 60 247 87 229 c 257
 141 205 l 257
 211 182 l 257
 290 156 l 257
 343 140 l 257
 366 125 378 109 378 92 c 257
 375 83 364 74 345 67 c 256
 328 60 315 59 305 58 c 258
 247 55 l 257
 188 60 l 257
 133 73 l 257
 81 92 l 257
 45 113 l 257
 19 64 l 257
 33 43 61 24 101 3 c 256
 150 -23 180 -28 224 -26 c 258
 288 -23 l 257
 342 -12 l 257
 397 8 423 38 423 90 c 256
 423 119 409 141 382 156 c 257
 374 163 363 168 350 171 c 257
 323 181 l 257
 241 205 l 258
 181 223 141 237 122 247 c 256
 97 260 84 277 84 296 c 256
 84 331 109 349 159 349 c 256
 176 349 193 346 210 341 c 258
 242 331 l 257
 270 317 l 257
 310 290 l 258
 333 274 353 267 368 267 c 257
 399 272 407 281 407 304 c 256
 407 322 397 339 377 355 c 256
 358 371 336 383 313 390 c 256
 286 399 270 403 263 403 c 258
 246 403 l 257
NamedP: "hr00"
EndSplineSet
PickledDataWithLists: "(dp1
S'com.adobe.type.autohint'
p2
(S'data'
S'<data>\\n  <hintSetList>\\n    <hintset pointTag=\"hr00\">\\n      <hstem pos=\"-26\" width=\"83\"/>\\n      <hstem pos=\"349\" width=\"54\"/>\\n      <vstem pos=\"47\" width=\"37\"/>\\n      <vstem pos=\"378\" width=\"45\"/>\\n    </hintset>\\n  </hintSetList>\\n  </data>'
Ntp3
s."
EndChar

StartChar: uni0C16
Encoding: 137 3094 137
GlifName: uni0C16_
Width: 546
VWidth: 0
Flags: W
LayerCount: 2
Back
Fore
SplineSet
205 86 m 257
NamedP: "hr00"
 180 64 148 53 107 53 c 256
 79 53 65 67 65 96 c 257
 67 113 70 124 75 131 c 257
 86 140 97 144 107 144 c 256
 138 144 171 125 205 86 c 257
NamedP: "hr00"
168 303 m 256
 168 260 149 238 110 238 c 256
 91 238 77 244 69 256 c 257
 60 273 55 288 55 303 c 256
 55 320 60 334 72 347 c 256
 84 361 97 367 110 367 c 256
 149 367 168 346 168 303 c 256
496 195 m 256
 496 238 479 284 446 332 c 256
 413 380 380 404 345 404 c 256
 314 404 298 388 298 356 c 256
 298 345 303 335 313 324 c 257
 327 315 340 310 352 310 c 256
 419 310 468 255 468 174 c 256
 468 93 431 53 356 53 c 256
 323 53 294 64 268 86 c 257
 280 116 286 148 286 183 c 256
 286 230 274 279 245 327 c 256
 214 379 172 404 125 404 c 256
 98 404 73 394 51 373 c 256
 30 352 19 329 19 303 c 256
 19 280 28 257 45 236 c 256
 63 215 83 204 105 204 c 256
 162 204 204 244 201 301 c 258
 200 323 l 257
 232 283 248 239 248 192 c 256
 248 163 241 139 228 118 c 257
 207 143 190 158 177 163 c 257
 159 175 140 181 120 181 c 256
 59 181 19 145 19 82 c 256
 19 51 28 25 46 3 c 257
 67 -16 92 -26 120 -26 c 256
 157 -26 196 -6 237 33 c 257
 219 -27 l 258
 208 -64 202 -85 202 -92 c 256
 202 -125 218 -136 243 -136 c 256
 270 -136 283 -122 283 -94 c 257
 261 -24 l 257
 254 4 l 257
 248 38 l 257
 287 -5 326 -26 365 -26 c 256
 408 -26 443 -9 464 29 c 256
 487 69 496 126 496 195 c 256
EndSplineSet
PickledDataWithLists: "(dp1
S'com.adobe.type.autohint'
p2
(S'data'
S'<data>\\n  <hintSetList>\\n    <hintset pointTag=\"hr00\">\\n      <hstem pos=\"-26\" width=\"79\"/>\\n      <hstem pos=\"144\" width=\"37\"/>\\n      <hstem pos=\"204\" width=\"34\"/>\\n      <hstem pos=\"310\" width=\"94\"/>\\n      <hstem pos=\"367\" width=\"37\"/>\\n      <vstem pos=\"19\" width=\"46\"/>\\n      <vstem pos=\"19\" width=\"36\"/>\\n      <vstem pos=\"168\" width=\"33\"/>\\n      <vstem pos=\"202\" width=\"81\"/>\\n      <vstem pos=\"237\" width=\"14\"/>\\n      <vstem pos=\"248\" width=\"38\"/>\\n      <vstem pos=\"468\" width=\"28\"/>\\n    </hintset>\\n  </hintSetList>\\n  </data>'
Ntp3
s."
EndChar

StartChar: uni0C17
Encoding: 138 3095 138
GlifName: uni0C17_
Width: 487
VWidth: 0
Flags: W
LayerCount: 2
Back
Fore
SplineSet
260 408 m 257
NamedP: "hr00"
 269 409 279 413 290 422 c 258
 437 540 l 257
 391 579 l 257
 264 451 l 258
 249 436 236 428 227 428 c 256
 213 428 200 441 187 468 c 256
 175 495 165 513 156 522 c 256
 147 532 135 537 118 537 c 256
 73 537 50 517 50 478 c 256
 50 459 65 440 95 421 c 256
 120 406 143 398 166 395 c 257
 137 372 109 331 81 273 c 256
 40 188 19 105 19 24 c 257
 24 -12 41 -26 68 -26 c 256
 102 -26 119 -9 119 24 c 257
 110 90 l 257
 109 121 l 258
 107 173 121 237 143 294 c 256
 166 353 194 382 224 382 c 256
 257 382 285 350 307 286 c 256
 324 238 333 183 333 122 c 258
 333 105 l 257
 328 81 l 257
 324 50 l 257
 323 24 l 258
 322 -9 340 -26 374 -26 c 256
 407 -26 424 -9 424 24 c 256
 424 105 403 188 361 274 c 256
 327 345 293 390 260 408 c 257
NamedP: "hr00"
EndSplineSet
PickledDataWithLists: "(dp1
S'com.adobe.type.autohint'
p2
(S'data'
S'<data>\\n  <hintSetList>\\n    <hintset pointTag=\"hr00\">\\n      <hstem pos=\"382\" width=\"46\"/>\\n      <vstem pos=\"19\" width=\"100\"/>\\n      <vstem pos=\"323\" width=\"101\"/>\\n    </hintset>\\n  </hintSetList>\\n  </data>'
Ntp3
s."
EndChar

StartChar: uni0C18
Encoding: 139 3096 139
GlifName: uni0C18_
Width: 879
VWidth: 0
Flags: W
LayerCount: 2
Back
Fore
SplineSet
334 595 m 257
NamedP: "hr00"
 232 463 l 257
 207 438 l 257
 195 431 l 257
 187 429 l 257
 182 429 173 435 161 446 c 257
 141 486 l 258
 123 521 101 537 82 537 c 256
 65 537 50 532 36 523 c 257
 25 510 19 495 19 478 c 256
 19 449 32 425 58 404 c 256
 85 383 115 373 150 373 c 257
 198 385 l 257
 209 392 229 405 254 428 c 258
 379 547 l 257
 334 595 l 257
NamedP: "hr00"
295 -91 m 257
 282 -46 l 257
 257 23 l 257
 232 -46 l 257
 216 -95 l 257
 211 -129 l 257
 211 -158 226 -172 257 -172 c 256
 281 -172 302 -152 302 -129 c 257
 295 -91 l 257
514 183 m 258
 518 234 494 283 457 331 c 256
 419 380 383 404 348 404 c 256
 313 404 298 386 298 355 c 256
 298 340 303 329 313 321 c 256
 327 310 339 305 348 305 c 256
 383 305 413 293 437 267 c 256
 462 241 473 212 473 183 c 256
 473 114 437 67 388 67 c 256
 345 67 306 93 270 146 c 256
 233 199 199 226 150 226 c 256
 83 226 50 184 50 100 c 256
 50 58 59 27 78 6 c 256
 97 -15 120 -26 145 -26 c 256
 167 -26 190 -18 211 0 c 256
 235 20 250 45 259 72 c 257
 272 43 288 18 311 0 c 256
 333 -18 359 -26 386 -26 c 256
 424 -26 454 -8 477 27 c 256
 488 45 497 63 504 81 c 257
 507 72 l 257
 528 42 546 21 563 10 c 256
 602 -15 640 -28 675 -28 c 256
 763 -28 831 44 831 181 c 256
 831 212 821 247 801 288 c 257
 769 338 l 258
 762 349 750 363 733 376 c 256
 706 398 680 408 657 408 c 256
 637 408 622 403 613 394 c 257
 602 386 596 375 596 360 c 257
 601 327 620 305 657 305 c 256
 746 305 790 265 790 186 c 256
 790 113 749 67 661 67 c 257
 613 72 l 257
 565 87 l 257
 518 112 l 257
 509 118 l 257
 514 183 l 258
228 131 m 256
 228 95 202 71 161 71 c 256
 113 71 91 101 91 129 c 256
 91 146 97 160 109 173 c 257
 124 185 142 191 161 191 c 256
 202 191 228 162 228 131 c 256
EndSplineSet
PickledDataWithLists: "(dp1
S'com.adobe.type.autohint'
p2
(S'data'
S'<data>\\n  <hintSetList>\\n    <hintset pointTag=\"hr00\">\\n      <hstem pos=\"-28\" width=\"95\"/>\\n      <hstem pos=\"-26\" width=\"97\"/>\\n      <hstem pos=\"191\" width=\"35\"/>\\n      <hstem pos=\"305\" width=\"103\"/>\\n      <hstem pos=\"305\" width=\"99\"/>\\n      <vstem pos=\"50\" width=\"41\"/>\\n      <vstem pos=\"211\" width=\"91\"/>\\n      <vstem pos=\"473\" width=\"41\"/>\\n      <vstem pos=\"790\" width=\"41\"/>\\n    </hintset>\\n  </hintSetList>\\n  </data>'
Ntp3
s."
EndChar

StartChar: uni0C19
Encoding: 140 3097 140
GlifName: uni0C19_
Width: 575
VWidth: 0
Flags: W
LayerCount: 2
Back
Fore
SplineSet
527 90 m 256
NamedP: "hr00"
 527 112 520 138 507 168 c 257
 479 168 l 257
 479 96 444 64 401 64 c 256
 368 64 343 72 328 88 c 256
 313 105 303 123 296 142 c 257
 266 142 l 257
 266 105 230 64 165 64 c 256
 113 64 87 78 87 105 c 256
 87 118 101 137 128 162 c 258
 246 269 l 257
 522 269 l 257
 522 303 l 257
 397 303 l 257
 397 421 l 257
 364 421 l 257
 364 303 l 257
 257 303 l 257
 257 318 256 330 254 337 c 257
 242 363 l 257
 218 396 183 412 136 412 c 256
 69 412 19 370 19 305 c 256
 19 271 34 254 65 254 c 257
 96 259 109 271 109 299 c 257
 100 312 95 326 95 340 c 256
 95 365 112 377 145 377 c 256
 188 377 219 350 219 318 c 256
 219 295 186 259 119 210 c 256
 52 162 19 120 19 85 c 256
 19 52 31 25 56 3 c 257
 83 -16 115 -26 154 -26 c 256
 213 -26 249 3 282 58 c 257
 294 37 308 18 324 5 c 256
 351 -17 380 -26 409 -26 c 256
 478 -26 527 19 527 90 c 256
NamedP: "hr00"
EndSplineSet
PickledDataWithLists: "(dp1
S'com.adobe.type.autohint'
p2
(S'data'
S'<data>\\n  <hintSetList>\\n    <hintset pointTag=\"hr00\">\\n      <hstem pos=\"-26\" width=\"90\"/>\\n      <hstem pos=\"269\" width=\"34\"/>\\n      <hstem pos=\"377\" width=\"35\"/>\\n      <vstem pos=\"19\" width=\"68\"/>\\n      <vstem pos=\"19\" width=\"76\"/>\\n      <vstem pos=\"219\" width=\"38\"/>\\n      <vstem pos=\"266\" width=\"30\"/>\\n      <vstem pos=\"364\" width=\"33\"/>\\n      <vstem pos=\"479\" width=\"48\"/>\\n    </hintset>\\n  </hintSetList>\\n  </data>'
Ntp3
s."
EndChar

StartChar: uni0C1A
Encoding: 141 3098 141
GlifName: uni0C1A_
Width: 638
VWidth: 0
Flags: W
LayerCount: 2
Back
Fore
SplineSet
587 586 m 257
NamedP: "hr00"
 551 633 l 257
 384 454 l 257
 372 446 l 257
 360 444 l 257
 352 446 342 452 331 462 c 257
 287 514 l 257
 260 538 236 550 215 550 c 256
 178 550 160 530 160 490 c 256
 160 465 184 442 231 421 c 256
 268 404 306 397 337 397 c 257
 394 387 442 362 482 322 c 256
 522 282 542 233 542 174 c 256
 542 103 504 62 448 62 c 256
 425 62 405 68 386 81 c 256
 369 93 355 112 346 137 c 257
 323 137 l 257
 308 106 295 86 284 76 c 256
 273 67 256 62 232 62 c 256
 185 62 161 82 161 123 c 256
 161 148 171 179 190 217 c 257
 19 217 l 257
 19 183 l 257
 145 183 l 257
 122 148 110 113 110 78 c 256
 110 47 119 21 140 1 c 256
 159 -18 187 -26 220 -26 c 256
 250 -26 272 -21 286 -10 c 257
 302 0 319 19 336 46 c 257
 365 -2 404 -26 455 -26 c 256
 542 -26 581 29 581 174 c 256
 581 246 555 311 500 358 c 256
 473 382 445 400 416 412 c 258
 392 422 l 257
 587 586 l 257
NamedP: "hr00"
EndSplineSet
PickledDataWithLists: "(dp1
S'com.adobe.type.autohint'
p2
(S'data'
S'<data>\\n  <hintSetList>\\n    <hintset pointTag=\"hr00\">\\n      <hstem pos=\"-26\" width=\"88\"/>\\n      <hstem pos=\"183\" width=\"34\"/>\\n      <hstem pos=\"397\" width=\"48\"/>\\n      <vstem pos=\"110\" width=\"51\"/>\\n      <vstem pos=\"542\" width=\"39\"/>\\n    </hintset>\\n  </hintSetList>\\n  </data>'
Ntp3
s."
EndChar

StartChar: uni0C1B
Encoding: 142 3099 142
GlifName: uni0C1B_
Width: 638
VWidth: 0
Flags: W
LayerCount: 2
Back
Fore
SplineSet
382 -128 m 256
NamedP: "hr00"
 382 -117 380 -103 373 -86 c 258
 360 -53 l 257
 336 23 l 257
 311 -46 l 257
 295 -95 l 257
 291 -129 l 257
 294 -156 319 -172 336 -172 c 257
 350 -169 361 -165 368 -160 c 257
 377 -149 382 -139 382 -128 c 256
NamedP: "hr00"
587 586 m 257
 551 633 l 257
 384 454 l 257
 372 446 l 257
 360 444 l 257
 352 446 342 452 331 462 c 257
 287 514 l 257
 260 538 236 550 215 550 c 256
 178 550 160 530 160 490 c 256
 160 465 184 442 231 421 c 256
 268 404 306 397 337 397 c 257
 394 387 442 362 482 322 c 256
 522 282 542 233 542 174 c 256
 542 103 504 62 448 62 c 256
 425 62 405 68 386 81 c 256
 369 93 355 112 346 137 c 257
 323 137 l 257
 308 106 295 86 284 76 c 256
 273 67 256 62 232 62 c 256
 185 62 161 82 161 123 c 256
 161 148 171 179 190 217 c 257
 19 217 l 257
 19 183 l 257
 145 183 l 257
 122 148 110 113 110 78 c 256
 110 47 119 21 140 1 c 256
 159 -18 187 -26 220 -26 c 256
 250 -26 272 -21 286 -10 c 257
 302 0 319 19 336 46 c 257
 365 -2 404 -26 455 -26 c 256
 542 -26 581 29 581 174 c 256
 581 246 555 311 500 358 c 256
 473 382 445 400 416 412 c 258
 392 422 l 257
 587 586 l 257
EndSplineSet
PickledDataWithLists: "(dp1
S'com.adobe.type.autohint'
p2
(S'data'
S'<data>\\n  <hintSetList>\\n    <hintset pointTag=\"hr00\">\\n      <hstem pos=\"-26\" width=\"88\"/>\\n      <hstem pos=\"183\" width=\"34\"/>\\n      <hstem pos=\"397\" width=\"48\"/>\\n      <vstem pos=\"110\" width=\"51\"/>\\n      <vstem pos=\"293\" width=\"89\"/>\\n      <vstem pos=\"542\" width=\"39\"/>\\n    </hintset>\\n  </hintSetList>\\n  </data>'
Ntp3
s."
EndChar

StartChar: uni0C1C
Encoding: 143 3100 143
GlifName: uni0C1C_
Width: 574
VWidth: 0
Flags: W
LayerCount: 2
Back
Fore
SplineSet
518 127 m 257
NamedP: "hr00"
 507 168 l 257
 479 168 l 257
 479 96 444 64 401 64 c 256
 370 64 347 71 331 86 c 256
 314 101 303 119 296 142 c 257
 266 142 l 257
 266 105 230 64 165 64 c 256
 113 64 87 78 87 105 c 256
 87 117 94 132 109 149 c 257
 200 223 l 257
 238 262 258 289 257 305 c 258
 255 331 l 257
 314 250 371 210 427 210 c 256
 479 210 524 253 524 314 c 256
 524 345 509 371 480 393 c 256
 451 415 414 426 368 426 c 257
 368 397 l 257
 399 397 425 389 446 373 c 256
 468 357 479 341 479 324 c 256
 479 296 456 282 411 282 c 256
 355 282 308 303 269 345 c 257
 252 369 240 378 228 386 c 256
 203 402 172 412 136 412 c 256
 103 412 76 402 54 383 c 256
 31 364 19 338 19 305 c 256
 19 271 34 254 65 254 c 257
 96 259 109 271 109 299 c 257
 100 312 95 326 95 340 c 256
 95 365 112 377 145 377 c 256
 188 377 219 350 219 318 c 256
 219 290 188 254 125 209 c 256
 82 179 56 159 45 150 c 257
 28 127 19 105 19 85 c 256
 19 16 79 -32 154 -26 c 258
 200 -22 l 257
 225 -9 l 257
 248 9 267 31 282 58 c 257
 313 2 356 -26 409 -26 c 256
 476 -26 524 19 524 90 c 257
 518 127 l 257
NamedP: "hr00"
EndSplineSet
PickledDataWithLists: "(dp1
S'com.adobe.type.autohint'
p2
(S'data'
S'<data>\\n  <hintSetList>\\n    <hintset pointTag=\"hr00\">\\n      <hstem pos=\"-26\" width=\"90\"/>\\n      <hstem pos=\"210\" width=\"72\"/>\\n      <hstem pos=\"377\" width=\"35\"/>\\n      <hstem pos=\"397\" width=\"29\"/>\\n      <vstem pos=\"19\" width=\"68\"/>\\n      <vstem pos=\"19\" width=\"76\"/>\\n      <vstem pos=\"219\" width=\"38\"/>\\n      <vstem pos=\"266\" width=\"30\"/>\\n      <vstem pos=\"479\" width=\"45\"/>\\n    </hintset>\\n  </hintSetList>\\n  </data>'
Ntp3
s."
EndChar

StartChar: uni0C1D
Encoding: 144 3101 144
GlifName: uni0C1D_
Width: 1115
VWidth: 0
Flags: W
LayerCount: 2
Back
Fore
SplineSet
157 396 m 257
NamedP: "hr00"
 132 386 107 371 83 351 c 256
 40 314 19 263 19 196 c 256
 18 57 124 -28 240 -26 c 256
 317 -24 392 14 425 73 c 257
 443 46 464 26 486 10 c 256
 521 -14 557 -28 598 -28 c 256
 657 -28 699 -4 722 45 c 257
 722 22 727 -3 734 -27 c 256
 742 -54 749 -75 756 -90 c 256
 774 -125 800 -142 834 -142 c 256
 869 -142 892 -127 892 -104 c 256
 892 -81 873 -64 846 -64 c 256
 806 -64 775 -24 754 55 c 257
 768 36 783 20 798 10 c 256
 836 -16 873 -28 909 -28 c 256
 1000 -28 1065 44 1065 181 c 256
 1065 212 1057 248 1034 288 c 258
 1005 338 l 257
 997 349 985 362 968 376 c 256
 941 397 916 408 893 408 c 256
 873 408 858 403 847 394 c 256
 836 386 831 375 831 360 c 257
 835 327 856 305 893 305 c 256
 981 305 1025 265 1025 186 c 256
 1025 113 983 67 895 67 c 257
 847 72 l 257
 800 87 l 257
 754 112 l 257
 747 115 l 257
 752 141 l 257
 754 181 l 258
 756 212 744 247 724 288 c 256
 709 321 687 350 657 376 c 257
 628 397 604 408 583 408 c 256
 562 408 545 403 534 394 c 256
 524 386 519 375 519 360 c 257
 527 323 551 305 583 305 c 256
 608 305 635 296 665 279 c 257
 692 256 706 225 706 186 c 256
 706 110 661 67 586 67 c 256
 553 67 521 71 493 85 c 258
 443 109 l 257
 451 132 l 257
 456 154 l 257
 456 196 l 258
 456 285 412 354 345 385 c 256
 312 400 282 408 255 408 c 257
 277 422 l 257
 423 540 l 257
 379 579 l 257
 252 451 l 258
 236 435 223 428 215 428 c 256
 200 428 187 441 175 468 c 256
 163 495 153 513 145 522 c 256
 137 532 124 537 105 537 c 256
 60 537 37 517 37 478 c 256
 37 459 52 440 83 419 c 257
 109 406 134 398 157 396 c 257
NamedP: "hr00"
411 213 m 256
 411 137 344 76 240 76 c 256
 127 76 66 136 66 213 c 256
 66 297 133 359 242 359 c 256
 351 359 411 297 411 213 c 256
EndSplineSet
PickledDataWithLists: "(dp1
S'com.adobe.type.autohint'
p2
(S'data'
S'<data>\\n  <hintSetList>\\n    <hintset pointTag=\"hr00\">\\n      <hstem pos=\"-142\" width=\"78\"/>\\n      <hstem pos=\"-28\" width=\"95\"/>\\n      <hstem pos=\"-26\" width=\"102\"/>\\n      <hstem pos=\"305\" width=\"103\"/>\\n      <hstem pos=\"359\" width=\"49\"/>\\n      <vstem pos=\"19\" width=\"47\"/>\\n      <vstem pos=\"411\" width=\"45\"/>\\n      <vstem pos=\"706\" width=\"48\"/>\\n      <vstem pos=\"1025\" width=\"40\"/>\\n    </hintset>\\n  </hintSetList>\\n  </data>'
Ntp3
s."
EndChar

StartChar: uni0C1E
Encoding: 145 3102 145
GlifName: uni0C1E_
Width: 810
VWidth: 0
Flags: W
LayerCount: 2
Back
Fore
SplineSet
348 81 m 257
NamedP: "hr00"
 314 62 276 53 234 53 c 256
 157 53 118 70 119 104 c 256
 119 120 127 133 141 142 c 257
 160 151 180 155 201 155 c 257
 240 150 l 257
 274 140 l 257
 301 128 320 113 334 97 c 258
 348 81 l 257
NamedP: "hr00"
760 238 m 257
 632 238 l 257
 632 414 l 257
 596 414 l 257
 596 238 l 257
 466 238 l 257
 463 291 l 257
 451 335 l 257
 440 364 425 383 406 394 c 257
 387 408 367 415 345 415 c 256
 304 415 269 395 240 356 c 257
 213 392 183 414 140 414 c 256
 75 414 19 351 19 254 c 257
 47 254 l 257
 47 297 89 328 133 328 c 256
 149 328 164 325 179 319 c 257
 200 308 l 257
 217 293 225 273 225 247 c 257
 255 247 l 257
 255 299 293 328 338 328 c 256
 398 328 429 301 429 212 c 256
 429 167 412 130 378 101 c 257
 359 124 l 258
 323 168 274 182 213 182 c 256
 166 182 127 173 97 154 c 257
 72 133 60 108 60 79 c 256
 60 50 72 26 97 5 c 257
 130 -16 167 -26 210 -26 c 256
 280 -26 336 -11 377 18 c 257
 381 -15 l 257
 377 -53 l 257
 365 -97 l 258
 354 -139 348 -147 348 -158 c 256
 348 -171 354 -181 365 -187 c 257
 374 -195 386 -199 402 -199 c 256
 438 -199 453 -179 452 -154 c 258
 448 -79 l 257
 433 -8 l 257
 423 19 l 257
 411 51 l 257
 448 100 466 152 466 209 c 257
 760 209 l 257
 760 238 l 257
EndSplineSet
PickledDataWithLists: "(dp1
S'com.adobe.type.autohint'
p2
(S'data'
S'<data>\\n  <hintSetList>\\n    <hintset pointTag=\"hr00\">\\n      <hstem pos=\"-26\" width=\"79\"/>\\n      <hstem pos=\"155\" width=\"27\"/>\\n      <hstem pos=\"209\" width=\"29\"/>\\n      <hstem pos=\"328\" width=\"86\"/>\\n      <vstem pos=\"19\" width=\"28\"/>\\n      <vstem pos=\"60\" width=\"59\"/>\\n      <vstem pos=\"225\" width=\"30\"/>\\n      <vstem pos=\"348\" width=\"104\"/>\\n      <vstem pos=\"429\" width=\"35\"/>\\n      <vstem pos=\"596\" width=\"36\"/>\\n    </hintset>\\n  </hintSetList>\\n  </data>'
Ntp3
s."
EndChar

StartChar: uni0C1F
Encoding: 146 3103 146
GlifName: uni0C1F_
Width: 693
VWidth: 0
Flags: W
LayerCount: 2
Back
Fore
SplineSet
227 304 m 256
NamedP: "hr00"
 227 268 201 240 168 240 c 256
 137 240 113 268 113 304 c 257
 116 322 122 336 131 347 c 256
 141 360 153 367 168 367 c 256
 188 367 202 361 211 349 c 257
 222 338 227 323 227 304 c 256
NamedP: "hr00"
645 195 m 256
 645 249 631 297 602 340 c 256
 574 383 545 404 514 404 c 256
 473 404 452 390 452 362 c 257
 456 338 474 320 522 309 c 256
 547 304 566 290 581 269 c 256
 597 248 605 222 605 192 c 256
 605 113 558 64 490 64 c 256
 413 64 374 98 350 165 c 257
 316 165 l 257
 303 126 287 99 270 85 c 256
 253 71 227 64 190 64 c 256
 151 64 118 77 93 104 c 256
 68 131 55 164 55 203 c 256
 55 229 57 249 60 264 c 257
 77 301 l 257
 77 246 119 205 172 205 c 256
 227 205 265 250 265 303 c 256
 265 358 226 400 183 405 c 257
 211 503 l 257
 204 538 191 549 170 549 c 257
 141 544 128 531 128 503 c 257
 157 405 l 257
 107 405 70 376 42 318 c 256
 28 289 19 254 19 215 c 256
 19 141 36 82 69 39 c 256
 102 -4 142 -26 188 -26 c 256
 215 -26 243 -17 272 2 c 256
 301 21 321 47 332 79 c 257
 369 10 429 -26 484 -26 c 256
 581 -26 645 60 645 195 c 256
EndSplineSet
PickledDataWithLists: "(dp1
S'com.adobe.type.autohint'
p2
(S'data'
S'<data>\\n  <hintSetList>\\n    <hintset pointTag=\"hr00\">\\n      <hstem pos=\"-26\" width=\"90\"/>\\n      <hstem pos=\"205\" width=\"35\"/>\\n      <hstem pos=\"367\" width=\"38\"/>\\n      <vstem pos=\"19\" width=\"36\"/>\\n      <vstem pos=\"77\" width=\"36\"/>\\n      <vstem pos=\"128\" width=\"83\"/>\\n      <vstem pos=\"227\" width=\"38\"/>\\n      <vstem pos=\"605\" width=\"40\"/>\\n    </hintset>\\n  </hintSetList>\\n  </data>'
Ntp3
s."
EndChar

StartChar: uni0C20
Encoding: 147 3104 147
GlifName: uni0C20_
Width: 508
VWidth: 0
Flags: W
LayerCount: 2
Back
Fore
SplineSet
259 408 m 257
NamedP: "hr00"
 272 411 281 414 286 417 c 257
 436 537 l 257
 390 577 l 257
 261 449 l 257
 247 432 235 424 225 424 c 256
 212 424 199 437 186 464 c 256
 174 491 163 509 154 519 c 256
 145 530 132 535 115 535 c 256
 70 535 48 515 48 476 c 256
 48 457 63 436 93 415 c 257
 110 407 126 401 142 396 c 257
 163 393 164 391 145 391 c 257
 127 383 106 371 84 353 c 256
 40 316 19 263 19 196 c 256
 18 57 124 -25 240 -26 c 256
 354 -27 462 71 456 196 c 256
 452 285 412 355 345 386 c 256
 320 398 291 405 259 408 c 257
NamedP: "hr00"
411 213 m 256
 411 137 344 76 240 76 c 256
 127 76 66 136 66 213 c 256
 66 297 133 359 242 359 c 256
 351 359 411 297 411 213 c 256
286 228 m 256
 286 258 271 273 240 273 c 257
 224 270 211 266 202 260 c 257
 195 251 191 240 191 228 c 256
 191 216 195 206 204 197 c 257
 215 189 227 185 240 185 c 256
 271 185 286 199 286 228 c 256
EndSplineSet
PickledDataWithLists: "(dp1
S'com.adobe.type.autohint'
p2
(S'data'
S'<data>\\n  <hintSetList>\\n    <hintset pointTag=\"hr00\">\\n      <hstem pos=\"-26\" width=\"102\"/>\\n      <hstem pos=\"185\" width=\"88\"/>\\n      <hstem pos=\"359\" width=\"49\"/>\\n      <hstem pos=\"408\" width=\"16\"/>\\n      <vstem pos=\"19\" width=\"47\"/>\\n      <vstem pos=\"191\" width=\"95\"/>\\n      <vstem pos=\"411\" width=\"45\"/>\\n    </hintset>\\n  </hintSetList>\\n  </data>'
Ntp3
s."
EndChar

StartChar: uni0C21
Encoding: 148 3105 148
GlifName: uni0C21_
Width: 615
VWidth: 0
Flags: W
LayerCount: 2
Back
Fore
SplineSet
529 113 m 257
NamedP: "hr00"
 522 85 503 67 472 67 c 256
 440 67 414 89 414 113 c 257
 417 129 423 140 432 146 c 257
 441 154 455 158 472 158 c 256
 510 158 529 143 529 113 c 257
NamedP: "hr00"
565 105 m 256
 565 164 518 194 469 194 c 256
 447 194 425 188 402 172 c 256
 386 161 378 143 378 122 c 258
 378 96 l 257
 387 71 l 257
 342 71 312 92 296 133 c 257
 259 133 l 257
 238 92 206 71 165 71 c 256
 104 71 73 117 73 174 c 256
 73 228 94 274 137 313 c 256
 180 352 234 372 300 372 c 256
 349 372 390 366 419 350 c 258
 492 309 l 257
 522 345 l 257
 487 370 455 386 427 392 c 257
 402 400 361 404 302 404 c 257
 541 553 l 257
 478 597 l 257
 323 456 l 257
 297 435 l 257
 296 433 291 432 284 432 c 256
 271 432 258 446 246 473 c 256
 233 501 222 520 210 529 c 256
 198 539 185 544 170 544 c 256
 129 544 109 525 109 486 c 256
 109 477 112 468 119 460 c 257
 150 431 l 257
 177 415 l 257
 195 409 l 257
 227 397 l 257
 84 366 19 272 19 136 c 256
 19 72 32 26 61 1 c 256
 83 -18 115 -26 154 -26 c 256
 187 -26 219 -15 242 13 c 258
 263 38 l 257
 277 56 l 257
 320 1 370 -26 427 -26 c 256
 511 -26 565 18 565 105 c 256
EndSplineSet
PickledDataWithLists: "(dp1
S'com.adobe.type.autohint'
p2
(S'data'
S'<data>\\n  <hintSetList>\\n    <hintset pointTag=\"hr00\">\\n      <hstem pos=\"-26\" width=\"97\"/>\\n      <hstem pos=\"158\" width=\"36\"/>\\n      <hstem pos=\"372\" width=\"32\"/>\\n      <vstem pos=\"19\" width=\"54\"/>\\n      <vstem pos=\"378\" width=\"36\"/>\\n      <vstem pos=\"529\" width=\"36\"/>\\n    </hintset>\\n  </hintSetList>\\n  </data>'
Ntp3
s."
EndChar

StartChar: uni0C22
Encoding: 149 3106 149
GlifName: uni0C22_
Width: 615
VWidth: 0
Flags: W
LayerCount: 2
Back
Fore
SplineSet
320 -118 m 257
NamedP: "hr00"
 317 -100 309 -74 298 -41 c 258
 274 35 l 257
 255 -28 l 257
 237 -78 l 258
 233 -89 231 -103 231 -118 c 257
 235 -149 250 -160 277 -160 c 256
 290 -160 300 -156 307 -147 c 257
 316 -140 320 -130 320 -118 c 257
NamedP: "hr00"
529 113 m 257
 522 85 503 67 472 67 c 256
 440 67 414 89 414 113 c 257
 417 129 423 140 432 146 c 257
 441 154 455 158 472 158 c 256
 510 158 529 143 529 113 c 257
565 105 m 256
 565 164 518 194 469 194 c 256
 447 194 425 188 402 172 c 256
 381 158 374 132 378 97 c 257
 387 71 l 257
 342 71 312 92 296 133 c 257
 259 133 l 257
 238 92 206 71 165 71 c 256
 104 71 73 117 73 174 c 256
 73 228 94 274 137 313 c 256
 180 352 234 372 300 372 c 256
 349 372 390 366 419 350 c 258
 492 309 l 257
 522 345 l 257
 487 370 455 386 427 392 c 257
 402 400 361 404 302 404 c 257
 541 553 l 257
 478 597 l 257
 323 456 l 257
 297 435 l 257
 296 433 291 432 284 432 c 256
 271 432 258 446 246 473 c 256
 233 501 222 520 210 529 c 256
 198 539 185 544 170 544 c 256
 129 544 109 525 109 486 c 256
 109 477 112 468 119 460 c 257
 150 431 l 257
 177 415 l 257
 195 409 l 257
 227 397 l 257
 84 366 19 272 19 136 c 256
 19 72 32 26 61 1 c 256
 83 -18 115 -26 154 -26 c 256
 187 -26 217 -13 242 13 c 257
 253 21 268 47 277 56 c 257
 320 1 370 -26 427 -26 c 256
 511 -26 565 18 565 105 c 256
EndSplineSet
PickledDataWithLists: "(dp1
S'com.adobe.type.autohint'
p2
(S'data'
S'<data>\\n  <hintSetList>\\n    <hintset pointTag=\"hr00\">\\n      <hstem pos=\"-26\" width=\"97\"/>\\n      <hstem pos=\"158\" width=\"36\"/>\\n      <hstem pos=\"372\" width=\"32\"/>\\n      <vstem pos=\"19\" width=\"54\"/>\\n      <vstem pos=\"231\" width=\"89\"/>\\n      <vstem pos=\"378\" width=\"36\"/>\\n      <vstem pos=\"529\" width=\"36\"/>\\n    </hintset>\\n  </hintSetList>\\n  </data>'
Ntp3
s."
EndChar

StartChar: uni0C23
Encoding: 150 3107 150
GlifName: uni0C23_
Width: 701
VWidth: 0
Flags: W
LayerCount: 2
Back
Fore
SplineSet
577 53 m 256
NamedP: "hr00"
 577 29 551 0 514 0 c 257
 471 13 454 30 455 55 c 256
 455 70 460 82 469 91 c 257
 482 100 497 105 514 105 c 256
 546 105 577 85 577 53 c 256
NamedP: "hr00"
651 174 m 256
 651 314 591 404 470 404 c 256
 408 404 357 371 318 305 c 257
 278 369 228 404 168 404 c 256
 123 404 87 392 60 368 c 256
 33 345 19 321 19 296 c 256
 19 260 43 223 92 185 c 257
 43 160 19 130 19 96 c 256
 19 16 82 -26 163 -26 c 256
 219 -26 269 -11 313 18 c 257
 293 38 l 257
 249 19 212 10 181 10 c 256
 118 10 87 39 87 96 c 257
 94 131 113 155 136 160 c 257
 165 171 l 257
 192 174 l 257
 192 197 l 257
 123 209 81 238 81 273 c 257
 85 301 112 317 125 318 c 256
 132 319 144 319 160 319 c 256
 233 319 279 287 300 224 c 257
 337 224 l 257
 368 288 401 314 472 314 c 256
 571 314 623 249 615 150 c 258
 610 90 l 257
 593 133 563 158 516 158 c 256
 452 158 411 113 411 65 c 256
 411 40 421 19 440 0 c 257
 463 -17 491 -26 524 -26 c 256
 572 -26 607 -10 625 26 c 256
 643 63 651 113 651 174 c 256
EndSplineSet
PickledDataWithLists: "(dp1
S'com.adobe.type.autohint'
p2
(S'data'
S'<data>\\n  <hintSetList>\\n    <hintset pointTag=\"hr00\">\\n      <hstem pos=\"-26\" width=\"36\"/>\\n      <hstem pos=\"-26\" width=\"26\"/>\\n      <hstem pos=\"105\" width=\"53\"/>\\n      <hstem pos=\"314\" width=\"90\"/>\\n      <hstem pos=\"319\" width=\"85\"/>\\n      <vstem pos=\"19\" width=\"68\"/>\\n      <vstem pos=\"19\" width=\"62\"/>\\n      <vstem pos=\"411\" width=\"44\"/>\\n      <vstem pos=\"615\" width=\"36\"/>\\n    </hintset>\\n  </hintSetList>\\n  </data>'
Ntp3
s."
EndChar

StartChar: uni0C24
Encoding: 151 3108 151
GlifName: uni0C24_
Width: 617
VWidth: 0
Flags: W
LayerCount: 2
Back
Fore
SplineSet
316 397 m 257
NamedP: "hr00"
 335 395 364 387 402 374 c 256
 449 359 474 345 479 333 c 257
 403 333 357 294 357 233 c 256
 357 181 403 142 455 142 c 256
 488 142 512 152 525 172 c 257
 518 112 450 62 307 62 c 256
 230 62 170 74 125 97 c 256
 81 120 59 147 59 176 c 257
 76 150 101 137 136 137 c 256
 162 137 185 145 206 163 c 256
 228 181 237 204 237 229 c 256
 237 294 193 331 137 331 c 256
 104 331 77 320 55 297 c 257
 31 277 19 248 19 209 c 256
 19 134 44 76 94 35 c 256
 145 -6 212 -25 297 -26 c 256
 469 -29 570 64 569 223 c 256
 568 288 546 341 496 377 c 256
 458 405 414 421 365 426 c 257
 555 586 l 257
 518 633 l 257
 350 454 l 257
 337 446 l 257
 329 444 l 257
 320 446 309 452 296 462 c 257
 254 514 l 257
 228 538 204 550 183 550 c 256
 144 550 125 530 125 490 c 256
 125 465 149 442 198 421 c 256
 233 405 268 397 302 397 c 258
 316 397 l 257
NamedP: "hr00"
519 241 m 256
 519 210 490 174 455 174 c 256
 434 174 419 181 409 195 c 257
 396 207 390 222 390 240 c 256
 390 276 419 303 455 303 c 256
 495 303 519 273 519 241 c 256
202 237 m 256
 202 205 173 174 140 174 c 256
 119 174 103 181 92 194 c 257
 80 211 74 225 74 236 c 257
 77 255 83 269 91 278 c 257
 104 290 121 296 140 296 c 256
 175 296 202 273 202 237 c 256
EndSplineSet
PickledDataWithLists: "(dp1
S'com.adobe.type.autohint'
p2
(S'data'
S'<data>\\n  <hintSetList>\\n    <hintset pointTag=\"hr00\">\\n      <hstem pos=\"-26\" width=\"88\"/>\\n      <hstem pos=\"137\" width=\"37\"/>\\n      <hstem pos=\"142\" width=\"32\"/>\\n      <hstem pos=\"296\" width=\"35\"/>\\n      <hstem pos=\"303\" width=\"30\"/>\\n      <hstem pos=\"397\" width=\"29\"/>\\n      <vstem pos=\"19\" width=\"40\"/>\\n      <vstem pos=\"202\" width=\"35\"/>\\n      <vstem pos=\"357\" width=\"33\"/>\\n      <vstem pos=\"519\" width=\"50\"/>\\n    </hintset>\\n  </hintSetList>\\n  </data>'
Ntp3
s."
EndChar

StartChar: uni0C25
Encoding: 152 3109 152
GlifName: uni0C25_
Width: 600
VWidth: 0
Flags: W
LayerCount: 2
Back
Fore
SplineSet
329 -127 m 256
NamedP: "hr00"
 329 -114 324 -90 311 -54 c 258
 283 24 l 257
 256 -47 l 257
 245 -86 240 -113 240 -127 c 256
 240 -156 254 -171 283 -171 c 257
 300 -168 311 -164 316 -159 c 256
 325 -150 329 -140 329 -127 c 256
NamedP: "hr00"
346 241 m 256
 346 276 326 296 287 296 c 257
 269 293 255 287 246 279 c 256
 236 269 231 256 231 241 c 256
 231 205 258 186 287 186 c 256
 326 186 346 204 346 241 c 256
497 181 m 256
 497 102 463 55 404 55 c 256
 345 55 311 82 302 137 c 257
 273 137 l 257
 258 82 223 55 168 55 c 256
 105 55 73 98 73 183 c 256
 73 232 94 275 135 313 c 256
 176 352 225 371 282 371 c 256
 344 371 395 351 436 312 c 256
 477 273 497 230 497 181 c 256
550 150 m 256
 550 223 526 283 477 332 c 256
 433 375 379 400 315 406 c 257
 547 553 l 257
 488 597 l 257
 331 456 l 257
 306 436 l 257
 305 433 300 432 293 432 c 256
 279 432 266 446 254 473 c 256
 242 501 230 520 218 529 c 256
 206 539 193 544 179 544 c 256
 139 544 119 525 119 486 c 256
 119 477 122 468 127 460 c 257
 154 433 l 257
 186 414 l 258
 189 413 194 410 201 406 c 257
 220 401 l 257
 96 372 19 282 19 150 c 256
 19 37 73 -26 152 -26 c 256
 183 -26 210 -19 233 -6 c 257
 258 14 275 35 284 58 c 257
 311 2 354 -26 414 -26 c 256
 495 -26 550 37 550 150 c 256
EndSplineSet
PickledDataWithLists: "(dp1
S'com.adobe.type.autohint'
p2
(S'data'
S'<data>\\n  <hintSetList>\\n    <hintset pointTag=\"hr00\">\\n      <hstem pos=\"-26\" width=\"81\"/>\\n      <hstem pos=\"186\" width=\"110\"/>\\n      <hstem pos=\"371\" width=\"35\"/>\\n      <vstem pos=\"19\" width=\"54\"/>\\n      <vstem pos=\"231\" width=\"115\"/>\\n      <vstem pos=\"240\" width=\"89\"/>\\n      <vstem pos=\"497\" width=\"53\"/>\\n    </hintset>\\n  </hintSetList>\\n  </data>'
Ntp3
s."
EndChar

StartChar: uni0C26
Encoding: 153 3110 153
GlifName: uni0C26_
Width: 600
VWidth: 0
Flags: W
LayerCount: 2
Back
Fore
SplineSet
497 181 m 256
NamedP: "hr00"
 497 102 463 55 404 55 c 256
 345 55 311 82 302 137 c 257
 273 137 l 257
 258 82 223 55 168 55 c 256
 105 55 73 98 73 183 c 256
 73 232 94 275 135 313 c 256
 176 352 225 371 282 371 c 256
 344 371 395 351 436 312 c 256
 477 273 497 230 497 181 c 256
NamedP: "hr00"
550 150 m 256
 550 223 526 283 477 332 c 256
 433 375 379 400 315 406 c 257
 547 553 l 257
 488 597 l 257
 331 456 l 257
 306 436 l 257
 305 433 300 432 293 432 c 256
 279 432 266 446 254 473 c 256
 242 501 230 520 218 529 c 256
 206 539 193 544 179 544 c 256
 139 544 119 525 119 486 c 256
 119 477 122 468 127 460 c 257
 154 433 l 257
 186 414 l 258
 189 413 194 410 201 406 c 257
 220 401 l 257
 96 372 19 282 19 150 c 256
 19 37 73 -26 152 -26 c 256
 183 -26 210 -19 233 -6 c 257
 258 14 275 35 284 58 c 257
 311 2 354 -26 414 -26 c 256
 495 -26 550 37 550 150 c 256
EndSplineSet
PickledDataWithLists: "(dp1
S'com.adobe.type.autohint'
p2
(S'data'
S'<data>\\n  <hintSetList>\\n    <hintset pointTag=\"hr00\">\\n      <hstem pos=\"-26\" width=\"81\"/>\\n      <hstem pos=\"371\" width=\"35\"/>\\n      <vstem pos=\"19\" width=\"54\"/>\\n      <vstem pos=\"497\" width=\"53\"/>\\n    </hintset>\\n  </hintSetList>\\n  </data>'
Ntp3
s."
EndChar

StartChar: uni0C27
Encoding: 154 3111 154
GlifName: uni0C27_
Width: 600
VWidth: 0
Flags: W
LayerCount: 2
Back
Fore
SplineSet
329 -127 m 256
NamedP: "hr00"
 329 -114 324 -90 311 -54 c 258
 283 24 l 257
 256 -47 l 257
 245 -86 240 -113 240 -127 c 256
 240 -156 254 -171 283 -171 c 257
 300 -168 311 -164 316 -159 c 256
 325 -150 329 -140 329 -127 c 256
NamedP: "hr00"
497 181 m 256
 497 102 463 55 404 55 c 256
 345 55 311 82 302 137 c 257
 273 137 l 257
 258 82 223 55 168 55 c 256
 105 55 73 98 73 183 c 256
 73 232 94 275 135 313 c 256
 176 352 225 371 282 371 c 256
 344 371 395 351 436 312 c 256
 477 273 497 230 497 181 c 256
550 150 m 256
 550 223 526 283 477 332 c 256
 433 375 379 400 315 406 c 257
 547 553 l 257
 488 597 l 257
 331 456 l 257
 306 436 l 257
 305 433 300 432 293 432 c 256
 279 432 266 446 254 473 c 256
 242 501 230 520 218 529 c 256
 206 539 193 544 179 544 c 256
 139 544 119 525 119 486 c 256
 119 477 122 468 127 460 c 257
 154 433 l 257
 186 414 l 258
 189 413 194 410 201 406 c 257
 220 401 l 257
 96 372 19 282 19 150 c 256
 19 37 73 -26 152 -26 c 256
 183 -26 210 -19 233 -6 c 257
 258 14 275 35 284 58 c 257
 311 2 354 -26 414 -26 c 256
 495 -26 550 37 550 150 c 256
EndSplineSet
PickledDataWithLists: "(dp1
S'com.adobe.type.autohint'
p2
(S'data'
S'<data>\\n  <hintSetList>\\n    <hintset pointTag=\"hr00\">\\n      <hstem pos=\"-26\" width=\"81\"/>\\n      <hstem pos=\"371\" width=\"35\"/>\\n      <vstem pos=\"19\" width=\"54\"/>\\n      <vstem pos=\"240\" width=\"89\"/>\\n      <vstem pos=\"497\" width=\"53\"/>\\n    </hintset>\\n  </hintSetList>\\n  </data>'
Ntp3
s."
EndChar

StartChar: uni0C28
Encoding: 155 3112 155
GlifName: uni0C28_
Width: 546
VWidth: 0
Flags: W
LayerCount: 2
Back
Fore
SplineSet
472 585 m 257
NamedP: "hr00"
 436 632 l 257
 268 451 l 257
 255 445 l 257
 246 442 l 257
 237 445 226 450 214 459 c 257
 172 513 l 257
 145 537 121 549 98 549 c 256
 61 549 43 529 43 488 c 256
 43 463 67 440 115 419 c 256
 149 404 184 395 219 396 c 258
 246 397 l 258
 301 399 350 376 393 333 c 256
 436 290 457 244 457 195 c 256
 457 110 422 67 352 67 c 256
 333 67 314 73 297 86 c 258
 272 105 l 257
 240 137 l 258
 193 184 164 212 124 212 c 256
 52 212 18 159 19 88 c 256
 20 63 28 37 40 10 c 257
 57 -14 74 -26 91 -26 c 256
 116 -26 132 -12 141 17 c 257
 142 38 134 56 118 70 c 256
 103 84 92 98 86 111 c 257
 81 125 78 137 78 147 c 257
 79 155 83 162 92 168 c 257
 98 175 108 179 123 179 c 256
 142 179 165 163 184 128 c 258
 211 78 l 257
 227 51 l 257
 243 28 l 258
 262 1 302 -26 345 -26 c 256
 446 -26 496 48 496 197 c 256
 496 260 470 315 418 362 c 256
 377 399 332 420 284 426 c 257
 472 585 l 257
NamedP: "hr00"
EndSplineSet
PickledDataWithLists: "(dp1
S'com.adobe.type.autohint'
p2
(S'data'
S'<data>\\n  <hintSetList>\\n    <hintset pointTag=\"hr00\">\\n      <hstem pos=\"-26\" width=\"93\"/>\\n      <hstem pos=\"179\" width=\"33\"/>\\n      <hstem pos=\"397\" width=\"29\"/>\\n      <vstem pos=\"19\" width=\"59\"/>\\n      <vstem pos=\"457\" width=\"39\"/>\\n    </hintset>\\n  </hintSetList>\\n  </data>'
Ntp3
s."
EndChar

StartChar: uni0C2A
Encoding: 156 3114 156
GlifName: uni0C2A_
Width: 562
VWidth: 0
Flags: W
LayerCount: 2
Back
Fore
SplineSet
334 595 m 257
NamedP: "hr00"
 232 463 l 257
 207 438 l 257
 195 431 l 257
 187 429 l 257
 182 429 173 435 161 446 c 257
 141 486 l 258
 123 521 101 537 82 537 c 256
 65 537 50 532 36 523 c 257
 25 510 19 495 19 478 c 256
 19 449 32 425 58 404 c 256
 85 383 115 373 150 373 c 257
 198 385 l 257
 209 392 229 405 254 428 c 258
 379 547 l 257
 334 595 l 257
NamedP: "hr00"
228 131 m 256
 228 95 202 71 161 71 c 256
 113 71 91 101 91 129 c 256
 91 146 97 160 109 173 c 257
 124 185 142 191 161 191 c 256
 202 191 228 162 228 131 c 256
514 183 m 256
 514 234 494 283 457 331 c 256
 419 380 383 404 348 404 c 256
 313 404 298 386 298 355 c 256
 298 340 303 329 313 321 c 256
 327 310 339 305 348 305 c 256
 383 305 413 293 437 267 c 256
 462 241 473 212 473 183 c 256
 473 114 437 67 388 67 c 256
 345 67 306 93 270 146 c 256
 233 199 199 226 150 226 c 256
 83 226 50 184 50 100 c 256
 50 58 59 27 78 6 c 256
 97 -15 120 -26 145 -26 c 256
 167 -26 190 -18 211 0 c 256
 235 20 250 45 259 72 c 257
 272 43 288 18 311 0 c 256
 333 -18 359 -26 386 -26 c 256
 462 -26 514 47 514 183 c 256
EndSplineSet
PickledDataWithLists: "(dp1
S'com.adobe.type.autohint'
p2
(S'data'
S'<data>\\n  <hintSetList>\\n    <hintset pointTag=\"hr00\">\\n      <hstem pos=\"-26\" width=\"93\"/>\\n      <hstem pos=\"-26\" width=\"97\"/>\\n      <hstem pos=\"191\" width=\"35\"/>\\n      <hstem pos=\"305\" width=\"99\"/>\\n      <vstem pos=\"50\" width=\"41\"/>\\n      <vstem pos=\"473\" width=\"41\"/>\\n    </hintset>\\n  </hintSetList>\\n  </data>'
Ntp3
s."
EndChar

StartChar: uni0C2B
Encoding: 157 3115 157
GlifName: uni0C2B_
Width: 562
VWidth: 0
Flags: W
LayerCount: 2
Back
Fore
SplineSet
334 595 m 257
NamedP: "hr00"
 232 463 l 257
 207 438 l 257
 195 431 l 257
 187 429 l 257
 182 429 173 435 161 446 c 257
 141 486 l 258
 123 521 101 537 82 537 c 256
 65 537 50 532 36 523 c 257
 25 510 19 495 19 478 c 256
 19 449 32 425 58 404 c 256
 85 383 115 373 150 373 c 257
 198 385 l 257
 209 392 229 405 254 428 c 258
 379 547 l 257
 334 595 l 257
NamedP: "hr00"
295 -91 m 257
 282 -46 l 257
 257 23 l 257
 232 -46 l 257
 216 -95 l 257
 211 -129 l 257
 211 -158 226 -172 257 -172 c 256
 281 -172 302 -152 302 -129 c 257
 295 -91 l 257
228 131 m 256
 228 95 202 71 161 71 c 256
 113 71 91 101 91 129 c 256
 91 146 97 160 109 173 c 257
 124 185 142 191 161 191 c 256
 202 191 228 162 228 131 c 256
514 183 m 256
 514 234 494 283 457 331 c 256
 419 380 383 404 348 404 c 256
 313 404 298 386 298 355 c 256
 298 340 303 329 313 321 c 256
 327 310 339 305 348 305 c 256
 383 305 413 293 437 267 c 256
 462 241 473 212 473 183 c 256
 473 114 437 67 388 67 c 256
 345 67 306 93 270 146 c 256
 233 199 199 226 150 226 c 256
 83 226 50 184 50 100 c 256
 50 58 59 27 78 6 c 256
 97 -15 120 -26 145 -26 c 256
 167 -26 190 -18 211 0 c 256
 235 20 250 45 259 72 c 257
 272 43 288 18 311 0 c 256
 333 -18 359 -26 386 -26 c 256
 462 -26 514 47 514 183 c 256
EndSplineSet
PickledDataWithLists: "(dp1
S'com.adobe.type.autohint'
p2
(S'data'
S'<data>\\n  <hintSetList>\\n    <hintset pointTag=\"hr00\">\\n      <hstem pos=\"-26\" width=\"93\"/>\\n      <hstem pos=\"-26\" width=\"97\"/>\\n      <hstem pos=\"191\" width=\"35\"/>\\n      <hstem pos=\"305\" width=\"99\"/>\\n      <vstem pos=\"50\" width=\"41\"/>\\n      <vstem pos=\"211\" width=\"91\"/>\\n      <vstem pos=\"473\" width=\"41\"/>\\n    </hintset>\\n  </hintSetList>\\n  </data>'
Ntp3
s."
EndChar

StartChar: uni0C2C
Encoding: 158 3116 158
GlifName: uni0C2C_
Width: 585
VWidth: 0
Flags: W
LayerCount: 2
Back
Fore
SplineSet
533 218 m 257
NamedP: "hr00"
 527 268 l 257
 518 307 502 340 479 368 c 256
 457 396 431 410 401 410 c 257
 366 403 351 391 351 371 c 256
 351 346 366 328 396 318 c 257
 437 299 460 277 485 238 c 256
 498 219 505 200 505 183 c 256
 505 95 474 62 401 62 c 256
 341 62 306 89 297 142 c 257
 261 142 l 257
 254 108 243 88 227 81 c 257
 210 68 186 62 154 62 c 256
 139 62 123 65 106 72 c 257
 93 81 87 91 87 100 c 257
 90 112 96 122 104 131 c 257
 166 182 l 258
 231 236 265 260 265 303 c 256
 265 326 259 345 248 360 c 257
 211 401 184 408 163 410 c 258
 138 412 l 258
 107 414 79 403 55 384 c 256
 31 365 19 339 19 305 c 257
 22 289 26 278 31 272 c 257
 65 246 105 266 105 303 c 257
 100 313 l 257
 98 332 l 257
 102 346 109 355 119 360 c 257
 129 367 141 371 154 371 c 256
 197 371 225 350 225 314 c 256
 225 290 217 270 201 254 c 258
 170 224 l 257
 127 194 l 257
 84 160 l 258
 72 151 63 142 56 133 c 257
 39 116 31 98 31 78 c 256
 31 45 42 18 65 0 c 256
 88 -18 118 -26 154 -26 c 256
 186 -26 211 -20 228 -8 c 256
 247 7 264 27 278 54 c 257
 297 26 314 6 329 -7 c 256
 344 -20 368 -26 401 -26 c 256
 440 -26 472 -12 497 16 c 256
 523 45 541 97 536 174 c 258
 533 218 l 257
NamedP: "hr00"
EndSplineSet
PickledDataWithLists: "(dp1
S'com.adobe.type.autohint'
p2
(S'data'
S'<data>\\n  <hintSetList>\\n    <hintset pointTag=\"hr00\">\\n      <hstem pos=\"-26\" width=\"88\"/>\\n      <hstem pos=\"371\" width=\"41\"/>\\n      <vstem pos=\"19\" width=\"86\"/>\\n      <vstem pos=\"31\" width=\"56\"/>\\n      <vstem pos=\"225\" width=\"40\"/>\\n      <vstem pos=\"505\" width=\"31\"/>\\n    </hintset>\\n  </hintSetList>\\n  </data>'
Ntp3
s."
EndChar

StartChar: uni0C2D
Encoding: 159 3117 159
GlifName: uni0C2D_
Width: 643
VWidth: 0
Flags: W
LayerCount: 2
Back
Fore
SplineSet
320 -128 m 256
NamedP: "hr00"
 320 -117 318 -103 311 -86 c 258
 298 -53 l 257
 275 23 l 257
 251 -46 l 257
 233 -95 l 257
 228 -129 l 257
 233 -156 258 -172 277 -172 c 257
 290 -169 300 -165 307 -160 c 257
 316 -149 320 -139 320 -128 c 256
NamedP: "hr00"
424 409 m 257
 433 412 440 417 445 422 c 257
 592 540 l 257
 548 579 l 257
 419 451 l 258
 404 436 393 428 386 428 c 256
 372 428 359 441 346 468 c 256
 334 495 324 513 315 522 c 256
 306 532 292 537 273 537 c 256
 229 537 207 517 207 478 c 256
 207 459 223 440 254 421 c 256
 283 403 315 394 352 394 c 258
 363 394 l 257
 396 389 423 372 452 333 c 256
 481 295 497 249 497 192 c 256
 497 105 465 62 401 62 c 256
 370 62 348 67 333 78 c 257
 318 92 306 113 296 142 c 257
 261 142 l 257
 240 84 202 55 147 55 c 256
 105 55 84 72 84 106 c 256
 84 126 91 142 104 155 c 257
 196 224 l 258
 239 256 257 293 257 326 c 256
 257 381 222 408 151 408 c 256
 118 408 87 398 59 379 c 256
 32 360 19 335 19 303 c 256
 19 270 34 253 65 254 c 256
 90 254 109 276 109 303 c 258
 109 326 l 258
 109 347 113 361 120 368 c 257
 129 374 140 377 154 377 c 256
 191 377 219 349 219 318 c 256
 219 292 187 259 123 218 c 256
 87 194 62 174 47 159 c 257
 31 139 23 116 23 90 c 256
 23 18 72 -26 133 -26 c 256
 206 -26 254 0 275 68 c 257
 292 31 309 7 327 -6 c 256
 346 -19 373 -26 409 -26 c 256
 449 -26 480 -5 502 37 c 256
 523 75 534 128 534 197 c 256
 534 259 516 313 481 358 c 256
 464 381 445 398 424 409 c 257
EndSplineSet
PickledDataWithLists: "(dp1
S'com.adobe.type.autohint'
p2
(S'data'
S'<data>\\n  <hintSetList>\\n    <hintset pointTag=\"hr00\">\\n      <hstem pos=\"-26\" width=\"81\"/>\\n      <hstem pos=\"-26\" width=\"88\"/>\\n      <hstem pos=\"377\" width=\"31\"/>\\n      <hstem pos=\"394\" width=\"34\"/>\\n      <vstem pos=\"19\" width=\"90\"/>\\n      <vstem pos=\"23\" width=\"61\"/>\\n      <vstem pos=\"219\" width=\"38\"/>\\n      <vstem pos=\"228\" width=\"92\"/>\\n      <vstem pos=\"497\" width=\"37\"/>\\n    </hintset>\\n  </hintSetList>\\n  </data>'
Ntp3
s."
EndChar

StartChar: uni0C2E
Encoding: 160 3118 160
GlifName: uni0C2E_
Width: 841
VWidth: 0
Flags: W
LayerCount: 2
Back
Fore
SplineSet
474 115 m 257
NamedP: "hr00"
 479 142 482 169 482 195 c 256
 482 263 454 319 398 364 c 256
 361 394 320 415 274 426 c 257
 464 586 l 257
 428 633 l 257
 260 454 l 257
 247 446 l 257
 240 444 l 257
 230 446 219 452 206 462 c 257
 163 514 l 257
 137 538 113 550 92 550 c 256
 53 550 34 530 34 490 c 256
 34 465 58 442 106 421 c 256
 142 405 177 397 211 397 c 258
 227 397 l 258
 277 397 323 374 365 340 c 256
 414 301 438 253 438 197 c 256
 438 111 405 68 338 68 c 256
 309 68 275 93 236 143 c 256
 197 194 158 219 120 219 c 256
 53 219 19 167 19 96 c 256
 19 19 59 -24 115 -24 c 256
 139 -24 162 -16 183 3 c 256
 205 22 215 46 218 71 c 257
 255 8 296 -24 343 -24 c 256
 386 -24 420 -4 445 37 c 256
 454 53 463 70 464 79 c 257
 469 72 l 258
 491 41 511 21 525 10 c 257
 564 -15 601 -28 637 -28 c 256
 726 -28 792 44 792 181 c 256
 792 212 783 247 764 288 c 257
 731 338 l 258
 724 349 711 362 696 376 c 257
 667 397 642 408 622 408 c 256
 599 408 583 403 574 394 c 257
 564 386 559 375 559 360 c 257
 564 327 583 305 622 305 c 256
 711 305 755 265 755 186 c 256
 755 113 712 67 624 67 c 257
 575 72 l 257
 528 87 l 257
 479 112 l 257
 474 115 l 257
NamedP: "hr00"
190 126 m 256
 190 87 168 68 125 68 c 256
 107 68 92 74 79 85 c 257
 69 96 64 109 64 124 c 256
 64 159 88 183 125 183 c 256
 164 183 190 157 190 126 c 256
EndSplineSet
PickledDataWithLists: "(dp1
S'com.adobe.type.autohint'
p2
(S'data'
S'<data>\\n  <hintSetList>\\n    <hintset pointTag=\"hr00\">\\n      <hstem pos=\"-28\" width=\"95\"/>\\n      <hstem pos=\"-24\" width=\"92\"/>\\n      <hstem pos=\"183\" width=\"36\"/>\\n      <hstem pos=\"305\" width=\"103\"/>\\n      <hstem pos=\"397\" width=\"47\"/>\\n      <vstem pos=\"19\" width=\"45\"/>\\n      <vstem pos=\"190\" width=\"28\"/>\\n      <vstem pos=\"438\" width=\"44\"/>\\n      <vstem pos=\"755\" width=\"37\"/>\\n    </hintset>\\n  </hintSetList>\\n  </data>'
Ntp3
s."
EndChar

StartChar: uni0C2F
Encoding: 161 3119 161
GlifName: uni0C2F_
Width: 1107
VWidth: 0
Flags: W
LayerCount: 2
Back
Fore
SplineSet
737 73 m 257
NamedP: "hr00"
 758 43 777 23 792 13 c 256
 829 -13 867 -26 904 -26 c 256
 947 -26 984 -9 1014 26 c 256
 1044 61 1059 113 1059 182 c 256
 1059 213 1050 249 1031 290 c 257
 998 340 l 258
 991 351 979 363 964 377 c 257
 933 399 908 410 888 410 c 256
 867 410 851 405 841 395 c 257
 830 387 824 376 824 362 c 257
 831 329 851 308 888 308 c 256
 976 308 1020 268 1020 187 c 256
 1020 114 978 68 891 68 c 257
 841 73 l 257
 795 88 l 257
 747 113 l 257
 741 119 l 257
 744 142 747 168 746 197 c 256
 741 284 702 364 604 404 c 258
 572 417 l 257
 582 422 l 257
 728 540 l 257
 686 579 l 257
 557 451 l 258
 543 437 531 430 525 428 c 257
 514 429 l 258
 503 431 492 445 480 470 c 256
 469 495 459 513 450 522 c 257
 442 532 429 537 410 537 c 256
 365 537 343 517 343 478 c 256
 343 459 358 439 388 421 c 256
 419 402 452 392 488 394 c 258
 509 395 l 257
 564 384 589 373 620 356 c 257
 677 317 706 249 706 197 c 256
 706 97 669 64 572 64 c 256
 525 64 476 85 427 128 c 257
 431 139 433 150 433 160 c 258
 434 190 l 258
 435 235 424 273 405 304 c 256
 384 340 359 363 331 377 c 256
 265 411 189 403 124 373 c 256
 59 343 19 281 19 192 c 256
 19 125 40 71 83 32 c 256
 126 -7 174 -26 227 -26 c 256
 264 -26 300 -17 337 1 c 257
 371 22 395 48 409 81 c 257
 457 33 l 257
 477 17 l 257
 505 -4 l 257
 541 -22 l 257
 559 -26 l 257
 583 -26 l 258
 618 -26 648 -18 673 -1 c 257
 696 19 714 45 727 78 c 256
 728 81 729 84 729 87 c 257
 737 73 l 257
NamedP: "hr00"
397 192 m 256
 397 156 374 106 319 82 c 256
 292 70 262 64 227 64 c 256
 176 64 134 75 104 101 c 256
 74 127 60 158 60 192 c 256
 60 215 67 235 78 254 c 256
 89 273 107 288 136 300 c 257
 152 309 164 313 173 314 c 257
 182 317 200 318 227 318 c 256
 251 318 273 316 293 308 c 258
 322 297 l 258
 375 277 397 232 397 192 c 256
EndSplineSet
PickledDataWithLists: "(dp1
S'com.adobe.type.autohint'
p2
(S'data'
S'<data>\\n  <hintSetList>\\n    <hintset pointTag=\"hr00\">\\n      <hstem pos=\"-26\" width=\"90\"/>\\n      <hstem pos=\"-26\" width=\"94\"/>\\n      <hstem pos=\"308\" width=\"102\"/>\\n      <hstem pos=\"318\" width=\"82\"/>\\n      <hstem pos=\"394\" width=\"34\"/>\\n      <vstem pos=\"19\" width=\"41\"/>\\n      <vstem pos=\"397\" width=\"37\"/>\\n      <vstem pos=\"706\" width=\"40\"/>\\n      <vstem pos=\"1020\" width=\"39\"/>\\n    </hintset>\\n  </hintSetList>\\n  </data>'
Ntp3
s."
EndChar

StartChar: uni0C30
Encoding: 162 3120 162
GlifName: uni0C30_
Width: 508
VWidth: 0
Flags: W
LayerCount: 2
Back
Fore
SplineSet
259 408 m 257
NamedP: "hr00"
 272 411 281 414 286 417 c 257
 436 537 l 257
 390 577 l 257
 261 449 l 257
 247 432 235 424 225 424 c 256
 212 424 199 437 186 464 c 256
 174 491 163 509 154 519 c 256
 145 530 132 535 115 535 c 256
 70 535 48 515 48 476 c 256
 48 457 63 436 93 415 c 257
 110 407 126 401 142 396 c 257
 163 393 164 391 145 391 c 257
 127 383 106 371 84 353 c 256
 40 316 19 263 19 196 c 256
 18 57 124 -25 240 -26 c 256
 354 -27 462 71 456 196 c 256
 452 285 412 355 345 386 c 256
 320 398 291 405 259 408 c 257
NamedP: "hr00"
411 213 m 256
 411 137 344 76 240 76 c 256
 127 76 66 136 66 213 c 256
 66 297 133 359 242 359 c 256
 351 359 411 297 411 213 c 256
EndSplineSet
PickledDataWithLists: "(dp1
S'com.adobe.type.autohint'
p2
(S'data'
S'<data>\\n  <hintSetList>\\n    <hintset pointTag=\"hr00\">\\n      <hstem pos=\"-26\" width=\"102\"/>\\n      <hstem pos=\"359\" width=\"49\"/>\\n      <hstem pos=\"408\" width=\"16\"/>\\n      <vstem pos=\"19\" width=\"47\"/>\\n      <vstem pos=\"411\" width=\"45\"/>\\n    </hintset>\\n  </hintSetList>\\n  </data>'
Ntp3
s."
EndChar

StartChar: uni0C31
Encoding: 163 3121 163
GlifName: uni0C31_
Width: 673
VWidth: 0
Flags: W
LayerCount: 2
Back
Fore
SplineSet
222 313 m 256
NamedP: "hr00"
 222 266 199 245 163 245 c 256
 130 245 104 270 104 313 c 256
 104 352 130 378 163 378 c 256
 199 378 222 349 222 313 c 256
NamedP: "hr00"
623 183 m 256
 623 256 610 313 581 356 c 256
 556 393 525 412 490 412 c 256
 442 412 415 379 415 332 c 256
 415 310 420 289 433 269 c 256
 445 250 461 236 479 227 c 257
 266 227 l 257
 252 192 l 257
 522 192 l 257
 529 223 l 257
 476 264 450 301 450 332 c 256
 450 359 464 373 493 373 c 256
 545 373 587 317 587 209 c 256
 587 112 548 65 481 65 c 256
 415 65 371 95 350 154 c 257
 313 154 l 257
 292 95 249 65 184 65 c 256
 144 65 112 79 87 106 c 257
 63 139 51 177 51 222 c 256
 51 238 53 252 56 264 c 257
 70 297 l 257
 70 253 109 212 164 212 c 256
 217 212 263 254 263 313 c 256
 263 373 214 414 161 414 c 256
 120 414 86 396 59 361 c 256
 32 326 19 281 19 227 c 256
 19 154 34 93 64 45 c 256
 94 -2 136 -26 191 -26 c 256
 224 -26 254 -13 281 12 c 257
 332 71 l 257
 376 20 404 -9 415 -16 c 256
 426 -23 445 -26 472 -26 c 256
 521 -26 559 -4 584 41 c 256
 610 86 623 133 623 183 c 256
EndSplineSet
PickledDataWithLists: "(dp1
S'com.adobe.type.autohint'
p2
(S'data'
S'<data>\\n  <hintSetList>\\n    <hintset pointTag=\"hr00\">\\n      <hstem pos=\"-26\" width=\"91\"/>\\n      <hstem pos=\"192\" width=\"35\"/>\\n      <hstem pos=\"212\" width=\"33\"/>\\n      <hstem pos=\"373\" width=\"39\"/>\\n      <hstem pos=\"378\" width=\"36\"/>\\n      <vstem pos=\"19\" width=\"32\"/>\\n      <vstem pos=\"70\" width=\"34\"/>\\n      <vstem pos=\"222\" width=\"41\"/>\\n      <vstem pos=\"415\" width=\"35\"/>\\n      <vstem pos=\"587\" width=\"36\"/>\\n    </hintset>\\n  </hintSetList>\\n  </data>'
Ntp3
s."
EndChar

StartChar: uni0C32
Encoding: 164 3122 164
GlifName: uni0C32_
Width: 538
VWidth: 0
Flags: W
LayerCount: 2
Back
Fore
SplineSet
227 305 m 256
NamedP: "hr00"
 227 266 201 240 165 240 c 256
 148 240 134 247 122 260 c 256
 111 272 105 287 105 305 c 256
 105 323 111 338 122 351 c 256
 134 364 148 371 165 371 c 256
 202 371 227 345 227 305 c 256
NamedP: "hr00"
490 219 m 256
 490 265 477 308 451 348 c 256
 426 388 400 408 373 408 c 257
 337 403 319 388 319 364 c 257
 322 352 328 343 337 337 c 257
 349 331 361 328 373 328 c 256
 390 328 407 318 426 297 c 256
 445 277 454 250 454 215 c 256
 454 168 433 130 391 101 c 256
 354 76 309 63 255 63 c 256
 201 63 155 77 118 105 c 256
 77 137 56 174 56 215 c 258
 56 233 l 257
 60 271 l 257
 70 301 l 257
 70 279 79 258 97 238 c 257
 118 222 141 214 166 214 c 256
 191 214 215 221 233 238 c 256
 254 256 263 280 263 305 c 256
 263 366 220 408 164 408 c 256
 127 408 94 391 64 356 c 256
 34 321 19 278 19 226 c 256
 19 149 43 87 92 40 c 256
 137 -4 192 -26 256 -26 c 256
 320 -26 375 -4 421 41 c 256
 467 86 490 145 490 219 c 256
EndSplineSet
PickledDataWithLists: "(dp1
S'com.adobe.type.autohint'
p2
(S'data'
S'<data>\\n  <hintSetList>\\n    <hintset pointTag=\"hr00\">\\n      <hstem pos=\"-26\" width=\"89\"/>\\n      <hstem pos=\"214\" width=\"26\"/>\\n      <hstem pos=\"328\" width=\"80\"/>\\n      <hstem pos=\"371\" width=\"37\"/>\\n      <vstem pos=\"19\" width=\"37\"/>\\n      <vstem pos=\"70\" width=\"35\"/>\\n      <vstem pos=\"227\" width=\"36\"/>\\n      <vstem pos=\"454\" width=\"36\"/>\\n    </hintset>\\n  </hintSetList>\\n  </data>'
Ntp3
s."
EndChar

StartChar: uni0C33
Encoding: 165 3123 165
GlifName: uni0C33_
Width: 582
VWidth: 0
Flags: W
LayerCount: 2
Back
Fore
SplineSet
364 55 m 256
NamedP: "hr00"
 364 42 353 32 330 27 c 256
 307 22 283 19 257 19 c 256
 231 19 207 22 184 27 c 257
 161 36 150 46 150 55 c 256
 151 67 163 77 188 86 c 256
 213 95 236 99 259 99 c 256
 280 99 302 93 327 81 c 256
 352 69 364 60 364 55 c 256
NamedP: "hr00"
184 254 m 256
 184 217 154 192 123 192 c 256
 82 192 56 217 56 254 c 256
 56 294 77 314 119 314 c 256
 156 314 184 287 184 254 c 256
495 618 m 257
 327 456 l 257
 310 446 l 257
 300 442 l 257
 291 445 281 450 269 459 c 257
 228 515 l 258
 209 541 185 553 160 553 c 256
 121 553 102 533 102 492 c 257
 104 479 109 466 118 455 c 257
 130 446 146 434 165 424 c 256
 200 406 234 399 265 399 c 256
 310 399 353 386 394 359 c 256
 435 332 456 301 456 264 c 256
 456 221 430 186 378 163 c 256
 337 145 299 138 265 138 c 257
 197 144 l 257
 167 152 147 159 138 165 c 257
 191 165 224 202 224 254 c 256
 224 281 215 305 196 324 c 257
 172 343 148 353 124 353 c 256
 56 353 19 303 19 255 c 256
 19 224 33 195 61 168 c 256
 93 138 137 120 192 115 c 257
 161 108 l 257
 131 95 l 257
 108 80 96 67 96 55 c 256
 96 2 159 -26 260 -26 c 256
 303 -26 341 -20 372 -8 c 257
 401 10 415 30 415 53 c 257
 412 85 403 85 375 97 c 256
 362 103 343 108 318 113 c 257
 366 113 411 129 450 165 c 256
 482 193 496 227 496 262 c 256
 496 347 428 404 332 423 c 257
 531 576 l 257
 495 618 l 257
EndSplineSet
PickledDataWithLists: "(dp1
S'com.adobe.type.autohint'
p2
(S'data'
S'<data>\\n  <hintSetList>\\n    <hintset pointTag=\"hr00\">\\n      <hstem pos=\"-26\" width=\"45\"/>\\n      <hstem pos=\"99\" width=\"39\"/>\\n      <hstem pos=\"165\" width=\"27\"/>\\n      <hstem pos=\"314\" width=\"39\"/>\\n      <vstem pos=\"19\" width=\"37\"/>\\n      <vstem pos=\"96\" width=\"54\"/>\\n      <vstem pos=\"184\" width=\"40\"/>\\n      <vstem pos=\"364\" width=\"51\"/>\\n      <vstem pos=\"456\" width=\"40\"/>\\n    </hintset>\\n  </hintSetList>\\n  </data>'
Ntp3
s."
EndChar

StartChar: uni0C34
Encoding: 166 3124 166
GlifName: uni0C34_
Width: 693
VWidth: 0
Flags: W
LayerCount: 2
Back
Fore
SplineSet
383 12 m 257
NamedP: "hr00"
 411 -13 441 -26 472 -26 c 256
 528 -26 571 -2 600 45 c 256
 630 93 645 154 645 227 c 256
 645 281 631 326 604 361 c 256
 577 396 543 414 504 414 c 256
 449 414 401 373 401 313 c 256
 401 254 443 212 498 212 c 256
 557 212 593 253 593 297 c 257
 607 264 l 258
 612 252 613 238 613 222 c 256
 613 177 600 139 575 106 c 257
 550 79 518 65 479 65 c 256
 415 65 372 95 350 154 c 257
 313 154 l 257
 292 95 249 65 184 65 c 256
 144 65 112 79 87 106 c 257
 63 139 51 177 51 222 c 256
 51 238 53 252 56 264 c 257
 70 297 l 257
 70 253 109 212 164 212 c 256
 217 212 263 254 263 313 c 256
 263 373 214 414 161 414 c 256
 120 414 86 396 59 361 c 256
 32 326 19 281 19 227 c 256
 19 154 34 93 64 45 c 256
 94 -2 136 -26 191 -26 c 256
 224 -26 254 -13 281 12 c 257
 332 71 l 257
 383 12 l 257
NamedP: "hr00"
501 378 m 256
 533 378 561 352 561 313 c 256
 561 270 533 245 501 245 c 256
 465 245 441 266 441 313 c 256
 441 349 465 378 501 378 c 256
163 378 m 256
 199 378 222 349 222 313 c 256
 222 266 199 245 163 245 c 256
 130 245 104 270 104 313 c 256
 104 352 130 378 163 378 c 256
EndSplineSet
PickledDataWithLists: "(dp1
S'com.adobe.type.autohint'
p2
(S'data'
S'<data>\\n  <hintSetList>\\n    <hintset pointTag=\"hr00\">\\n      <hstem pos=\"-26\" width=\"91\"/>\\n      <hstem pos=\"212\" width=\"33\"/>\\n      <hstem pos=\"378\" width=\"36\"/>\\n      <vstem pos=\"19\" width=\"32\"/>\\n      <vstem pos=\"70\" width=\"34\"/>\\n      <vstem pos=\"222\" width=\"41\"/>\\n      <vstem pos=\"401\" width=\"40\"/>\\n      <vstem pos=\"561\" width=\"32\"/>\\n      <vstem pos=\"613\" width=\"32\"/>\\n    </hintset>\\n  </hintSetList>\\n  </data>'
Ntp3
s."
EndChar

StartChar: uni0C35
Encoding: 167 3125 167
GlifName: uni0C35_
Width: 532
VWidth: 0
Flags: W
LayerCount: 2
Back
Fore
SplineSet
227 397 m 258
NamedP: "hr00"
 277 397 323 374 365 340 c 256
 414 301 438 253 438 197 c 256
 438 111 405 68 338 68 c 256
 309 68 275 93 236 143 c 256
 197 194 158 219 120 219 c 256
 53 219 19 167 19 96 c 256
 19 19 59 -24 115 -24 c 256
 139 -24 162 -16 183 3 c 256
 205 22 215 46 218 71 c 257
 255 8 296 -24 343 -24 c 256
 428 -24 482 63 482 195 c 256
 482 263 454 319 398 364 c 256
 361 394 320 415 274 426 c 257
 464 586 l 257
 428 633 l 257
 260 454 l 257
 247 446 l 257
 240 444 l 257
 230 446 219 452 206 462 c 257
 163 514 l 257
 137 538 113 550 92 550 c 256
 53 550 34 530 34 490 c 256
 34 465 58 442 106 421 c 256
 142 405 177 397 211 397 c 258
 227 397 l 258
NamedP: "hr00"
190 126 m 256
 190 87 168 68 125 68 c 256
 107 68 92 74 79 85 c 257
 69 96 64 109 64 124 c 256
 64 159 88 183 125 183 c 256
 164 183 190 157 190 126 c 256
EndSplineSet
PickledDataWithLists: "(dp1
S'com.adobe.type.autohint'
p2
(S'data'
S'<data>\\n  <hintSetList>\\n    <hintset pointTag=\"hr00\">\\n      <hstem pos=\"-24\" width=\"92\"/>\\n      <hstem pos=\"183\" width=\"36\"/>\\n      <hstem pos=\"397\" width=\"47\"/>\\n      <vstem pos=\"19\" width=\"45\"/>\\n      <vstem pos=\"190\" width=\"28\"/>\\n      <vstem pos=\"438\" width=\"44\"/>\\n    </hintset>\\n  </hintSetList>\\n  </data>'
Ntp3
s."
EndChar

StartChar: uni0C36
Encoding: 168 3126 168
GlifName: uni0C36_
Width: 502
VWidth: 0
Flags: W
LayerCount: 2
Back
Fore
SplineSet
231 395 m 257
NamedP: "hr00"
 262 392 292 385 319 372 c 256
 352 356 368 339 368 324 c 256
 368 300 353 279 324 260 c 257
 279 287 220 301 145 301 c 256
 107 301 77 293 55 277 c 257
 31 253 19 225 19 192 c 256
 19 171 23 157 32 151 c 257
 45 146 57 144 68 144 c 257
 101 148 111 160 111 192 c 257
 106 213 l 257
 100 236 l 257
 100 258 121 269 163 269 c 256
 170 269 189 270 220 262 c 257
 287 237 l 257
 220 197 l 257
 181 167 l 257
 152 140 138 112 138 85 c 256
 138 52 151 26 177 5 c 256
 203 -16 235 -26 272 -26 c 256
 348 -26 411 18 411 90 c 256
 411 119 407 146 397 172 c 256
 387 197 372 218 355 235 c 257
 376 253 389 266 395 274 c 256
 406 291 411 306 411 319 c 256
 411 355 393 384 357 403 c 256
 342 411 324 416 304 421 c 257
 451 540 l 257
 405 579 l 257
 278 451 l 258
 265 438 254 432 246 428 c 257
 234 429 l 257
 224 431 213 445 202 470 c 256
 191 495 181 513 172 522 c 256
 163 532 150 537 132 537 c 256
 88 537 66 517 66 478 c 256
 66 459 79 439 109 421 c 256
 140 402 173 392 210 394 c 258
 231 395 l 257
NamedP: "hr00"
372 133 m 256
 372 88 328 59 279 59 c 256
 258 59 238 64 220 74 c 257
 207 86 199 102 200 123 c 256
 200 137 216 152 245 169 c 258
 323 215 l 257
 350 196 372 172 372 133 c 256
EndSplineSet
PickledDataWithLists: "(dp1
S'com.adobe.type.autohint'
p2
(S'data'
S'<data>\\n  <hintSetList>\\n    <hintset pointTag=\"hr00\">\\n      <hstem pos=\"-26\" width=\"85\"/>\\n      <hstem pos=\"269\" width=\"32\"/>\\n      <hstem pos=\"394\" width=\"34\"/>\\n      <vstem pos=\"19\" width=\"92\"/>\\n      <vstem pos=\"138\" width=\"62\"/>\\n      <vstem pos=\"368\" width=\"43\"/>\\n      <vstem pos=\"372\" width=\"39\"/>\\n    </hintset>\\n  </hintSetList>\\n  </data>'
Ntp3
s."
EndChar

StartChar: uni0C37
Encoding: 169 3127 169
GlifName: uni0C37_
Width: 601
VWidth: 0
Flags: W
LayerCount: 2
Back
Fore
SplineSet
334 595 m 257
NamedP: "hr00"
 232 463 l 257
 207 438 l 257
 195 431 l 257
 187 429 l 257
 182 429 173 435 161 446 c 257
 141 486 l 258
 123 521 101 537 82 537 c 256
 65 537 50 532 36 523 c 257
 25 510 19 495 19 478 c 256
 19 449 32 425 58 404 c 256
 85 383 115 373 150 373 c 257
 198 385 l 257
 209 392 229 405 254 428 c 258
 379 547 l 257
 334 595 l 257
NamedP: "hr00"
222 127 m 256
 222 95 198 67 154 67 c 256
 111 67 84 99 84 127 c 256
 84 163 111 191 154 191 c 256
 198 191 222 164 222 127 c 256
655 -99 m 256
 655 -76 632 -59 611 -59 c 256
 588 -59 567 -45 548 -18 c 257
 531 13 516 56 505 109 c 257
 511 134 514 161 514 192 c 256
 514 230 498 275 463 324 c 256
 425 378 384 404 345 404 c 256
 307 404 288 388 288 355 c 257
 291 336 297 323 305 314 c 256
 315 304 330 299 351 299 c 256
 382 299 411 286 438 260 c 256
 465 235 478 206 478 174 c 256
 478 103 443 67 372 67 c 256
 324 67 300 90 263 142 c 256
 222 201 191 219 150 219 c 256
 83 219 50 178 50 96 c 256
 50 17 91 -26 146 -26 c 256
 171 -26 194 -18 214 1 c 256
 236 21 247 44 250 69 c 257
 263 42 282 19 306 0 c 257
 333 -17 356 -26 377 -26 c 256
 428 -26 465 1 487 55 c 257
 487 6 498 -39 518 -81 c 256
 537 -121 565 -140 598 -140 c 256
 631 -140 655 -123 655 -99 c 256
EndSplineSet
PickledDataWithLists: "(dp1
S'com.adobe.type.autohint'
p2
(S'data'
S'<data>\\n  <hintSetList>\\n    <hintset pointTag=\"hr00\">\\n      <hstem pos=\"-140\" width=\"81\"/>\\n      <hstem pos=\"-26\" width=\"93\"/>\\n      <hstem pos=\"191\" width=\"28\"/>\\n      <hstem pos=\"299\" width=\"105\"/>\\n      <vstem pos=\"50\" width=\"34\"/>\\n      <vstem pos=\"222\" width=\"28\"/>\\n      <vstem pos=\"478\" width=\"36\"/>\\n    </hintset>\\n  </hintSetList>\\n  </data>'
Ntp3
s."
EndChar

StartChar: uni0C38
Encoding: 170 3128 170
GlifName: uni0C38_
Width: 576
VWidth: 0
Flags: W
LayerCount: 2
Back
Fore
SplineSet
334 595 m 257
NamedP: "hr00"
 232 463 l 257
 207 438 l 257
 195 431 l 257
 187 429 l 257
 182 429 173 435 161 446 c 257
 141 486 l 258
 123 521 101 537 82 537 c 256
 65 537 50 532 36 523 c 257
 25 510 19 495 19 478 c 256
 19 449 32 425 58 404 c 256
 85 383 115 373 150 373 c 257
 198 385 l 257
 209 392 229 405 254 428 c 258
 379 547 l 257
 334 595 l 257
NamedP: "hr00"
527 183 m 256
 527 236 507 287 468 336 c 256
 433 379 400 401 369 401 c 256
 330 401 314 376 314 355 c 256
 314 342 318 330 327 319 c 257
 338 308 352 303 369 303 c 256
 400 303 428 289 454 262 c 256
 480 235 493 203 493 165 c 256
 493 106 445 67 382 67 c 256
 354 67 324 81 291 110 c 256
 218 176 171 209 150 209 c 256
 123 209 99 194 79 165 c 256
 60 136 50 103 50 68 c 257
 56 27 l 257
 68 -3 l 257
 78 -18 91 -26 106 -26 c 256
 148 -26 169 -9 169 26 c 257
 166 41 160 56 148 67 c 258
 120 94 l 257
 111 106 107 122 107 141 c 257
 112 165 127 178 151 178 c 256
 165 178 192 144 231 76 c 256
 270 8 321 -26 384 -26 c 256
 431 -26 467 -10 492 22 c 257
 515 58 527 112 527 183 c 256
EndSplineSet
PickledDataWithLists: "(dp1
S'com.adobe.type.autohint'
p2
(S'data'
S'<data>\\n  <hintSetList>\\n    <hintset pointTag=\"hr00\">\\n      <hstem pos=\"-26\" width=\"93\"/>\\n      <hstem pos=\"178\" width=\"31\"/>\\n      <hstem pos=\"303\" width=\"98\"/>\\n      <vstem pos=\"50\" width=\"57\"/>\\n      <vstem pos=\"493\" width=\"34\"/>\\n    </hintset>\\n  </hintSetList>\\n  </data>'
Ntp3
s."
EndChar

StartChar: uni0C39
Encoding: 171 3129 171
GlifName: uni0C39_
Width: 900
VWidth: 0
Flags: W
LayerCount: 2
Back
Fore
SplineSet
334 595 m 257
NamedP: "hr00"
 232 463 l 257
 207 438 l 257
 195 431 l 257
 187 429 l 257
 182 429 173 435 161 446 c 257
 141 486 l 258
 123 521 101 537 82 537 c 256
 65 537 50 532 36 523 c 257
 25 510 19 495 19 478 c 256
 19 449 32 425 58 404 c 256
 85 383 115 373 150 373 c 257
 198 385 l 257
 209 392 229 405 254 428 c 258
 379 547 l 257
 334 595 l 257
NamedP: "hr00"
220 127 m 256
 220 92 193 64 157 64 c 256
 114 64 93 85 93 127 c 256
 93 164 117 195 157 195 c 256
 199 195 220 172 220 127 c 256
819 329 m 256
 819 286 791 262 759 262 c 256
 714 262 695 290 695 327 c 256
 695 366 724 394 757 394 c 257
 798 385 819 364 819 329 c 256
850 318 m 256
 850 409 811 455 732 455 c 258
 393 455 l 257
 369 394 l 257
 387 394 l 257
 417 380 442 356 463 322 c 256
 486 287 497 250 497 212 c 256
 497 121 453 64 384 64 c 256
 360 64 340 70 323 82 c 256
 300 99 287 115 265 147 c 256
 227 204 188 231 150 231 c 256
 120 231 95 219 75 194 c 257
 58 168 50 134 50 92 c 256
 50 56 59 27 79 6 c 256
 99 -16 123 -26 150 -26 c 256
 199 -26 243 10 250 67 c 257
 285 5 329 -26 384 -26 c 256
 426 -26 461 -5 490 36 c 256
 517 75 531 134 531 212 c 256
 531 245 522 280 505 315 c 256
 488 350 467 377 442 394 c 257
 687 394 l 257
 667 377 655 342 655 291 c 256
 655 216 700 165 759 165 c 256
 820 165 850 216 850 318 c 256
EndSplineSet
PickledDataWithLists: "(dp1
S'com.adobe.type.autohint'
p2
(S'data'
S'<data>\\n  <hintSetList>\\n    <hintset pointTag=\"hr00\">\\n      <hstem pos=\"-26\" width=\"90\"/>\\n      <hstem pos=\"165\" width=\"97\"/>\\n      <hstem pos=\"195\" width=\"36\"/>\\n      <hstem pos=\"394\" width=\"61\"/>\\n      <vstem pos=\"50\" width=\"43\"/>\\n      <vstem pos=\"220\" width=\"30\"/>\\n      <vstem pos=\"497\" width=\"34\"/>\\n      <vstem pos=\"655\" width=\"40\"/>\\n      <vstem pos=\"819\" width=\"31\"/>\\n    </hintset>\\n  </hintSetList>\\n  </data>'
Ntp3
s."
EndChar

StartChar: uni0C3D
Encoding: 172 3133 172
GlifName: uni0C3D_
Width: 903
VWidth: 0
Flags: W
LayerCount: 2
Back
Fore
SplineSet
854 46 m 257
NamedP: "hr00"
 191 46 l 258
 159 46 135 51 119 63 c 256
 100 77 91 94 91 109 c 256
 91 148 134 172 191 172 c 256
 324 172 391 226 391 335 c 256
 391 372 370 404 328 431 c 256
 286 458 243 471 200 471 c 256
 149 471 106 460 69 436 c 256
 36 415 19 387 19 355 c 257
 30 324 40 309 68 309 c 256
 84 309 96 314 105 323 c 257
 150 387 l 258
 167 411 188 424 218 424 c 256
 251 424 280 414 305 395 c 256
 330 376 343 356 343 335 c 256
 343 284 333 249 312 231 c 256
 291 213 255 204 202 204 c 256
 121 204 59 177 40 144 c 258
 23 114 l 257
 19 88 l 257
 19 25 85 -26 190 -26 c 258
 854 -26 l 257
 854 46 l 257
NamedP: "hr00"
EndSplineSet
PickledDataWithLists: "(dp1
S'com.adobe.type.autohint'
p2
(S'data'
S'<data>\\n  <hintSetList>\\n    <hintset pointTag=\"hr00\">\\n      <hstem pos=\"-26\" width=\"72\"/>\\n      <hstem pos=\"172\" width=\"32\"/>\\n      <hstem pos=\"424\" width=\"47\"/>\\n      <vstem pos=\"19\" width=\"72\"/>\\n      <vstem pos=\"343\" width=\"48\"/>\\n    </hintset>\\n  </hintSetList>\\n  </data>'
Ntp3
s."
EndChar

StartChar: uni0C3E
Encoding: 173 3134 173
GlifName: uni0C3E_
Width: 479
VWidth: 0
Flags: W
LayerCount: 2
Back
Fore
SplineSet
452 332 m 256
NamedP: "hr00"
 452 315 447 299 437 285 c 257
 420 272 403 265 386 265 c 256
 350 265 314 296 314 332 c 256
 314 368 346 396 386 396 c 256
 403 396 420 389 437 376 c 257
 447 362 452 347 452 332 c 256
NamedP: "hr00"
486 314 m 256
 486 399 436 465 348 465 c 258
 -272 465 l 257
 -335 396 l 257
 305 396 l 257
 288 379 279 353 279 318 c 256
 279 282 287 247 305 215 c 256
 323 183 350 168 382 168 c 256
 413 168 438 183 457 214 c 256
 476 245 486 278 486 314 c 256
EndSplineSet
PickledDataWithLists: "(dp1
S'com.adobe.type.autohint'
p2
(S'data'
S'<data>\\n  <hintSetList>\\n    <hintset pointTag=\"hr00\">\\n      <hstem pos=\"168\" width=\"97\"/>\\n      <hstem pos=\"396\" width=\"69\"/>\\n      <vstem pos=\"279\" width=\"35\"/>\\n      <vstem pos=\"452\" width=\"34\"/>\\n    </hintset>\\n  </hintSetList>\\n  </data>'
Ntp3
s."
EndChar

StartChar: uni0C3F
Encoding: 174 3135 174
GlifName: uni0C3F_
Width: 12
VWidth: 0
Flags: W
LayerCount: 2
Back
Fore
SplineSet
200 567 m 257
NamedP: "hr00"
 196 534 177 512 141 512 c 256
 112 512 82 537 82 568 c 257
 85 600 102 621 141 621 c 256
 184 621 200 594 200 567 c 257
NamedP: "hr00"
283 541 m 256
 283 634 221 685 160 685 c 256
 129 685 102 676 80 655 c 256
 57 634 47 604 47 569 c 256
 47 542 57 521 78 506 c 256
 99 491 122 483 146 483 c 256
 166 483 185 488 203 497 c 256
 221 507 228 505 225 492 c 257
 224 483 214 471 197 458 c 257
 179 440 154 431 123 431 c 256
 106 431 87 433 68 438 c 257
 52 410 l 257
 79 397 105 391 129 391 c 256
 170 391 206 408 237 442 c 256
 268 477 283 510 283 541 c 256
EndSplineSet
PickledDataWithLists: "(dp1
S'com.adobe.type.autohint'
p2
(S'data'
S'<data>\\n  <hintSetList>\\n    <hintset pointTag=\"hr00\">\\n      <hstem pos=\"391\" width=\"40\"/>\\n      <hstem pos=\"483\" width=\"29\"/>\\n      <hstem pos=\"621\" width=\"64\"/>\\n      <vstem pos=\"47\" width=\"35\"/>\\n      <vstem pos=\"200\" width=\"83\"/>\\n    </hintset>\\n  </hintSetList>\\n  </data>'
Ntp3
s."
EndChar

StartChar: uni0C40
Encoding: 175 3136 175
GlifName: uni0C40_
Width: 12
VWidth: 0
Flags: W
LayerCount: 2
Back
Fore
SplineSet
231 567 m 257
NamedP: "hr00"
 224 534 212 512 172 512 c 256
 143 512 113 537 113 568 c 257
 118 603 140 621 172 621 c 256
 192 621 207 616 216 606 c 256
 226 593 231 580 231 567 c 257
NamedP: "hr00"
312 545 m 256
 312 591 299 626 274 650 c 256
 249 675 220 687 189 687 c 257
 154 694 129 716 129 747 c 256
 129 783 151 801 195 801 c 256
 240 801 263 777 263 729 c 257
 299 729 l 257
 299 821 266 867 199 867 c 256
 127 867 86 826 86 778 c 256
 86 740 101 706 131 676 c 257
 95 659 76 623 76 572 c 256
 76 515 119 483 171 483 c 256
 194 483 213 490 230 499 c 256
 251 511 261 515 261 510 c 256
 261 497 251 480 231 460 c 256
 212 441 186 431 155 431 c 257
 125 436 l 257
 97 445 l 257
 81 414 l 257
 113 402 140 396 163 396 c 256
 208 396 243 412 270 440 c 256
 297 469 312 503 312 545 c 256
EndSplineSet
PickledDataWithLists: "(dp1
S'com.adobe.type.autohint'
p2
(S'data'
S'<data>\\n  <hintSetList>\\n    <hintset pointTag=\"hr00\">\\n      <hstem pos=\"396\" width=\"35\"/>\\n      <hstem pos=\"483\" width=\"29\"/>\\n      <hstem pos=\"621\" width=\"66\"/>\\n      <hstem pos=\"801\" width=\"66\"/>\\n      <vstem pos=\"76\" width=\"37\"/>\\n      <vstem pos=\"86\" width=\"43\"/>\\n      <vstem pos=\"231\" width=\"81\"/>\\n      <vstem pos=\"263\" width=\"36\"/>\\n    </hintset>\\n  </hintSetList>\\n  </data>'
Ntp3
s."
EndChar

StartChar: uni0C41
Encoding: 176 3137 176
GlifName: uni0C41_
Width: 310
VWidth: 0
Flags: W
LayerCount: 2
Back
Fore
SplineSet
335 181 m 256
NamedP: "hr00"
 335 212 326 247 307 288 c 257
 275 338 l 258
 268 349 256 362 240 376 c 257
 211 397 185 408 163 408 c 256
 144 408 128 403 117 394 c 256
 107 385 102 374 102 360 c 257
 109 327 127 306 163 306 c 256
 253 306 298 266 298 187 c 256
 298 112 256 65 167 65 c 257
 119 72 l 258
 84 77 54 92 23 112 c 257
 -19 146 l 257
 -19 123 l 257
 -16 118 -14 113 -13 110 c 257
 3 85 30 48 46 31 c 256
 54 22 62 15 69 10 c 256
 107 -15 144 -28 181 -28 c 256
 268 -28 335 44 335 181 c 256
NamedP: "hr00"
EndSplineSet
PickledDataWithLists: "(dp1
S'com.adobe.type.autohint'
p2
(S'data'
S'<data>\\n  <hintSetList>\\n    <hintset pointTag=\"hr00\">\\n      <hstem pos=\"-28\" width=\"93\"/>\\n      <hstem pos=\"306\" width=\"102\"/>\\n      <vstem pos=\"298\" width=\"37\"/>\\n    </hintset>\\n  </hintSetList>\\n  </data>'
Ntp3
s."
EndChar

StartChar: uni0C42
Encoding: 177 3138 177
GlifName: uni0C42_
Width: 679
VWidth: 0
Flags: W
LayerCount: 2
Back
Fore
SplineSet
649 305 m 256
NamedP: "hr00"
 649 266 623 238 583 238 c 256
 540 238 512 268 512 305 c 256
 512 341 542 371 583 371 c 256
 620 371 649 341 649 305 c 256
NamedP: "hr00"
684 286 m 256
 684 329 674 366 651 392 c 256
 623 424 587 438 548 438 c 258
 158 438 l 257
 158 371 l 257
 181 371 l 257
 210 360 236 340 260 309 c 256
 289 270 303 229 303 187 c 256
 303 159 292 132 271 105 c 256
 250 78 220 65 183 65 c 256
 154 65 121 74 84 91 c 256
 47 108 14 129 -16 153 c 257
 -16 119 l 257
 6 82 26 54 46 37 c 256
 101 -9 142 -28 194 -28 c 256
 279 -28 346 42 346 181 c 256
 346 216 331 256 302 303 c 256
 273 350 261 372 267 371 c 257
 505 371 l 257
 486 354 476 327 476 292 c 256
 476 255 485 220 506 187 c 256
 524 158 550 144 579 144 c 256
 595 144 610 147 625 153 c 257
 636 160 646 171 655 185 c 256
 674 214 684 247 684 286 c 256
EndSplineSet
PickledDataWithLists: "(dp1
S'com.adobe.type.autohint'
p2
(S'data'
S'<data>\\n  <hintSetList>\\n    <hintset pointTag=\"hr00\">\\n      <hstem pos=\"-28\" width=\"93\"/>\\n      <hstem pos=\"144\" width=\"94\"/>\\n      <hstem pos=\"371\" width=\"67\"/>\\n      <vstem pos=\"303\" width=\"43\"/>\\n      <vstem pos=\"476\" width=\"36\"/>\\n      <vstem pos=\"649\" width=\"35\"/>\\n    </hintset>\\n  </hintSetList>\\n  </data>'
Ntp3
s."
EndChar

StartChar: uni0C43
Encoding: 178 3139 178
GlifName: uni0C43_
Width: 250
VWidth: 0
Flags: W
LayerCount: 2
Back
Fore
SplineSet
-47 -174 m 257
NamedP: "hr00"
 12 -174 2 -254 -55 -245 c 256
 -100 -238 -100 -182 -47 -174 c 257
NamedP: "hr00"
28 -194 m 256
 27 -170 20 -154 5 -145 c 257
 -11 -132 -28 -126 -47 -126 c 256
 -65 -126 -83 -133 -100 -146 c 257
 -115 -161 -123 -181 -123 -206 c 256
 -123 -242 -108 -270 -77 -290 c 257
 -50 -312 -14 -323 31 -323 c 256
 46 -323 65 -317 89 -306 c 256
 112 -295 132 -280 149 -260 c 256
 170 -237 186 -205 200 -162 c 256
 206 -143 214 -119 215 -92 c 258
 219 -13 l 258
 222 50 211 111 196 170 c 256
 181 229 161 272 138 300 c 256
 115 328 92 342 71 342 c 256
 47 342 34 332 35 312 c 256
 35 300 50 283 71 254 c 258
 87 232 l 257
 108 210 l 257
 127 187 l 258
 143 167 154 139 167 106 c 256
 181 71 189 29 189 -18 c 257
 183 -81 l 257
 174 -136 l 257
 161 -171 148 -200 132 -222 c 256
 97 -271 59 -288 28 -288 c 256
 -10 -288 -33 -281 -41 -268 c 257
 -25 -268 -8 -262 9 -249 c 257
 23 -234 28 -216 28 -194 c 256
EndSplineSet
PickledDataWithLists: "(dp1
S'com.adobe.type.autohint'
p2
(S'data'
S'<data>\\n  <hintSetList>\\n    <hintset pointTag=\"hr00\">\\n      <hstem pos=\"-323\" width=\"35\"/>\\n      <hstem pos=\"-268\" width=\"23\"/>\\n      <hstem pos=\"-174\" width=\"48\"/>\\n      <vstem pos=\"-123\" width=\"35\"/>\\n      <vstem pos=\"-7\" width=\"35\"/>\\n      <vstem pos=\"189\" width=\"30\"/>\\n    </hintset>\\n  </hintSetList>\\n  </data>'
Ntp3
s."
EndChar

StartChar: uni0C44
Encoding: 179 3140 179
GlifName: uni0C44_
Width: 512
VWidth: 0
Flags: W
LayerCount: 2
Back
Fore
SplineSet
463 263 m 257
NamedP: "hr00"
 458 228 441 214 418 214 c 256
 403 214 391 219 381 229 c 257
 373 239 369 250 369 262 c 256
 369 289 389 308 417 308 c 257
 450 301 463 283 463 263 c 257
NamedP: "hr00"
-45 -162 m 257
 2 -162 1 -207 -19 -225 c 256
 -35 -240 -74 -234 -82 -213 c 256
 -90 -192 -81 -166 -45 -162 c 257
35 306 m 257
 38 293 52 275 72 249 c 258
 89 227 l 257
 110 205 l 257
 127 183 l 258
 142 164 154 137 167 104 c 256
 181 69 189 28 189 -18 c 257
 183 -79 l 257
 176 -133 l 257
 162 -168 148 -196 133 -218 c 256
 100 -265 62 -283 31 -283 c 256
 -8 -283 -29 -280 -32 -273 c 257
 -20 -273 -5 -267 12 -254 c 257
 27 -237 33 -217 33 -194 c 256
 32 -167 25 -149 8 -140 c 257
 -7 -127 -25 -121 -45 -121 c 256
 -64 -121 -82 -128 -99 -142 c 257
 -115 -159 -123 -180 -123 -206 c 256
 -123 -245 -107 -274 -76 -295 c 257
 -49 -317 -13 -328 33 -328 c 256
 48 -328 67 -323 91 -312 c 256
 115 -301 135 -284 153 -264 c 256
 174 -240 192 -207 205 -163 c 256
 211 -145 216 -121 221 -92 c 257
 224 -13 l 258
 226 51 212 113 186 173 c 256
 162 228 137 269 115 296 c 257
 114 301 114 303 114 300 c 257
 349 300 l 257
 349 302 347 298 344 287 c 257
 339 278 336 262 336 238 c 256
 336 207 343 181 356 160 c 257
 371 141 392 132 419 132 c 256
 439 132 455 141 469 156 c 256
 492 182 497 208 498 246 c 256
 500 290 477 321 472 329 c 257
 449 347 l 257
 429 360 401 367 365 367 c 258
 35 367 l 257
 35 306 l 257
EndSplineSet
PickledDataWithLists: "(dp1
S'com.adobe.type.autohint'
p2
(S'data'
S'<data>\\n  <hintSetList>\\n    <hintset pointTag=\"hr00\">\\n      <hstem pos=\"-328\" width=\"45\"/>\\n      <hstem pos=\"-273\" width=\"40\"/>\\n      <hstem pos=\"-162\" width=\"41\"/>\\n      <hstem pos=\"132\" width=\"82\"/>\\n      <hstem pos=\"300\" width=\"67\"/>\\n      <vstem pos=\"-123\" width=\"38\"/>\\n      <vstem pos=\"-6\" width=\"39\"/>\\n      <vstem pos=\"35\" width=\"79\"/>\\n      <vstem pos=\"189\" width=\"35\"/>\\n      <vstem pos=\"336\" width=\"33\"/>\\n      <vstem pos=\"463\" width=\"35\"/>\\n    </hintset>\\n  </hintSetList>\\n  </data>'
Ntp3
s."
EndChar

StartChar: uni0C46
Encoding: 180 3142 180
GlifName: uni0C46_
Width: 110
VWidth: 0
Flags: W
LayerCount: 2
Back
Fore
SplineSet
374 508 m 256
NamedP: "hr00"
 374 564 337 605 274 605 c 258
 -32 605 l 257
 -32 532 l 257
 271 532 l 258
 287 532 299 529 306 522 c 256
 315 511 319 498 319 485 c 257
 311 452 295 433 255 433 c 258
 189 433 l 257
 189 396 l 257
 260 396 l 258
 332 396 374 449 374 508 c 256
NamedP: "hr00"
EndSplineSet
PickledDataWithLists: "(dp1
S'com.adobe.type.autohint'
p2
(S'data'
S'<data>\\n  <hintSetList>\\n    <hintset pointTag=\"hr00\">\\n      <hstem pos=\"396\" width=\"37\"/>\\n      <hstem pos=\"532\" width=\"73\"/>\\n      <vstem pos=\"319\" width=\"55\"/>\\n    </hintset>\\n  </hintSetList>\\n  </data>'
Ntp3
s."
EndChar

StartChar: uni0C47
Encoding: 181 3143 181
GlifName: uni0C47_
Width: 110
VWidth: 0
Flags: W
LayerCount: 2
Back
Fore
SplineSet
376 664 m 257
NamedP: "hr00"
 376 693 371 721 360 747 c 256
 350 773 338 789 323 796 c 257
 308 808 288 814 263 814 c 256
 239 814 217 805 196 786 c 256
 175 768 165 745 165 718 c 256
 165 675 192 637 247 605 c 257
 -32 605 l 257
 -32 532 l 257
 271 532 l 258
 287 532 299 529 306 522 c 256
 315 511 319 498 319 485 c 257
 311 452 295 433 255 433 c 258
 190 433 l 257
 190 396 l 257
 260 396 l 258
 332 396 374 449 374 508 c 256
 374 535 366 558 350 577 c 257
 335 590 322 598 310 603 c 257
 242 641 208 672 208 697 c 257
 215 726 234 746 267 746 c 256
 306 746 330 725 349 664 c 257
 376 664 l 257
NamedP: "hr00"
EndSplineSet
PickledDataWithLists: "(dp1
S'com.adobe.type.autohint'
p2
(S'data'
S'<data>\\n  <hintSetList>\\n    <hintset pointTag=\"hr00\">\\n      <hstem pos=\"396\" width=\"37\"/>\\n      <hstem pos=\"532\" width=\"73\"/>\\n      <hstem pos=\"746\" width=\"68\"/>\\n      <vstem pos=\"165\" width=\"43\"/>\\n      <vstem pos=\"319\" width=\"55\"/>\\n      <vstem pos=\"349\" width=\"27\"/>\\n    </hintset>\\n  </hintSetList>\\n  </data>'
Ntp3
s."
EndChar

StartChar: uni0C48
Encoding: 182 3144 182
GlifName: uni0C48_
Width: 519
VWidth: 0
Flags: W
LayerCount: 2
Back
Fore
SplineSet
100 -153 m 256
NamedP: "hr00"
 115 -153 126 -158 133 -167 c 257
 137 -180 139 -190 139 -196 c 257
 137 -211 134 -221 129 -227 c 257
 119 -236 109 -240 100 -240 c 256
 73 -240 59 -225 59 -196 c 256
 59 -179 63 -167 71 -160 c 257
 85 -155 95 -153 100 -153 c 256
NamedP: "hr00"
419 -291 m 257
 443 -241 l 257
 160 -241 l 257
 165 -212 l 257
 165 -197 l 258
 165 -140 142 -112 96 -112 c 256
 54 -112 33 -140 33 -197 c 256
 33 -214 35 -229 42 -242 c 258
 54 -264 l 257
 69 -282 86 -291 105 -291 c 258
 419 -291 l 257
474 508 m 256
 474 564 434 605 374 605 c 258
 68 605 l 257
 68 532 l 257
 369 532 l 258
 385 532 397 529 405 522 c 257
 412 511 416 499 416 486 c 257
 411 451 394 433 354 433 c 258
 286 433 l 257
 286 396 l 257
 359 396 l 258
 432 396 474 449 474 508 c 256
EndSplineSet
PickledDataWithLists: "(dp1
S'com.adobe.type.autohint'
p2
(S'data'
S'<data>\\n  <hintSetList>\\n    <hintset pointTag=\"hr00\">\\n      <hstem pos=\"-291\" width=\"50\"/>\\n      <hstem pos=\"-153\" width=\"41\"/>\\n      <hstem pos=\"396\" width=\"37\"/>\\n      <hstem pos=\"532\" width=\"73\"/>\\n      <vstem pos=\"33\" width=\"26\"/>\\n      <vstem pos=\"139\" width=\"26\"/>\\n      <vstem pos=\"416\" width=\"58\"/>\\n    </hintset>\\n  </hintSetList>\\n  </data>'
Ntp3
s."
EndChar

StartChar: uni0C4A
Encoding: 183 3146 183
GlifName: uni0C4A_
Width: 508
VWidth: 0
Flags: W
LayerCount: 2
Back
Fore
SplineSet
489 488 m 256
NamedP: "hr00"
 489 455 460 419 421 419 c 256
 372 419 349 455 349 488 c 256
 349 529 373 556 421 556 c 256
 466 556 489 529 489 488 c 256
NamedP: "hr00"
525 471 m 256
 525 518 516 555 494 581 c 256
 471 610 441 623 407 623 c 258
 246 623 l 258
 188 623 142 600 107 555 c 257
 78 603 33 623 -28 623 c 256
 -103 623 -160 582 -160 510 c 256
 -160 447 -99 400 22 386 c 258
 64 381 l 257
 64 386 59 393 48 403 c 257
 22 419 l 257
 -50 442 -98 474 -98 510 c 256
 -98 541 -71 556 -16 556 c 256
 11 556 35 548 55 533 c 257
 78 520 90 505 90 488 c 257
 123 488 l 257
 140 533 178 556 235 556 c 258
 344 556 l 257
 323 538 312 510 312 473 c 256
 312 436 321 402 340 371 c 257
 365 340 392 324 421 324 c 256
 485 324 525 387 525 471 c 256
EndSplineSet
PickledDataWithLists: "(dp1
S'com.adobe.type.autohint'
p2
(S'data'
S'<data>\\n  <hintSetList>\\n    <hintset pointTag=\"hr00\">\\n      <hstem pos=\"324\" width=\"95\"/>\\n      <hstem pos=\"556\" width=\"67\"/>\\n      <vstem pos=\"-160\" width=\"62\"/>\\n      <vstem pos=\"312\" width=\"37\"/>\\n      <vstem pos=\"489\" width=\"36\"/>\\n    </hintset>\\n  </hintSetList>\\n  </data>'
Ntp3
s."
EndChar

StartChar: uni0C4B
Encoding: 184 3147 184
GlifName: uni0C4B_
Width: 512
VWidth: 0
Flags: W
LayerCount: 2
Back
Fore
SplineSet
525 471 m 256
NamedP: "hr00"
 525 518 516 555 494 581 c 256
 471 610 441 623 407 623 c 258
 396 623 l 257
 379 632 368 641 363 650 c 257
 351 667 345 680 345 688 c 256
 345 719 365 735 405 735 c 256
 429 735 449 728 464 713 c 256
 483 692 490 681 490 660 c 257
 525 660 l 257
 525 701 514 732 494 756 c 256
 472 782 446 796 411 796 c 256
 382 796 345 782 328 763 c 257
 311 740 302 715 302 690 c 257
 305 677 309 665 317 654 c 258
 339 623 l 257
 246 623 l 258
 188 623 142 600 107 555 c 257
 78 603 33 623 -28 623 c 256
 -103 623 -160 582 -160 510 c 256
 -160 447 -99 400 22 386 c 258
 64 381 l 257
 64 386 59 393 48 403 c 257
 22 419 l 257
 -50 442 -98 474 -98 510 c 256
 -98 541 -71 556 -16 556 c 256
 11 556 35 548 55 533 c 257
 78 520 90 505 90 488 c 257
 123 488 l 257
 140 533 178 556 235 556 c 258
 344 556 l 257
 323 538 312 510 312 473 c 256
 312 436 321 402 340 371 c 257
 365 340 392 324 421 324 c 256
 485 324 525 387 525 471 c 256
NamedP: "hr00"
489 488 m 256
 489 455 460 419 421 419 c 256
 372 419 349 455 349 488 c 256
 349 529 373 556 421 556 c 256
 466 556 489 529 489 488 c 256
EndSplineSet
PickledDataWithLists: "(dp1
S'com.adobe.type.autohint'
p2
(S'data'
S'<data>\\n  <hintSetList>\\n    <hintset pointTag=\"hr00\">\\n      <hstem pos=\"324\" width=\"95\"/>\\n      <hstem pos=\"556\" width=\"67\"/>\\n      <hstem pos=\"735\" width=\"61\"/>\\n      <vstem pos=\"-160\" width=\"62\"/>\\n      <vstem pos=\"302\" width=\"43\"/>\\n      <vstem pos=\"312\" width=\"37\"/>\\n      <vstem pos=\"489\" width=\"36\"/>\\n    </hintset>\\n  </hintSetList>\\n  </data>'
Ntp3
s."
EndChar

StartChar: uni0C4C
Encoding: 185 3148 185
GlifName: uni0C4C_
Width: 557
VWidth: 0
Flags: W
LayerCount: 2
Back
Fore
SplineSet
416 608 m 257
NamedP: "hr00"
 -233 608 l 257
 -233 526 l 257
 103 526 l 257
 130 521 145 500 145 481 c 257
 140 453 123 436 98 436 c 258
 -114 436 l 257
 -114 391 l 257
 108 391 l 258
 159 391 189 434 189 478 c 256
 189 513 177 529 177 526 c 257
 390 526 l 257
 372 491 l 257
 367 478 364 460 364 438 c 256
 364 397 374 365 394 340 c 256
 416 314 439 301 464 301 c 256
 521 301 568 359 568 451 c 256
 568 559 507 608 416 608 c 257
NamedP: "hr00"
472 392 m 256
 453 392 435 399 423 412 c 256
 410 426 405 443 405 463 c 256
 405 504 433 531 472 531 c 256
 513 531 536 494 536 463 c 256
 536 418 504 392 472 392 c 256
EndSplineSet
PickledDataWithLists: "(dp1
S'com.adobe.type.autohint'
p2
(S'data'
S'<data>\\n  <hintSetList>\\n    <hintset pointTag=\"hr00\">\\n      <hstem pos=\"301\" width=\"91\"/>\\n      <hstem pos=\"391\" width=\"45\"/>\\n      <hstem pos=\"526\" width=\"82\"/>\\n      <vstem pos=\"145\" width=\"44\"/>\\n      <vstem pos=\"364\" width=\"41\"/>\\n      <vstem pos=\"536\" width=\"32\"/>\\n    </hintset>\\n  </hintSetList>\\n  </data>'
Ntp3
s."
EndChar

StartChar: uni0C4D
Encoding: 186 3149 186
GlifName: uni0C4D_
Width: 14
VWidth: 0
Flags: W
LayerCount: 2
Back
Fore
SplineSet
490 769 m 257
NamedP: "hr00"
 103 769 l 258
 76 769 54 759 39 739 c 256
 24 719 16 698 16 677 c 256
 16 634 35 602 74 581 c 257
 37 560 19 530 19 490 c 256
 19 466 27 445 43 427 c 256
 60 409 84 400 115 400 c 258
 251 400 l 257
 251 431 l 257
 112 431 l 257
 97 434 87 440 81 449 c 257
 72 458 67 471 67 486 c 257
 72 517 84 531 120 531 c 258
 326 531 l 257
 326 600 l 257
 107 600 l 258
 88 600 69 628 69 655 c 256
 69 686 83 701 111 701 c 258
 490 701 l 257
 490 769 l 257
NamedP: "hr00"
EndSplineSet
PickledDataWithLists: "(dp1
S'com.adobe.type.autohint'
p2
(S'data'
S'<data>\\n  <hintSetList>\\n    <hintset pointTag=\"hr00\">\\n      <hstem pos=\"400\" width=\"31\"/>\\n      <hstem pos=\"531\" width=\"69\"/>\\n      <hstem pos=\"701\" width=\"68\"/>\\n      <vstem pos=\"16\" width=\"53\"/>\\n      <vstem pos=\"19\" width=\"48\"/>\\n    </hintset>\\n  </hintSetList>\\n  </data>'
Ntp3
s."
EndChar

StartChar: uni0C55
Encoding: 187 3157 187
GlifName: uni0C55_
Width: 255
VWidth: 0
Flags: W
LayerCount: 2
Back
Fore
SplineSet
0 819 m 256
NamedP: "hr00"
 0 778 30 735 78 718 c 257
 91 718 l 257
 101 717 96 725 76 742 c 256
 56 759 46 780 46 804 c 256
 46 843 80 871 127 871 c 256
 176 871 217 841 224 806 c 257
 253 806 l 257
 246 839 230 868 207 892 c 256
 184 916 158 928 127 928 c 256
 92 928 62 917 37 896 c 256
 12 875 0 850 0 819 c 256
NamedP: "hr00"
EndSplineSet
PickledDataWithLists: "(dp1
S'com.adobe.type.autohint'
p2
(S'data'
S'<data>\\n  <hintSetList>\\n    <hintset pointTag=\"hr00\">\\n      <hstem pos=\"871\" width=\"57\"/>\\n      <vstem pos=\"0\" width=\"46\"/>\\n      <vstem pos=\"224\" width=\"29\"/>\\n    </hintset>\\n  </hintSetList>\\n  </data>'
Ntp3
s."
EndChar

StartChar: uni0C56
Encoding: 188 3158 188
GlifName: uni0C56_
Width: 0
VWidth: 0
Flags: W
LayerCount: 2
Back
Fore
SplineSet
10 -153 m 256
NamedP: "hr00"
 25 -153 36 -158 43 -167 c 257
 47 -180 49 -190 49 -196 c 257
 47 -211 44 -221 39 -227 c 257
 29 -236 19 -240 10 -240 c 256
 -17 -240 -31 -225 -31 -196 c 256
 -31 -179 -27 -167 -19 -160 c 257
 -5 -155 5 -153 10 -153 c 256
NamedP: "hr00"
329 -291 m 257
 353 -241 l 257
 70 -241 l 257
 75 -212 l 257
 75 -197 l 258
 75 -140 52 -112 6 -112 c 256
 -36 -112 -57 -140 -57 -197 c 256
 -57 -214 -55 -229 -48 -242 c 258
 -36 -264 l 257
 -21 -282 -4 -291 15 -291 c 258
 329 -291 l 257
EndSplineSet
PickledDataWithLists: "(dp1
S'com.adobe.type.autohint'
p2
(S'data'
S'<data>\\n  <hintSetList>\\n    <hintset pointTag=\"hr00\">\\n      <hstem pos=\"-291\" width=\"50\"/>\\n      <hstem pos=\"-153\" width=\"41\"/>\\n      <vstem pos=\"-57\" width=\"26\"/>\\n      <vstem pos=\"49\" width=\"26\"/>\\n    </hintset>\\n  </hintSetList>\\n  </data>'
Ntp3
s."
EndChar

StartChar: uni0C58
Encoding: 189 3160 189
GlifName: uni0C58_
Width: 639
VWidth: 0
Flags: W
LayerCount: 2
Back
Fore
SplineSet
587 586 m 257
NamedP: "hr00"
 552 633 l 257
 384 454 l 257
 373 446 l 257
 361 444 l 257
 354 446 344 452 331 462 c 257
 288 514 l 257
 263 538 239 550 216 550 c 256
 179 550 160 530 160 490 c 256
 160 465 184 442 231 421 c 256
 268 404 308 397 337 397 c 257
 394 387 442 362 482 322 c 256
 522 282 542 233 542 174 c 256
 542 103 505 62 450 62 c 256
 426 62 405 68 386 81 c 256
 369 93 355 112 346 137 c 257
 323 137 l 257
 308 106 295 86 284 76 c 256
 274 67 257 62 232 62 c 256
 185 62 161 82 161 123 c 256
 161 148 171 179 190 217 c 257
 19 217 l 257
 19 183 l 257
 146 183 l 257
 123 148 111 113 111 78 c 256
 111 47 121 22 140 1 c 257
 160 -17 187 -26 220 -26 c 256
 251 -26 273 -21 288 -10 c 256
 303 0 319 19 336 46 c 257
 366 -2 406 -26 455 -26 c 256
 544 -26 579 29 582 174 c 256
 584 281 507 372 416 412 c 258
 393 422 l 257
 587 586 l 257
NamedP: "hr00"
395 777 m 257
 403 788 416 794 433 794 c 256
 439 794 450 790 466 782 c 257
 477 775 483 761 483 741 c 256
 483 706 466 688 433 688 c 256
 421 688 409 693 396 704 c 257
 391 711 386 723 383 740 c 257
 383 749 387 761 395 777 c 257
428 628 m 258
 449 628 470 638 491 659 c 257
 502 685 l 258
 509 702 513 720 513 740 c 256
 513 807 488 840 438 840 c 256
 383 840 356 807 356 740 c 258
 356 723 l 257
 361 686 l 257
 20 686 l 257
 52 628 l 257
 428 628 l 258
EndSplineSet
PickledDataWithLists: "(dp1
S'com.adobe.type.autohint'
p2
(S'data'
S'<data>\\n  <hintSetList>\\n    <hintset pointTag=\"hr00\">\\n      <hstem pos=\"-26\" width=\"88\"/>\\n      <hstem pos=\"183\" width=\"34\"/>\\n      <hstem pos=\"397\" width=\"48\"/>\\n      <hstem pos=\"628\" width=\"58\"/>\\n      <hstem pos=\"794\" width=\"46\"/>\\n      <vstem pos=\"111\" width=\"50\"/>\\n      <vstem pos=\"356\" width=\"27\"/>\\n      <vstem pos=\"483\" width=\"30\"/>\\n      <vstem pos=\"542\" width=\"40\"/>\\n    </hintset>\\n  </hintSetList>\\n  </data>'
Ntp3
s."
EndChar

StartChar: uni0C59
Encoding: 190 3161 190
GlifName: uni0C59_
Width: 575
VWidth: 0
Flags: W
LayerCount: 2
Back
Fore
SplineSet
518 127 m 257
NamedP: "hr00"
 507 168 l 257
 479 168 l 257
 479 96 445 64 402 64 c 256
 371 64 347 71 331 86 c 256
 315 101 304 119 297 142 c 257
 266 142 l 257
 266 105 230 64 165 64 c 256
 114 64 88 78 88 105 c 256
 88 117 95 132 110 149 c 257
 200 223 l 257
 238 262 258 289 257 305 c 258
 255 331 l 257
 315 250 372 210 427 210 c 256
 482 210 525 253 525 314 c 256
 525 345 510 371 481 393 c 256
 452 415 415 426 369 426 c 257
 369 397 l 257
 399 397 425 389 446 373 c 256
 468 357 479 341 479 324 c 256
 479 296 456 282 411 282 c 256
 356 282 308 303 269 345 c 257
 252 369 240 379 229 386 c 256
 204 403 173 412 136 412 c 256
 103 412 76 402 54 383 c 256
 31 364 19 338 19 305 c 256
 19 271 35 254 66 254 c 257
 98 259 109 271 109 299 c 257
 100 312 95 326 95 340 c 256
 95 365 112 377 145 377 c 256
 188 377 219 350 219 318 c 256
 219 290 188 254 125 209 c 256
 82 179 56 159 46 150 c 257
 28 127 19 105 19 85 c 256
 19 16 79 -26 156 -26 c 257
 200 -22 l 257
 225 -9 l 257
 248 9 267 31 282 58 c 257
 313 2 356 -26 409 -26 c 256
 477 -26 525 19 525 90 c 257
 518 127 l 257
NamedP: "hr00"
395 704 m 257
 403 715 416 721 433 721 c 256
 439 721 450 717 466 710 c 257
 477 703 483 689 483 668 c 256
 483 634 466 617 433 617 c 256
 421 617 409 622 396 631 c 257
 391 638 386 650 383 668 c 257
 383 675 387 687 395 704 c 257
428 555 m 258
 449 555 470 565 491 586 c 257
 502 610 l 258
 510 628 513 646 513 665 c 256
 513 733 488 767 438 767 c 256
 383 767 356 733 356 665 c 258
 356 649 l 257
 361 614 l 257
 20 614 l 257
 52 555 l 257
 428 555 l 258
EndSplineSet
PickledDataWithLists: "(dp1
S'com.adobe.type.autohint'
p2
(S'data'
S'<data>\\n  <hintSetList>\\n    <hintset pointTag=\"hr00\">\\n      <hstem pos=\"-26\" width=\"90\"/>\\n      <hstem pos=\"210\" width=\"72\"/>\\n      <hstem pos=\"377\" width=\"35\"/>\\n      <hstem pos=\"397\" width=\"29\"/>\\n      <hstem pos=\"555\" width=\"59\"/>\\n      <hstem pos=\"721\" width=\"46\"/>\\n      <vstem pos=\"19\" width=\"69\"/>\\n      <vstem pos=\"19\" width=\"76\"/>\\n      <vstem pos=\"219\" width=\"38\"/>\\n      <vstem pos=\"266\" width=\"31\"/>\\n      <vstem pos=\"356\" width=\"27\"/>\\n      <vstem pos=\"479\" width=\"46\"/>\\n      <vstem pos=\"483\" width=\"30\"/>\\n    </hintset>\\n  </hintSetList>\\n  </data>'
Ntp3
s."
EndChar

StartChar: uni0C60
Encoding: 191 3168 191
GlifName: uni0C60_
Width: 1584
VWidth: 0
Flags: W
LayerCount: 2
Back
Fore
SplineSet
543 72 m 257
NamedP: "hr00"
 566 42 585 21 600 10 c 256
 637 -15 675 -28 713 -28 c 256
 756 -28 794 -12 823 24 c 256
 837 41 847 64 854 90 c 257
 867 70 881 51 898 37 c 256
 953 -9 994 -28 1047 -28 c 256
 1135 -28 1198 42 1198 181 c 256
 1198 216 1183 256 1154 302 c 256
 1125 348 1115 371 1123 371 c 258
 1357 371 l 257
 1338 354 1329 327 1329 291 c 256
 1329 254 1338 219 1357 186 c 257
 1377 158 1402 144 1432 144 c 256
 1447 144 1462 147 1475 153 c 256
 1489 160 1500 171 1509 185 c 256
 1527 213 1536 247 1536 286 c 256
 1536 329 1525 366 1501 394 c 256
 1475 426 1440 441 1400 441 c 258
 1010 441 l 257
 1010 371 l 257
 1033 371 l 257
 1061 360 1089 340 1114 308 c 256
 1143 270 1156 229 1156 186 c 256
 1156 159 1145 132 1123 106 c 256
 1102 80 1072 67 1034 67 c 256
 1006 67 973 75 934 91 c 257
 864 133 l 257
 866 181 l 258
 867 212 857 247 838 288 c 257
 807 338 l 258
 800 350 787 362 772 376 c 257
 742 397 716 408 695 408 c 256
 674 408 659 403 648 394 c 256
 637 386 632 375 632 360 c 257
 640 327 656 305 695 305 c 256
 784 305 828 265 828 186 c 256
 828 113 784 67 700 67 c 257
 650 72 l 257
 602 87 l 257
 556 112 l 257
 534 127 l 257
 536 174 l 257
 533 218 l 257
 527 267 l 257
 506 323 l 257
 481 367 l 257
 458 396 431 410 401 410 c 257
 366 403 351 391 351 371 c 256
 351 346 366 328 396 318 c 257
 437 299 460 277 485 238 c 256
 498 219 505 200 505 183 c 256
 505 95 474 62 401 62 c 256
 341 62 306 89 297 142 c 257
 261 142 l 257
 254 108 243 88 227 81 c 257
 210 68 186 62 154 62 c 256
 139 62 123 65 106 72 c 257
 93 81 87 91 87 100 c 257
 90 112 96 122 104 131 c 257
 166 182 l 258
 231 236 265 260 265 303 c 256
 265 326 259 345 248 360 c 257
 211 401 184 408 163 410 c 258
 138 412 l 258
 107 414 79 403 55 384 c 256
 31 365 19 339 19 305 c 257
 22 289 26 278 31 272 c 257
 42 263 53 258 63 258 c 257
 90 265 105 276 105 303 c 257
 100 313 l 257
 98 332 l 257
 102 346 109 355 119 360 c 257
 129 367 141 371 154 371 c 256
 197 371 225 350 225 314 c 256
 225 290 217 270 201 254 c 258
 170 224 l 257
 127 194 l 257
 84 160 l 258
 72 151 63 142 56 133 c 257
 39 116 31 98 31 78 c 256
 31 45 42 18 65 0 c 256
 88 -18 118 -26 154 -26 c 256
 186 -26 211 -20 228 -8 c 256
 247 7 264 27 278 54 c 257
 297 26 314 6 329 -7 c 256
 344 -20 368 -26 401 -26 c 256
 440 -26 472 -12 498 17 c 256
 514 36 525 62 531 95 c 257
 543 72 l 257
NamedP: "hr00"
1502 304 m 256
 1502 267 1477 238 1434 238 c 256
 1394 238 1365 268 1365 304 c 256
 1365 341 1395 371 1434 371 c 256
 1473 371 1502 341 1502 304 c 256
EndSplineSet
PickledDataWithLists: "(dp1
S'com.adobe.type.autohint'
p2
(S'data'
S'<data>\\n  <hintSetList>\\n    <hintset pointTag=\"hr00\">\\n      <hstem pos=\"-28\" width=\"95\"/>\\n      <hstem pos=\"-26\" width=\"88\"/>\\n      <hstem pos=\"144\" width=\"94\"/>\\n      <hstem pos=\"305\" width=\"103\"/>\\n      <hstem pos=\"371\" width=\"70\"/>\\n      <hstem pos=\"371\" width=\"41\"/>\\n      <vstem pos=\"19\" width=\"80\"/>\\n      <vstem pos=\"31\" width=\"56\"/>\\n      <vstem pos=\"225\" width=\"40\"/>\\n      <vstem pos=\"505\" width=\"30\"/>\\n      <vstem pos=\"828\" width=\"38\"/>\\n      <vstem pos=\"1010\" width=\"110\"/>\\n      <vstem pos=\"1156\" width=\"42\"/>\\n      <vstem pos=\"1329\" width=\"36\"/>\\n      <vstem pos=\"1502\" width=\"34\"/>\\n    </hintset>\\n  </hintSetList>\\n  </data>'
Ntp3
s."
EndChar

StartChar: uni0C61
Encoding: 192 3169 192
GlifName: uni0C61_
Width: 1115
VWidth: 0
Flags: W
LayerCount: 2
Back
Fore
SplineSet
565 463 m 257
NamedP: "hr00"
 579 449 591 426 600 395 c 257
 615 359 622 317 622 269 c 256
 622 122 561 41 469 41 c 256
 385 41 331 83 331 150 c 256
 331 179 362 227 423 292 c 256
 484 357 515 414 515 462 c 256
 515 566 463 629 390 629 c 256
 355 629 328 617 309 592 c 257
 287 553 l 258
 271 524 267 514 263 497 c 257
 245 545 229 577 215 592 c 257
 196 617 170 629 137 629 c 256
 64 629 19 560 19 445 c 256
 19 402 34 359 65 314 c 257
 95 314 l 257
 78 353 69 391 69 428 c 256
 69 499 100 541 140 541 c 256
 203 541 248 471 248 356 c 257
 283 356 l 257
 283 413 291 457 311 487 c 256
 331 517 354 532 379 532 c 256
 438 532 468 497 468 428 c 256
 468 404 439 361 381 300 c 256
 324 239 295 189 295 150 c 256
 295 87 313 41 348 12 c 256
 378 -13 418 -26 468 -26 c 256
 585 -26 660 79 660 255 c 256
 660 306 655 350 646 389 c 256
 637 428 628 452 619 462 c 257
 884 462 l 257
 868 444 860 419 860 387 c 256
 860 351 868 317 887 288 c 256
 905 260 932 247 964 247 c 256
 995 247 1019 262 1037 291 c 256
 1056 320 1065 355 1065 394 c 256
 1065 432 1053 467 1028 498 c 256
 1004 529 972 545 931 545 c 258
 592 545 l 257
 565 463 l 257
NamedP: "hr00"
966 462 m 256
 1010 462 1032 446 1032 414 c 256
 1032 405 1026 393 1014 379 c 257
 1002 371 986 367 966 367 c 256
 945 367 927 371 913 379 c 257
 902 388 895 399 893 413 c 257
 893 446 917 462 966 462 c 256
EndSplineSet
PickledDataWithLists: "(dp1
S'com.adobe.type.autohint'
p2
(S'data'
S'<data>\\n  <hintSetList>\\n    <hintset pointTag=\"hr00\">\\n      <hstem pos=\"-26\" width=\"67\"/>\\n      <hstem pos=\"247\" width=\"120\"/>\\n      <hstem pos=\"462\" width=\"83\"/>\\n      <hstem pos=\"532\" width=\"97\"/>\\n      <hstem pos=\"541\" width=\"88\"/>\\n      <vstem pos=\"19\" width=\"50\"/>\\n      <vstem pos=\"248\" width=\"35\"/>\\n      <vstem pos=\"295\" width=\"36\"/>\\n      <vstem pos=\"468\" width=\"47\"/>\\n      <vstem pos=\"622\" width=\"38\"/>\\n      <vstem pos=\"860\" width=\"33\"/>\\n      <vstem pos=\"1032\" width=\"33\"/>\\n    </hintset>\\n  </hintSetList>\\n  </data>'
Ntp3
s."
EndChar

StartChar: uni0C62
Encoding: 193 3170 193
GlifName: uni0C62_
Width: 11
VWidth: 0
Flags: W
LayerCount: 2
Back
Fore
SplineSet
-182 -281 m 256
NamedP: "hr00"
 -182 -250 -190 -225 -207 -204 c 256
 -225 -182 -253 -171 -292 -171 c 256
 -321 -171 -345 -180 -364 -197 c 256
 -375 -207 -388 -225 -401 -250 c 257
 -407 -241 -416 -224 -429 -199 c 257
 -444 -180 -470 -171 -505 -171 c 256
 -544 -171 -572 -185 -591 -213 c 256
 -604 -231 -610 -251 -610 -273 c 256
 -610 -309 -601 -335 -582 -350 c 256
 -579 -353 -575 -355 -570 -356 c 257
 -563 -356 -560 -355 -560 -354 c 256
 -560 -347 -560 -345 -561 -345 c 257
 -563 -339 -567 -331 -574 -322 c 257
 -579 -311 -582 -302 -582 -296 c 256
 -582 -257 -547 -227 -506 -227 c 256
 -481 -227 -460 -234 -443 -251 c 256
 -428 -266 -415 -288 -401 -317 c 257
 -382 -282 -370 -260 -363 -253 c 256
 -347 -236 -325 -227 -298 -227 c 256
 -259 -227 -224 -255 -224 -292 c 256
 -224 -316 -244 -339 -284 -360 c 256
 -321 -380 -358 -399 -395 -418 c 257
 -434 -446 -454 -478 -454 -515 c 256
 -454 -544 -446 -566 -429 -582 c 256
 -412 -599 -386 -608 -350 -608 c 256
 -283 -608 -243 -570 -243 -526 c 256
 -243 -503 -254 -490 -273 -490 c 256
 -288 -490 -300 -504 -309 -533 c 256
 -318 -562 -337 -577 -364 -577 c 256
 -400 -577 -425 -550 -425 -519 c 256
 -425 -484 -405 -452 -363 -432 c 258
 -245 -376 l 258
 -201 -355 -182 -320 -182 -281 c 256
NamedP: "hr00"
EndSplineSet
PickledDataWithLists: "(dp1
S'com.adobe.type.autohint'
p2
(S'data'
S'<data>\\n  <hintSetList>\\n    <hintset pointTag=\"hr00\">\\n      <hstem pos=\"-608\" width=\"31\"/>\\n      <hstem pos=\"-356\" width=\"11\"/>\\n      <hstem pos=\"-227\" width=\"56\"/>\\n      <vstem pos=\"-610\" width=\"28\"/>\\n      <vstem pos=\"-454\" width=\"29\"/>\\n      <vstem pos=\"-224\" width=\"42\"/>\\n    </hintset>\\n  </hintSetList>\\n  </data>'
Ntp3
s."
EndChar

StartChar: uni0C63
Encoding: 194 3171 194
GlifName: uni0C63_
Width: 6
VWidth: 0
Flags: W
LayerCount: 2
Back
Fore
SplineSet
-141 -488 m 256
NamedP: "hr00"
 -132 -497 -127 -506 -127 -517 c 256
 -127 -529 -132 -539 -142 -547 c 256
 -149 -552 -157 -555 -168 -555 c 256
 -180 -555 -189 -550 -192 -546 c 257
 -201 -539 -205 -528 -205 -515 c 256
 -205 -495 -188 -477 -168 -477 c 256
 -157 -477 -148 -481 -141 -488 c 256
NamedP: "hr00"
-354 -476 m 257
 -351 -481 -350 -485 -350 -490 c 257
 -347 -500 -346 -510 -346 -519 c 256
 -346 -538 -349 -552 -356 -562 c 256
 -365 -575 -380 -582 -401 -582 c 256
 -437 -582 -469 -552 -469 -521 c 256
 -469 -485 -449 -452 -406 -432 c 258
 -288 -377 l 257
 -247 -353 -226 -321 -226 -281 c 256
 -226 -250 -234 -225 -251 -204 c 256
 -269 -182 -298 -171 -337 -171 c 256
 -366 -171 -390 -180 -408 -197 c 256
 -419 -207 -431 -225 -445 -250 c 257
 -452 -241 -461 -224 -473 -199 c 257
 -488 -180 -514 -171 -550 -171 c 256
 -587 -171 -616 -185 -636 -213 c 256
 -649 -231 -655 -251 -655 -273 c 256
 -655 -309 -646 -335 -627 -350 c 256
 -624 -353 -620 -356 -615 -358 c 257
 -608 -358 -604 -357 -604 -354 c 256
 -604 -349 -605 -348 -606 -345 c 256
 -608 -339 -612 -331 -619 -322 c 257
 -624 -311 -627 -302 -627 -296 c 256
 -627 -257 -592 -228 -551 -228 c 256
 -526 -228 -505 -236 -488 -251 c 257
 -474 -266 -460 -288 -445 -317 c 257
 -426 -282 -414 -260 -408 -253 c 256
 -392 -236 -370 -228 -342 -228 c 256
 -303 -228 -268 -255 -268 -292 c 256
 -268 -316 -288 -339 -327 -360 c 256
 -364 -381 -402 -401 -440 -421 c 257
 -479 -447 -499 -479 -499 -517 c 256
 -499 -545 -491 -566 -474 -583 c 256
 -456 -601 -431 -610 -395 -610 c 256
 -368 -610 -345 -601 -328 -583 c 256
 -313 -568 -306 -549 -306 -526 c 256
 -306 -511 -309 -498 -315 -485 c 257
 -218 -485 l 257
 -229 -497 -233 -511 -233 -528 c 256
 -233 -557 -202 -591 -165 -591 c 256
 -132 -591 -101 -559 -101 -518 c 256
 -101 -477 -133 -447 -169 -447 c 258
 -331 -447 l 258
 -340 -447 -354 -456 -354 -469 c 258
 -354 -476 l 257
EndSplineSet
PickledDataWithLists: "(dp1
S'com.adobe.type.autohint'
p2
(S'data'
S'<data>\\n  <hintSetList>\\n    <hintset pointTag=\"hr00\">\\n      <hstem pos=\"-610\" width=\"28\"/>\\n      <hstem pos=\"-591\" width=\"36\"/>\\n      <hstem pos=\"-485\" width=\"38\"/>\\n      <hstem pos=\"-228\" width=\"57\"/>\\n      <vstem pos=\"-655\" width=\"28\"/>\\n      <vstem pos=\"-499\" width=\"30\"/>\\n      <vstem pos=\"-346\" width=\"40\"/>\\n      <vstem pos=\"-268\" width=\"42\"/>\\n      <vstem pos=\"-233\" width=\"28\"/>\\n      <vstem pos=\"-127\" width=\"26\"/>\\n    </hintset>\\n  </hintSetList>\\n  </data>'
Ntp3
s."
EndChar

StartChar: uni0C66
Encoding: 195 3174 195
GlifName: uni0C66_
Width: 532
VWidth: 0
Flags: W
LayerCount: 2
Back
Fore
SplineSet
414 229 m 256
NamedP: "hr00"
 414 182 399 143 369 110 c 256
 340 78 301 62 252 62 c 256
 201 62 160 78 131 110 c 256
 102 143 87 182 87 229 c 256
 87 276 102 317 132 350 c 256
 162 383 202 400 252 400 c 256
 306 400 348 382 377 347 c 256
 402 318 414 278 414 229 c 256
NamedP: "hr00"
482 206 m 256
 482 269 460 322 416 367 c 256
 373 412 318 435 252 435 c 256
 181 435 125 412 82 366 c 256
 40 320 19 267 19 206 c 256
 19 141 41 86 84 41 c 256
 128 -4 184 -26 252 -26 c 256
 322 -26 378 -3 419 43 c 256
 461 89 482 143 482 206 c 256
EndSplineSet
PickledDataWithLists: "(dp1
S'com.adobe.type.autohint'
p2
(S'data'
S'<data>\\n  <hintSetList>\\n    <hintset pointTag=\"hr00\">\\n      <hstem pos=\"-26\" width=\"88\"/>\\n      <hstem pos=\"400\" width=\"35\"/>\\n      <vstem pos=\"19\" width=\"68\"/>\\n      <vstem pos=\"414\" width=\"68\"/>\\n    </hintset>\\n  </hintSetList>\\n  </data>'
Ntp3
s."
EndChar

StartChar: uni0C67
Encoding: 196 3175 196
GlifName: uni0C67_
Width: 615
VWidth: 0
Flags: W
LayerCount: 2
Back
Fore
SplineSet
565 181 m 256
NamedP: "hr00"
 565 267 537 334 479 379 c 256
 431 417 368 435 293 435 c 256
 211 435 145 415 97 373 c 256
 44 328 19 263 19 181 c 256
 19 116 37 63 72 24 c 256
 103 -11 134 -28 165 -28 c 256
 191 -28 204 -17 204 5 c 257
 203 16 196 23 184 28 c 256
 153 43 129 60 111 78 c 256
 83 107 69 142 69 181 c 256
 69 224 86 264 124 297 c 256
 167 336 225 354 296 354 c 256
 364 354 414 333 454 294 c 256
 495 255 515 212 515 165 c 256
 515 119 500 85 469 62 c 257
 404 31 l 257
 389 18 381 7 381 -3 c 256
 381 -20 392 -28 413 -28 c 256
 450 -28 484 -8 516 31 c 256
 549 71 565 121 565 181 c 256
NamedP: "hr00"
EndSplineSet
PickledDataWithLists: "(dp1
S'com.adobe.type.autohint'
p2
(S'data'
S'<data>\\n  <hintSetList>\\n    <hintset pointTag=\"hr00\">\\n      <hstem pos=\"354\" width=\"81\"/>\\n      <vstem pos=\"19\" width=\"50\"/>\\n      <vstem pos=\"515\" width=\"50\"/>\\n    </hintset>\\n  </hintSetList>\\n  </data>'
Ntp3
s."
EndChar

StartChar: uni0C68
Encoding: 197 3176 197
GlifName: uni0C68_
Width: 692
VWidth: 0
Flags: W
LayerCount: 2
Back
Fore
SplineSet
466 296 m 256
NamedP: "hr00"
 466 248 423 217 386 217 c 256
 335 217 306 248 306 296 c 256
 306 348 339 373 386 373 c 256
 430 373 466 339 466 296 c 256
NamedP: "hr00"
642 212 m 256
 642 274 619 324 573 363 c 256
 527 402 462 421 379 421 c 256
 342 421 313 406 292 377 c 256
 271 348 261 322 261 299 c 256
 261 228 307 179 379 179 c 256
 412 179 441 191 466 214 c 256
 492 237 505 265 505 296 c 256
 505 319 497 340 481 359 c 257
 512 359 540 342 563 309 c 256
 586 276 598 244 598 212 c 256
 598 167 581 129 548 98 c 256
 515 68 476 53 432 53 c 258
 19 53 l 257
 19 -26 l 257
 416 -26 l 258
 490 -26 546 -4 584 41 c 256
 623 86 642 143 642 212 c 256
EndSplineSet
PickledDataWithLists: "(dp1
S'com.adobe.type.autohint'
p2
(S'data'
S'<data>\\n  <hintSetList>\\n    <hintset pointTag=\"hr00\">\\n      <hstem pos=\"-26\" width=\"79\"/>\\n      <hstem pos=\"179\" width=\"38\"/>\\n      <hstem pos=\"373\" width=\"48\"/>\\n      <vstem pos=\"261\" width=\"45\"/>\\n      <vstem pos=\"466\" width=\"39\"/>\\n      <vstem pos=\"598\" width=\"44\"/>\\n    </hintset>\\n  </hintSetList>\\n  </data>'
Ntp3
s."
EndChar

StartChar: uni0C69
Encoding: 198 3177 198
GlifName: uni0C69_
Width: 466
VWidth: 0
Flags: W
LayerCount: 2
Back
Fore
SplineSet
416 96 m 256
NamedP: "hr00"
 416 144 378 180 302 205 c 257
 339 219 364 234 379 250 c 256
 396 268 404 291 404 318 c 256
 404 383 334 435 233 435 c 256
 134 435 72 391 72 335 c 257
 74 324 77 316 82 312 c 257
 107 308 l 257
 130 308 142 317 142 335 c 256
 142 372 188 400 237 400 c 256
 309 400 350 361 350 314 c 256
 350 259 312 231 237 231 c 258
 154 231 l 257
 154 163 l 257
 255 163 l 258
 308 163 350 125 350 85 c 256
 350 32 296 3 220 3 c 256
 199 3 177 8 154 18 c 257
 133 31 115 42 104 54 c 256
 74 84 62 93 41 85 c 256
 26 80 19 69 19 54 c 257
 25 40 l 257
 63 -4 128 -26 220 -26 c 256
 287 -26 339 -15 369 6 c 256
 401 28 416 59 416 96 c 256
NamedP: "hr00"
EndSplineSet
PickledDataWithLists: "(dp1
S'com.adobe.type.autohint'
p2
(S'data'
S'<data>\\n  <hintSetList>\\n    <hintset pointTag=\"hr00\">\\n      <hstem pos=\"-26\" width=\"29\"/>\\n      <hstem pos=\"163\" width=\"68\"/>\\n      <hstem pos=\"400\" width=\"35\"/>\\n      <vstem pos=\"72\" width=\"70\"/>\\n      <vstem pos=\"350\" width=\"54\"/>\\n      <vstem pos=\"350\" width=\"66\"/>\\n    </hintset>\\n  </hintSetList>\\n  </data>'
Ntp3
s."
EndChar

StartChar: uni0C6A
Encoding: 199 3178 199
GlifName: uni0C6A_
Width: 498
VWidth: 0
Flags: W
LayerCount: 2
Back
Fore
SplineSet
268 90 m 256
NamedP: "hr00"
 268 53 252 35 219 35 c 257
 188 40 171 58 172 90 c 256
 172 105 178 117 186 126 c 257
 194 138 205 144 220 144 c 256
 253 144 268 119 268 90 c 256
NamedP: "hr00"
450 371 m 256
 450 406 445 433 434 453 c 257
 419 469 405 477 392 477 c 256
 363 477 348 462 348 431 c 257
 375 388 l 257
 384 365 388 345 388 328 c 256
 390 269 307 170 218 174 c 256
 177 176 145 185 120 208 c 256
 98 230 87 258 87 291 c 257
 90 306 97 324 107 345 c 257
 120 364 127 378 127 388 c 256
 127 415 115 429 92 429 c 256
 53 429 19 376 19 312 c 256
 19 240 63 185 152 147 c 257
 128 126 116 100 116 71 c 256
 116 43 126 19 145 0 c 257
 166 -17 189 -26 213 -26 c 256
 282 -26 323 17 323 76 c 256
 323 111 308 138 278 155 c 257
 393 200 450 272 450 371 c 256
EndSplineSet
PickledDataWithLists: "(dp1
S'com.adobe.type.autohint'
p2
(S'data'
S'<data>\\n  <hintSetList>\\n    <hintset pointTag=\"hr00\">\\n      <hstem pos=\"-26\" width=\"61\"/>\\n      <hstem pos=\"144\" width=\"30\"/>\\n      <vstem pos=\"19\" width=\"68\"/>\\n      <vstem pos=\"116\" width=\"56\"/>\\n      <vstem pos=\"268\" width=\"55\"/>\\n      <vstem pos=\"388\" width=\"62\"/>\\n    </hintset>\\n  </hintSetList>\\n  </data>'
Ntp3
s."
EndChar

StartChar: uni0C6B
Encoding: 200 3179 200
GlifName: uni0C6B_
Width: 589
VWidth: 0
Flags: W
LayerCount: 2
Back
Fore
SplineSet
379 326 m 256
NamedP: "hr00"
 379 266 363 236 331 236 c 256
 298 236 278 274 278 326 c 256
 278 347 283 365 292 379 c 257
 306 391 318 397 329 397 c 256
 362 395 379 371 379 326 c 256
NamedP: "hr00"
492 100 m 257
 497 77 l 257
 497 53 l 258
 497 10 473 3 461 3 c 256
 434 3 425 34 420 95 c 257
 417 102 416 118 416 145 c 256
 416 190 411 202 388 214 c 257
 414 238 427 268 427 305 c 256
 427 341 416 371 397 397 c 256
 379 421 359 435 334 435 c 256
 305 435 281 423 262 399 c 256
 243 376 234 348 234 317 c 256
 234 282 244 251 263 226 c 257
 214 212 l 257
 206 249 197 283 186 313 c 257
 163 350 141 379 119 399 c 256
 93 424 72 435 57 435 c 256
 32 435 19 423 19 399 c 257
 20 390 41 371 83 342 c 257
 110 327 133 305 150 276 c 256
 163 253 172 226 177 195 c 257
 84 148 28 80 28 36 c 256
 28 11 39 -1 61 -1 c 256
 79 -1 92 4 100 15 c 258
 143 79 l 257
 173 118 l 257
 200 145 l 258
 216 161 236 174 259 183 c 256
 284 194 301 200 311 200 c 256
 324 200 332 194 334 181 c 257
 339 172 340 159 341 144 c 258
 343 88 l 258
 344 54 351 26 370 5 c 256
 389 -17 413 -26 440 -26 c 256
 499 -26 541 21 541 100 c 257
 492 100 l 257
EndSplineSet
PickledDataWithLists: "(dp1
S'com.adobe.type.autohint'
p2
(S'data'
S'<data>\\n  <hintSetList>\\n    <hintset pointTag=\"hr00\">\\n      <hstem pos=\"-26\" width=\"29\"/>\\n      <hstem pos=\"20\" width=\"-21\"/>\\n      <hstem pos=\"200\" width=\"36\"/>\\n      <hstem pos=\"397\" width=\"38\"/>\\n      <vstem pos=\"234\" width=\"44\"/>\\n      <vstem pos=\"343\" width=\"73\"/>\\n      <vstem pos=\"379\" width=\"48\"/>\\n      <vstem pos=\"497\" width=\"44\"/>\\n    </hintset>\\n  </hintSetList>\\n  </data>'
Ntp3
s."
EndChar

StartChar: uni0C6C
Encoding: 201 3180 201
GlifName: uni0C6C_
Width: 673
VWidth: 0
Flags: W
LayerCount: 2
Back
Fore
SplineSet
623 55 m 257
NamedP: "hr00"
 165 55 l 258
 152 55 142 57 134 60 c 257
 110 73 l 257
 98 86 92 99 92 114 c 256
 92 150 122 172 165 172 c 258
 357 172 l 257
 357 256 l 257
 154 256 l 258
 111 256 81 282 81 318 c 256
 81 367 115 397 183 397 c 257
 183 435 l 257
 120 435 77 422 52 399 c 256
 31 378 19 352 19 319 c 256
 19 266 55 221 98 209 c 257
 46 185 22 141 22 92 c 256
 22 23 72 -26 147 -26 c 258
 623 -26 l 257
 623 55 l 257
NamedP: "hr00"
EndSplineSet
PickledDataWithLists: "(dp1
S'com.adobe.type.autohint'
p2
(S'data'
S'<data>\\n  <hintSetList>\\n    <hintset pointTag=\"hr00\">\\n      <hstem pos=\"-26\" width=\"81\"/>\\n      <hstem pos=\"172\" width=\"84\"/>\\n      <hstem pos=\"397\" width=\"38\"/>\\n      <vstem pos=\"19\" width=\"62\"/>\\n      <vstem pos=\"22\" width=\"70\"/>\\n    </hintset>\\n  </hintSetList>\\n  </data>'
Ntp3
s."
EndChar

StartChar: uni0C6D
Encoding: 202 3181 202
GlifName: uni0C6D_
Width: 523
VWidth: 0
Flags: W
LayerCount: 2
Back
Fore
SplineSet
474 110 m 256
NamedP: "hr00"
 474 129 463 138 441 138 c 257
 411 127 l 257
 404 123 400 116 400 105 c 256
 400 36 331 3 234 3 c 256
 209 3 177 11 141 31 c 256
 109 49 95 72 95 96 c 257
 97 114 105 128 119 137 c 257
 149 162 195 174 256 174 c 256
 289 174 317 181 346 185 c 257
 374 193 397 202 414 213 c 256
 454 241 474 275 474 314 c 256
 474 353 454 382 418 406 c 256
 382 429 337 442 279 442 c 256
 222 442 174 429 137 404 c 256
 100 379 82 349 82 314 c 257
 87 291 101 278 122 279 c 256
 145 280 156 293 156 314 c 256
 156 342 170 365 199 382 c 256
 228 399 260 408 293 408 c 256
 330 408 361 398 386 381 c 256
 412 363 425 343 425 318 c 256
 425 265 368 238 254 238 c 256
 157 238 91 217 52 178 c 256
 31 156 19 134 19 110 c 256
 19 66 42 32 88 9 c 256
 134 -14 188 -26 251 -26 c 256
 316 -26 370 -15 411 10 c 256
 454 36 474 70 474 110 c 256
NamedP: "hr00"
EndSplineSet
PickledDataWithLists: "(dp1
S'com.adobe.type.autohint'
p2
(S'data'
S'<data>\\n  <hintSetList>\\n    <hintset pointTag=\"hr00\">\\n      <hstem pos=\"-26\" width=\"29\"/>\\n      <hstem pos=\"174\" width=\"64\"/>\\n      <hstem pos=\"408\" width=\"34\"/>\\n      <vstem pos=\"19\" width=\"76\"/>\\n      <vstem pos=\"82\" width=\"74\"/>\\n      <vstem pos=\"400\" width=\"74\"/>\\n      <vstem pos=\"425\" width=\"49\"/>\\n    </hintset>\\n  </hintSetList>\\n  </data>'
Ntp3
s."
EndChar

StartChar: uni0C6E
Encoding: 203 3182 203
GlifName: uni0C6E_
Width: 666
VWidth: 0
Flags: W
LayerCount: 2
Back
Fore
SplineSet
616 435 m 257
NamedP: "hr00"
 255 435 l 257
 298 392 322 366 327 355 c 257
 347 322 357 280 357 229 c 256
 357 112 311 53 218 53 c 256
 127 53 81 105 81 209 c 256
 81 228 88 247 101 267 c 257
 136 309 l 257
 161 332 l 257
 161 353 152 364 133 364 c 256
 108 364 82 346 57 311 c 256
 32 276 19 238 19 195 c 256
 19 128 40 73 82 31 c 256
 119 -7 165 -26 219 -26 c 256
 276 -26 322 -6 357 33 c 256
 393 72 411 125 411 192 c 256
 411 233 406 273 395 310 c 257
 375 356 l 257
 616 356 l 257
 616 435 l 257
NamedP: "hr00"
EndSplineSet
PickledDataWithLists: "(dp1
S'com.adobe.type.autohint'
p2
(S'data'
S'<data>\\n  <hintSetList>\\n    <hintset pointTag=\"hr00\">\\n      <hstem pos=\"-26\" width=\"79\"/>\\n      <hstem pos=\"356\" width=\"79\"/>\\n      <vstem pos=\"19\" width=\"62\"/>\\n      <vstem pos=\"357\" width=\"54\"/>\\n    </hintset>\\n  </hintSetList>\\n  </data>'
Ntp3
s."
EndChar

StartChar: uni0C6F
Encoding: 204 3183 204
GlifName: uni0C6F_
Width: 673
VWidth: 0
Flags: W
LayerCount: 2
Back
Fore
SplineSet
623 435 m 257
NamedP: "hr00"
 148 435 l 258
 107 435 76 422 55 397 c 256
 34 372 23 346 23 318 c 256
 23 266 48 227 97 201 c 257
 52 188 19 139 19 90 c 256
 19 18 72 -26 183 -26 c 257
 183 12 l 257
 150 12 125 19 107 33 c 257
 90 51 82 70 82 90 c 256
 82 133 106 155 155 155 c 258
 357 155 l 257
 357 238 l 257
 165 238 l 258
 140 238 122 243 109 254 c 257
 98 269 92 283 92 296 c 256
 92 335 116 354 165 354 c 258
 623 354 l 257
 623 435 l 257
NamedP: "hr00"
EndSplineSet
PickledDataWithLists: "(dp1
S'com.adobe.type.autohint'
p2
(S'data'
S'<data>\\n  <hintSetList>\\n    <hintset pointTag=\"hr00\">\\n      <hstem pos=\"-26\" width=\"38\"/>\\n      <hstem pos=\"155\" width=\"83\"/>\\n      <hstem pos=\"354\" width=\"81\"/>\\n      <vstem pos=\"19\" width=\"63\"/>\\n      <vstem pos=\"23\" width=\"69\"/>\\n    </hintset>\\n  </hintSetList>\\n  </data>'
Ntp3
s."
EndChar

StartChar: uni0C78
Encoding: 205 3192 205
GlifName: uni0C78_
Width: 446
VWidth: 0
Flags: W
LayerCount: 2
Back
Fore
SplineSet
61 277 m 256
NamedP: "hr00"
 61 364 142 421 213 421 c 256
 293 421 366 358 366 273 c 256
 366 190 285 127 213 129 c 256
 146 130 61 168 61 277 c 256
NamedP: "hr00"
12 263 m 256
 12 131 103 50 213 50 c 256
 243 50 271 56 297 67 c 257
 298 67 l 257
 324 54 l 257
 343 41 353 26 353 8 c 256
 353 -13 336 -32 277 -65 c 256
 249 -81 220 -94 191 -106 c 257
 171 -118 l 257
 160 -118 154 -126 154 -137 c 256
 154 -149 164 -160 179 -160 c 256
 182 -160 186 -160 189 -159 c 258
 224 -144 l 258
 249 -133 278 -117 311 -97 c 256
 344 -78 369 -59 384 -42 c 256
 400 -25 408 -8 408 10 c 256
 408 46 381 67 356 86 c 257
 340 94 l 257
 349 99 355 104 358 109 c 257
 394 146 416 197 415 260 c 256
 413 374 330 460 212 462 c 256
 87 464 12 363 12 263 c 256
EndSplineSet
PickledDataWithLists: "(dp1
S'com.adobe.type.autohint'
p2
(S'data'
S'<data>\\n  <hintSetList>\\n    <hintset pointTag=\"hr00\">\\n      <hstem pos=\"-160\" width=\"42\"/>\\n      <hstem pos=\"50\" width=\"79\"/>\\n      <hstem pos=\"421\" width=\"41\"/>\\n      <vstem pos=\"12\" width=\"49\"/>\\n      <vstem pos=\"353\" width=\"55\"/>\\n      <vstem pos=\"366\" width=\"49\"/>\\n    </hintset>\\n  </hintSetList>\\n  </data>'
Ntp3
s."
EndChar

StartChar: uni0C79
Encoding: 206 3193 206
GlifName: uni0C79_
Width: 92
VWidth: 0
Flags: W
LayerCount: 2
Back
Fore
SplineSet
59 8 m 257
NamedP: "hr00"
 59 13 l 257
 59 450 l 257
 59 451 58 458 58 458 c 257
 57 466 47 471 36 471 c 256
 9 471 12 449 12 450 c 257
 12 13 l 258
 12 9 6 -6 36 -6 c 256
 48 -6 58 -2 59 5 c 258
 59 8 l 257
NamedP: "hr00"
EndSplineSet
PickledDataWithLists: "(dp1
S'com.adobe.type.autohint'
p2
(S'data'
S'<data>\\n  <hintSetList>\\n    <hintset pointTag=\"hr00\">\\n      <hstem pos=\"458\" width=\"13\"/>\\n      <vstem pos=\"12\" width=\"47\"/>\\n    </hintset>\\n  </hintSetList>\\n  </data>'
Ntp3
s."
EndChar

StartChar: uni0C7A
Encoding: 207 3194 207
GlifName: uni0C7A_
Width: 289
VWidth: 0
Flags: W
LayerCount: 2
Back
Fore
SplineSet
257 14 m 257
NamedP: "hr00"
 257 477 l 257
 256 486 l 257
 253 497 243 503 230 503 c 256
 201 503 206 476 206 476 c 257
 206 269 l 257
 186 257 160 251 131 251 c 257
 95 255 63 262 63 318 c 258
 63 477 l 257
 62 486 l 258
 61 497 50 503 38 503 c 256
 6 503 12 475 12 477 c 258
 12 321 l 258
 12 235 77 206 130 206 c 257
 159 202 196 215 206 219 c 257
 206 14 l 257
 206 15 201 -9 230 -9 c 256
 243 -9 253 -3 256 5 c 257
 257 14 l 257
NamedP: "hr00"
EndSplineSet
PickledDataWithLists: "(dp1
S'com.adobe.type.autohint'
p2
(S'data'
S'<data>\\n  <hintSetList>\\n    <hintset pointTag=\"hr00\">\\n      <hstem pos=\"206\" width=\"45\"/>\\n      <hstem pos=\"476\" width=\"27\"/>\\n      <vstem pos=\"12\" width=\"51\"/>\\n      <vstem pos=\"206\" width=\"51\"/>\\n    </hintset>\\n  </hintSetList>\\n  </data>'
Ntp3
s."
EndChar

StartChar: uni0C7B
Encoding: 208 3195 208
GlifName: uni0C7B_
Width: 475
VWidth: 0
Flags: W
LayerCount: 2
Back
Fore
SplineSet
444 10 m 257
NamedP: "hr00"
 444 10 444 11 444 14 c 258
 444 472 l 257
 444 479 l 257
 440 490 430 495 418 495 c 256
 406 495 394 488 394 479 c 258
 394 472 l 257
 394 264 l 257
 375 253 348 249 321 249 c 256
 286 249 253 261 253 313 c 258
 253 473 l 257
 253 479 l 258
 253 490 243 495 227 495 c 256
 218 495 204 488 203 479 c 258
 203 473 l 257
 203 315 l 257
 203 312 l 258
 203 268 181 249 130 249 c 256
 92 249 62 261 62 313 c 258
 62 474 l 257
 62 479 l 258
 61 490 50 496 38 496 c 256
 23 496 13 488 12 479 c 258
 12 474 l 257
 12 315 l 258
 12 232 76 203 130 203 c 256
 167 203 197 213 220 232 c 257
 223 236 227 239 230 240 c 257
 232 237 235 233 239 229 c 256
 263 210 292 203 321 203 c 256
 347 203 384 212 394 215 c 257
 394 14 l 257
 394 15 387 -9 418 -9 c 256
 430 -9 440 -3 444 5 c 257
 444 10 l 257
NamedP: "hr00"
EndSplineSet
PickledDataWithLists: "(dp1
S'com.adobe.type.autohint'
p2
(S'data'
S'<data>\\n  <hintSetList>\\n    <hintset pointTag=\"hr00\">\\n      <hstem pos=\"203\" width=\"46\"/>\\n      <vstem3 stem3List=\"12,50,203,50,394,50\"/>\\n    </hintset>\\n  </hintSetList>\\n  </data>'
Ntp3
s."
EndChar

StartChar: uni0C7C
Encoding: 209 3196 209
GlifName: uni0C7C_
Width: 564
VWidth: 0
Flags: W
LayerCount: 2
Back
Fore
SplineSet
34 291 m 257
NamedP: "hr00"
 38 291 l 257
 507 291 l 257
 512 292 516 292 520 292 c 257
 528 296 533 303 533 314 c 256
 533 347 508 341 508 341 c 257
 38 341 l 258
 33 341 31 341 26 340 c 256
 17 337 12 329 12 314 c 256
 12 303 18 296 26 291 c 257
 34 291 l 257
NamedP: "hr00"
EndSplineSet
PickledDataWithLists: "(dp1
S'com.adobe.type.autohint'
p2
(S'data'
S'<data>\\n  <hintSetList>\\n    <hintset pointTag=\"hr00\">\\n      <hstem pos=\"291\" width=\"50\"/>\\n      <vstem pos=\"12\" width=\"521\"/>\\n      <vstem pos=\"508\" width=\"25\"/>\\n    </hintset>\\n  </hintSetList>\\n  </data>'
Ntp3
s."
EndChar

StartChar: uni0C7D
Encoding: 210 3197 210
GlifName: uni0C7D_
Width: 665
VWidth: 0
Flags: W
LayerCount: 2
Back
Fore
SplineSet
602 9 m 257
NamedP: "hr00"
 603 9 609 4 624 16 c 256
 631 21 634 30 634 43 c 256
 635 56 631 65 623 69 c 256
 615 74 609 76 606 76 c 258
 600 76 l 257
 193 76 l 258
 122 76 86 103 86 131 c 256
 86 156 100 174 221 203 c 256
 257 211 285 221 307 231 c 256
 378 263 402 301 402 346 c 256
 402 418 348 462 256 462 c 258
 44 462 l 257
 38 462 l 258
 33 462 30 461 27 460 c 256
 17 456 12 448 12 435 c 256
 12 422 17 413 27 409 c 256
 32 407 36 406 41 406 c 258
 48 406 l 257
 256 406 l 258
 308 406 336 383 336 347 c 256
 336 340 335 331 331 324 c 256
 324 311 307 294 268 281 c 256
 249 274 223 267 188 258 c 256
 153 249 125 240 102 231 c 256
 34 205 17 179 17 133 c 256
 17 50 80 9 225 9 c 258
 602 9 l 257
NamedP: "hr00"
EndSplineSet
PickledDataWithLists: "(dp1
S'com.adobe.type.autohint'
p2
(S'data'
S'<data>\\n  <hintSetList>\\n    <hintset pointTag=\"hr00\">\\n      <hstem pos=\"9\" width=\"67\"/>\\n      <hstem pos=\"406\" width=\"56\"/>\\n      <vstem pos=\"17\" width=\"69\"/>\\n      <vstem pos=\"336\" width=\"66\"/>\\n    </hintset>\\n  </hintSetList>\\n  </data>'
Ntp3
s."
EndChar

StartChar: uni0C7E
Encoding: 211 3198 211
GlifName: uni0C7E_
Width: 653
VWidth: 0
Flags: W
LayerCount: 2
Back
Fore
SplineSet
599 9 m 258
NamedP: "hr00"
 615 9 621 29 621 46 c 256
 621 65 612 62 599 65 c 257
 589 65 l 257
 215 65 l 258
 210 65 200 65 185 66 c 256
 170 67 161 67 156 67 c 256
 148 67 133 63 110 78 c 256
 99 86 95 94 98 103 c 257
 98 110 100 113 107 114 c 257
 114 118 117 118 122 119 c 256
 137 123 137 122 145 122 c 257
 265 138 297 151 297 205 c 256
 297 244 268 262 221 268 c 256
 193 272 189 271 166 271 c 256
 126 271 102 276 90 277 c 257
 75 280 76 286 76 291 c 256
 76 299 78 303 90 306 c 257
 97 310 103 312 118 312 c 257
 166 317 l 258
 253 326 277 351 277 394 c 256
 277 421 267 435 244 447 c 256
 221 459 192 463 145 463 c 258
 34 463 l 257
 26 462 l 257
 15 462 12 452 12 441 c 256
 12 413 34 418 36 418 c 258
 145 418 l 257
 174 415 l 257
 198 414 l 258
 213 413 221 406 221 397 c 256
 221 376 196 366 118 357 c 256
 64 351 36 340 26 318 c 257
 21 310 21 299 21 290 c 256
 21 243 62 221 163 221 c 256
 216 221 240 218 240 201 c 257
 238 191 225 181 189 177 c 258
 138 171 l 258
 69 163 40 138 40 94 c 256
 40 27 104 10 174 10 c 256
 183 10 207 9 216 9 c 258
 589 9 l 257
 599 9 l 258
NamedP: "hr00"
EndSplineSet
PickledDataWithLists: "(dp1
S'com.adobe.type.autohint'
p2
(S'data'
S'<data>\\n  <hintSetList>\\n    <hintset pointTag=\"hr00\">\\n      <hstem pos=\"9\" width=\"56\"/>\\n      <hstem pos=\"122\" width=\"52\"/>\\n      <hstem pos=\"221\" width=\"50\"/>\\n      <hstem pos=\"418\" width=\"45\"/>\\n      <vstem pos=\"21\" width=\"55\"/>\\n      <vstem pos=\"40\" width=\"58\"/>\\n      <vstem pos=\"221\" width=\"56\"/>\\n      <vstem pos=\"240\" width=\"57\"/>\\n    </hintset>\\n  </hintSetList>\\n  </data>'
Ntp3
s."
EndChar

StartChar: uni0C7F
Encoding: 212 3199 212
GlifName: uni0C7F_
Width: 710
VWidth: 0
Flags: W
LayerCount: 2
Back
Fore
SplineSet
224 358 m 256
NamedP: "hr00"
 224 323 206 303 175 303 c 256
 139 303 122 327 122 360 c 256
 122 369 127 383 134 394 c 257
 142 403 155 415 172 415 c 256
 191 415 204 403 211 394 c 257
 220 376 l 258
 223 370 224 364 224 358 c 256
NamedP: "hr00"
676 226 m 257
 678 228 679 230 679 233 c 256
 679 249 660 263 645 263 c 256
 639 263 635 262 633 259 c 258
 624 250 l 257
 604 219 585 196 567 179 c 256
 548 162 521 141 486 117 c 256
 452 93 422 81 395 79 c 256
 370 77 365 76 333 76 c 256
 254 76 184 94 136 123 c 256
 88 152 57 219 57 286 c 256
 57 325 63 340 65 345 c 256
 72 360 77 368 89 383 c 257
 85 370 85 361 85 353 c 256
 85 295 123 256 175 256 c 257
 212 260 266 287 267 349 c 256
 267 365 265 380 262 395 c 257
 257 408 250 418 243 427 c 256
 226 446 197 458 165 458 c 256
 138 458 117 453 100 445 c 256
 44 419 12 358 12 285 c 256
 12 197 50 124 93 89 c 256
 137 54 165 39 204 26 c 256
 243 14 286 8 333 8 c 256
 414 8 487 29 570 92 c 256
 609 122 647 161 671 215 c 258
 676 226 l 257
EndSplineSet
PickledDataWithLists: "(dp1
S'com.adobe.type.autohint'
p2
(S'data'
S'<data>\\n  <hintSetList>\\n    <hintset pointTag=\"hr00\">\\n      <hstem pos=\"8\" width=\"68\"/>\\n      <hstem pos=\"256\" width=\"47\"/>\\n      <hstem pos=\"415\" width=\"43\"/>\\n      <vstem pos=\"12\" width=\"45\"/>\\n      <vstem pos=\"85\" width=\"37\"/>\\n      <vstem pos=\"224\" width=\"43\"/>\\n    </hintset>\\n  </hintSetList>\\n  </data>'
Ntp3
s."
EndChar

StartChar: afii61664
Encoding: 213 8204 213
GlifName: afii61664
Width: 0
VWidth: 0
Flags: W
LayerCount: 2
Back
Fore
SplineSet
45 -253 m 257
NamedP: "hr00"
 45 640 l 257
 0 640 l 257
 0 -253 l 257
 45 -253 l 257
NamedP: "hr00"
EndSplineSet
PickledDataWithLists: "(dp1
S'com.adobe.type.autohint'
p2
(S'data'
S'<data>\\n  <hintSetList>\\n    <hintset pointTag=\"hr00\">\\n      <hstem pos=\"-253\" width=\"893\"/>\\n      <vstem pos=\"0\" width=\"45\"/>\\n    </hintset>\\n  </hintSetList>\\n  </data>'
Ntp3
s."
EndChar

StartChar: afii301
Encoding: 214 8205 214
GlifName: afii301
Width: 0
VWidth: 0
Flags: W
LayerCount: 2
Back
Fore
SplineSet
45 -253 m 257
NamedP: "hr00"
 45 600 l 257
 172 600 l 257
 172 640 l 257
 0 640 l 257
 0 -253 l 257
 45 -253 l 257
NamedP: "hr00"
EndSplineSet
PickledDataWithLists: "(dp1
S'com.adobe.type.autohint'
p2
(S'data'
S'<data>\\n  <hintSetList>\\n    <hintset pointTag=\"hr00\">\\n      <hstem pos=\"600\" width=\"40\"/>\\n      <vstem pos=\"0\" width=\"45\"/>\\n    </hintset>\\n  </hintSetList>\\n  </data>'
Ntp3
s."
EndChar

StartChar: uni20B9
Encoding: 215 8377 215
GlifName: uni20B9_
Width: 538
VWidth: 0
Flags: W
LayerCount: 2
Back
Fore
SplineSet
60 695 m 257
NamedP: "hr00"
 19 626 l 257
 146 626 l 258
 190 626 211 614 228 597 c 256
 245 580 254 575 263 544 c 257
 60 544 l 257
 19 474 l 257
 278 474 l 257
 271 461 264 417 243 389 c 256
 232 375 218 364 201 356 c 256
 166 340 129 332 92 333 c 258
 41 335 l 257
 41 273 l 257
 265 -35 l 257
 369 -35 l 257
 143 285 l 257
 219 285 297 326 334 386 c 256
 350 411 359 443 366 474 c 257
 446 474 l 257
 484 544 l 257
 364 544 l 257
 353 575 351 595 328 626 c 257
 446 626 l 257
 484 695 l 257
 60 695 l 257
NamedP: "hr00"
EndSplineSet
PickledDataWithLists: "(dp1
S'com.adobe.type.autohint'
p2
(S'data'
S'<data>\\n  <hintSetList>\\n    <hintset pointTag=\"hr00\">\\n      <hstem pos=\"285\" width=\"48\"/>\\n      <hstem pos=\"474\" width=\"70\"/>\\n      <hstem pos=\"626\" width=\"69\"/>\\n      <vstem pos=\"19\" width=\"465\"/>\\n    </hintset>\\n  </hintSetList>\\n  </data>'
Ntp3
s."
EndChar

StartChar: uni2103
Encoding: 216 8451 216
GlifName: uni2103
Width: 985
VWidth: 0
Flags: W
LayerCount: 2
Back
Fore
SplineSet
186 541 m 256
NamedP: "hr00"
 149 541 118 573 118 612 c 256
 118 652 149 683 186 683 c 256
 223 683 255 652 255 612 c 256
 255 573 223 541 186 541 c 256
NamedP: "hr00"
186 722 m 256
 125 722 76 673 76 612 c 256
 76 583 87 557 108 536 c 256
 130 515 156 504 186 504 c 256
 217 504 243 515 265 536 c 256
 287 557 298 583 298 612 c 256
 298 673 247 722 186 722 c 256
845 153 m 257
 790 78 714 36 630 36 c 256
 561 36 500 62 447 115 c 256
 394 168 367 230 367 303 c 256
 367 374 393 436 444 489 c 256
 495 542 557 569 629 569 c 256
 660 569 692 563 725 551 c 256
 774 532 814 502 843 459 c 257
 902 459 l 257
 889 490 860 521 817 553 c 256
 762 594 699 614 630 614 c 256
 542 614 467 584 406 524 c 256
 345 465 314 391 314 303 c 256
 314 216 345 142 408 83 c 256
 471 24 545 -6 630 -6 c 256
 684 -6 735 7 782 33 c 256
 836 63 876 103 903 153 c 257
 845 153 l 257
EndSplineSet
PickledDataWithLists: "(dp1
S'com.adobe.type.autohint'
p2
(S'data'
S'<data>\\n  <hintSetList>\\n    <hintset pointTag=\"hr00\">\\n      <hstem pos=\"-6\" width=\"42\"/>\\n      <hstem pos=\"504\" width=\"37\"/>\\n      <hstem pos=\"569\" width=\"45\"/>\\n      <hstem pos=\"683\" width=\"39\"/>\\n      <vstem pos=\"76\" width=\"42\"/>\\n      <vstem pos=\"255\" width=\"43\"/>\\n      <vstem pos=\"314\" width=\"53\"/>\\n    </hintset>\\n  </hintSetList>\\n  </data>'
Ntp3
s."
EndChar

StartChar: uni2109
Encoding: 217 8457 217
GlifName: uni2109
Width: 748
VWidth: 0
Flags: W
LayerCount: 2
Back
Fore
SplineSet
420 4 m 257
NamedP: "hr00"
 420 283 l 257
 658 283 l 257
 658 327 l 257
 420 327 l 257
 420 560 l 257
 668 560 l 257
 668 604 l 257
 367 604 l 257
 367 4 l 257
 420 4 l 257
NamedP: "hr00"
186 541 m 256
 149 541 118 573 118 612 c 256
 118 652 149 683 186 683 c 256
 223 683 255 652 255 612 c 256
 255 573 223 541 186 541 c 256
186 722 m 256
 125 722 76 673 76 612 c 256
 76 583 87 557 108 536 c 256
 130 515 156 504 186 504 c 256
 217 504 243 515 265 536 c 256
 287 557 298 583 298 612 c 256
 298 673 247 722 186 722 c 256
EndSplineSet
PickledDataWithLists: "(dp1
S'com.adobe.type.autohint'
p2
(S'data'
S'<data>\\n  <hintSetList>\\n    <hintset pointTag=\"hr00\">\\n      <hstem pos=\"283\" width=\"44\"/>\\n      <hstem pos=\"504\" width=\"37\"/>\\n      <hstem pos=\"560\" width=\"44\"/>\\n      <hstem pos=\"683\" width=\"39\"/>\\n      <vstem pos=\"76\" width=\"42\"/>\\n      <vstem pos=\"255\" width=\"43\"/>\\n      <vstem pos=\"367\" width=\"53\"/>\\n    </hintset>\\n  </hintSetList>\\n  </data>'
Ntp3
s."
EndChar

StartChar: onethird
Encoding: 218 8531 218
GlifName: onethird
Width: 805
VWidth: 0
Flags: W
LayerCount: 2
Back
Fore
SplineSet
515 117 m 258
NamedP: "hr00"
 515 40 569 -5 657 -5 c 256
 745 -5 798 37 798 112 c 256
 798 161 764 200 743 204 c 257
 756 212 784 244 784 283 c 256
 784 344 738 383 659 383 c 256
 580 383 533 343 528 262 c 257
 582 262 l 257
 583 318 611 342 659 342 c 256
 703 342 729 318 729 283 c 256
 729 243 702 221 643 221 c 258
 619 221 l 257
 619 178 l 257
 636 179 637 179 646 179 c 256
 713 179 741 157 741 112 c 256
 741 64 711 38 656 38 c 256
 603 38 574 64 573 124 c 257
 515 124 l 257
 515 117 l 258
NamedP: "hr00"
219 279 m 257
 219 671 l 257
 166 671 l 257
 161 615 133 597 66 597 c 258
 56 597 l 257
 56 559 l 257
 70 559 l 258
 97 559 114 560 122 561 c 256
 131 563 144 564 161 564 c 257
 161 279 l 257
 219 279 l 257
225 -27 m 257
 665 679 l 257
 596 679 l 257
 155 -27 l 257
 225 -27 l 257
EndSplineSet
PickledDataWithLists: "(dp1
S'com.adobe.type.autohint'
p2
(S'data'
S'<data>\\n  <hintSetList>\\n    <hintset pointTag=\"hr00\">\\n      <hstem pos=\"-5\" width=\"43\"/>\\n      <hstem pos=\"179\" width=\"42\"/>\\n      <hstem pos=\"342\" width=\"41\"/>\\n      <hstem pos=\"559\" width=\"38\"/>\\n      <vstem pos=\"161\" width=\"58\"/>\\n      <vstem pos=\"515\" width=\"58\"/>\\n      <vstem pos=\"528\" width=\"54\"/>\\n      <vstem pos=\"729\" width=\"55\"/>\\n      <vstem pos=\"741\" width=\"57\"/>\\n    </hintset>\\n  </hintSetList>\\n  </data>'
Ntp3
s."
EndChar

StartChar: arrowleft
Encoding: 219 8592 219
GlifName: arrowleft
Width: 837
VWidth: 0
Flags: W
LayerCount: 2
Back
Fore
SplineSet
795 322 m 257
NamedP: "hr00"
 795 376 l 257
 226 376 l 257
 241 392 255 414 266 441 c 256
 280 476 286 511 286 544 c 257
 218 449 133 385 30 349 c 257
 133 312 218 247 286 151 c 257
 286 187 280 221 266 254 c 256
 257 275 242 298 224 322 c 257
 795 322 l 257
NamedP: "hr00"
EndSplineSet
PickledDataWithLists: "(dp1
S'com.adobe.type.autohint'
p2
(S'data'
S'<data>\\n  <hintSetList>\\n    <hintset pointTag=\"hr00\">\\n      <hstem pos=\"322\" width=\"54\"/>\\n      <vstem pos=\"30\" width=\"765\"/>\\n    </hintset>\\n  </hintSetList>\\n  </data>'
Ntp3
s."
EndChar

StartChar: arrowup
Encoding: 220 8593 220
GlifName: arrowup
Width: 464
VWidth: 0
Flags: W
LayerCount: 2
Back
Fore
SplineSet
200 -35 m 257
NamedP: "hr00"
 255 -35 l 257
 255 536 l 257
 271 521 293 508 320 497 c 256
 353 483 387 476 421 476 c 257
 332 540 266 626 227 733 c 257
 187 626 122 540 33 476 c 257
 67 476 100 482 133 497 c 256
 155 507 177 521 200 537 c 257
 200 -35 l 257
NamedP: "hr00"
EndSplineSet
PickledDataWithLists: "(dp1
S'com.adobe.type.autohint'
p2
(S'data'
S'<data>\\n  <hintSetList>\\n    <hintset pointTag=\"hr00\">\\n      <hstem pos=\"-35\" width=\"768\"/>\\n      <vstem pos=\"200\" width=\"55\"/>\\n    </hintset>\\n  </hintSetList>\\n  </data>'
Ntp3
s."
EndChar

StartChar: arrowright
Encoding: 221 8594 221
GlifName: arrowright
Width: 838
VWidth: 0
Flags: W
LayerCount: 2
Back
Fore
SplineSet
33 376 m 257
NamedP: "hr00"
 33 322 l 257
 602 322 l 257
 589 304 576 282 564 255 c 256
 549 221 542 186 542 151 c 257
 613 247 698 312 798 349 c 257
 698 385 613 449 542 544 c 257
 542 509 549 475 564 442 c 256
 574 421 588 399 605 376 c 257
 33 376 l 257
NamedP: "hr00"
EndSplineSet
PickledDataWithLists: "(dp1
S'com.adobe.type.autohint'
p2
(S'data'
S'<data>\\n  <hintSetList>\\n    <hintset pointTag=\"hr00\">\\n      <hstem pos=\"322\" width=\"54\"/>\\n      <vstem pos=\"33\" width=\"765\"/>\\n    </hintset>\\n  </hintSetList>\\n  </data>'
Ntp3
s."
EndChar

StartChar: arrowdown
Encoding: 222 8595 222
GlifName: arrowdown
Width: 465
VWidth: 0
Flags: W
LayerCount: 2
Back
Fore
SplineSet
204 159 m 257
NamedP: "hr00"
 181 175 159 189 138 199 c 256
 106 215 72 222 37 222 c 257
 126 155 191 69 231 -38 c 257
 270 69 336 155 425 222 c 257
 391 222 357 213 324 199 c 256
 297 187 275 175 259 162 c 257
 259 729 l 257
 204 729 l 257
 204 159 l 257
NamedP: "hr00"
EndSplineSet
PickledDataWithLists: "(dp1
S'com.adobe.type.autohint'
p2
(S'data'
S'<data>\\n  <hintSetList>\\n    <hintset pointTag=\"hr00\">\\n      <hstem pos=\"-38\" width=\"767\"/>\\n      <vstem pos=\"204\" width=\"55\"/>\\n    </hintset>\\n  </hintSetList>\\n  </data>'
Ntp3
s."
EndChar

StartChar: minus
Encoding: 223 8722 223
GlifName: minus
Width: 680
VWidth: 0
Flags: W
LayerCount: 2
Back
Fore
SplineSet
21 204 m 257
NamedP: "hr00"
 627 204 l 257
 627 278 l 257
 21 278 l 257
 21 204 l 257
NamedP: "hr00"
EndSplineSet
PickledDataWithLists: "(dp1
S'com.adobe.type.autohint'
p2
(S'data'
S'<data>\\n  <hintSetList>\\n    <hintset pointTag=\"hr00\">\\n      <hstem pos=\"204\" width=\"74\"/>\\n      <vstem pos=\"21\" width=\"606\"/>\\n    </hintset>\\n  </hintSetList>\\n  </data>'
Ntp3
s."
EndChar

